<mxfile host="app.diagrams.net" modified="2024-03-17T17:23:37.835Z" agent="Mozilla/5.0 (X11; Linux x86_64) AppleWebKit/537.36 (KHTML, like Gecko) Chrome/117.0.0.0 Safari/537.36" etag="ZKEOmmBJvxGLuHIO8Ui3" version="24.0.7" type="google">
  <diagram id="C5RBs43oDa-KdzZeNtuy" name="Page-1">
    <mxGraphModel grid="0" page="1" gridSize="42" guides="1" tooltips="1" connect="1" arrows="1" fold="1" pageScale="1" pageWidth="827" pageHeight="1169" background="#D1D1D1" math="0" shadow="0">
      <root>
        <mxCell id="WIyWlLk6GJQsqaUBKTNV-0" />
        <mxCell id="WIyWlLk6GJQsqaUBKTNV-1" parent="WIyWlLk6GJQsqaUBKTNV-0" />
        <mxCell id="TTCNMAuqTzoZXRjNOpaT-1" value="&lt;i style=&quot;font-size: 16px;&quot;&gt;PlayerAbstract&lt;/i&gt;" style="swimlane;fontStyle=1;align=center;verticalAlign=top;childLayout=stackLayout;horizontal=1;startSize=26;horizontalStack=0;resizeParent=1;resizeParentMax=0;resizeLast=0;collapsible=1;marginBottom=0;whiteSpace=wrap;html=1;fillColor=#ffe6cc;strokeColor=#d79b00;strokeWidth=5;swimlaneLine=1;fontSize=16;fontFamily=Courier New;" vertex="1" parent="WIyWlLk6GJQsqaUBKTNV-1">
          <mxGeometry x="-916" y="-69" width="630" height="238" as="geometry" />
        </mxCell>
        <mxCell id="TTCNMAuqTzoZXRjNOpaT-2" value="+ rect: Rect&lt;div style=&quot;font-size: 16px;&quot;&gt;+ uiElementsList: List&lt;/div&gt;" style="text;strokeColor=#d79b00;fillColor=#ffe6cc;align=left;verticalAlign=top;spacingLeft=4;spacingRight=4;overflow=hidden;rotatable=0;points=[[0,0.5],[1,0.5]];portConstraint=eastwest;whiteSpace=wrap;html=1;strokeWidth=5;swimlaneLine=1;fontSize=16;fontFamily=Courier New;" vertex="1" parent="TTCNMAuqTzoZXRjNOpaT-1">
          <mxGeometry y="26" width="630" height="44" as="geometry" />
        </mxCell>
        <mxCell id="TTCNMAuqTzoZXRjNOpaT-3" value="" style="line;strokeWidth=5;fillColor=#ffe6cc;align=left;verticalAlign=middle;spacingTop=-1;spacingLeft=3;spacingRight=3;rotatable=0;labelPosition=right;points=[];portConstraint=eastwest;strokeColor=#d79b00;swimlaneLine=1;fontSize=16;fontFamily=Courier New;" vertex="1" parent="TTCNMAuqTzoZXRjNOpaT-1">
          <mxGeometry y="70" width="630" height="8" as="geometry" />
        </mxCell>
        <mxCell id="TTCNMAuqTzoZXRjNOpaT-4" value="&lt;i style=&quot;font-size: 16px;&quot;&gt;+ update() : Tuple&lt;/i&gt;&lt;div style=&quot;font-size: 16px;&quot;&gt;&lt;i style=&quot;font-size: 16px;&quot;&gt;+ draw(screen : Surface)&lt;/i&gt;&lt;/div&gt;&lt;div style=&quot;font-size: 16px;&quot;&gt;+ addObserver(observer: Object)&lt;/div&gt;&lt;div style=&quot;font-size: 16px;&quot;&gt;+ delObserver(&lt;span style=&quot;background-color: initial; font-size: 16px;&quot;&gt;observer: Object&lt;/span&gt;&lt;span style=&quot;background-color: initial; font-size: 16px;&quot;&gt;)&lt;/span&gt;&lt;/div&gt;&lt;div style=&quot;font-size: 16px;&quot;&gt;+ notify()&lt;/div&gt;&lt;div style=&quot;font-size: 16px;&quot;&gt;+ setVolume(volume)&lt;/div&gt;&lt;div style=&quot;font-size: 16px;&quot;&gt;+ setHealth(health : int)&lt;/div&gt;&lt;div style=&quot;font-size: 16px;&quot;&gt;+ getDificulty(): Dificulty&lt;/div&gt;" style="text;strokeColor=#d79b00;fillColor=#ffe6cc;align=left;verticalAlign=top;spacingLeft=4;spacingRight=4;overflow=hidden;rotatable=0;points=[[0,0.5],[1,0.5]];portConstraint=eastwest;whiteSpace=wrap;html=1;strokeWidth=5;swimlaneLine=1;fontSize=16;fontFamily=Courier New;" vertex="1" parent="TTCNMAuqTzoZXRjNOpaT-1">
          <mxGeometry y="78" width="630" height="160" as="geometry" />
        </mxCell>
        <mxCell id="TTCNMAuqTzoZXRjNOpaT-5" value="Player" style="swimlane;fontStyle=1;align=center;verticalAlign=top;childLayout=stackLayout;horizontal=1;startSize=26;horizontalStack=0;resizeParent=1;resizeParentMax=0;resizeLast=0;collapsible=1;marginBottom=0;whiteSpace=wrap;html=1;fillColor=#ffe6cc;strokeColor=#d79b00;strokeWidth=5;swimlaneLine=1;fontSize=16;fontFamily=Courier New;" vertex="1" parent="WIyWlLk6GJQsqaUBKTNV-1">
          <mxGeometry x="-979" y="-585" width="756" height="342" as="geometry" />
        </mxCell>
        <mxCell id="TTCNMAuqTzoZXRjNOpaT-6" value="+ image: Surface&lt;div style=&quot;font-size: 16px;&quot;&gt;+ hitImage: Surface&lt;/div&gt;&lt;div style=&quot;font-size: 16px;&quot;&gt;+ dificulty : Dificulty&lt;/div&gt;&lt;div style=&quot;font-size: 16px;&quot;&gt;+ states: Dict&lt;/div&gt;" style="text;strokeColor=#d79b00;fillColor=#ffe6cc;align=left;verticalAlign=top;spacingLeft=4;spacingRight=4;overflow=hidden;rotatable=0;points=[[0,0.5],[1,0.5]];portConstraint=eastwest;whiteSpace=wrap;html=1;strokeWidth=5;swimlaneLine=1;fontSize=16;fontFamily=Courier New;" vertex="1" parent="TTCNMAuqTzoZXRjNOpaT-5">
          <mxGeometry y="26" width="756" height="104" as="geometry" />
        </mxCell>
        <mxCell id="TTCNMAuqTzoZXRjNOpaT-7" value="" style="line;strokeWidth=5;fillColor=#ffe6cc;align=left;verticalAlign=middle;spacingTop=-1;spacingLeft=3;spacingRight=3;rotatable=0;labelPosition=right;points=[];portConstraint=eastwest;strokeColor=#d79b00;swimlaneLine=1;fontSize=16;fontFamily=Courier New;" vertex="1" parent="TTCNMAuqTzoZXRjNOpaT-5">
          <mxGeometry y="130" width="756" height="8" as="geometry" />
        </mxCell>
        <mxCell id="TTCNMAuqTzoZXRjNOpaT-8" value="&lt;div style=&quot;font-size: 16px;&quot;&gt;+ Player(x : int, y : int, dificulty : Dificulty, ui: UI)&lt;/div&gt;&lt;div style=&quot;font-size: 16px;&quot;&gt;+ update(world: World, dt : float, enemiesGroup : Group, interactuableGroup: Group, triggerGroup: Group, cameraOffset: int): Tuple&lt;/div&gt;&lt;div style=&quot;font-size: 16px;&quot;&gt;+ draw()&lt;/div&gt;&lt;div style=&quot;font-size: 16px;&quot;&gt;+ hit(damage: int)&lt;/div&gt;&lt;div style=&quot;font-size: 16px;&quot;&gt;+ interact(interactuableGroup : Group)&lt;/div&gt;&lt;div style=&quot;font-size: 16px;&quot;&gt;+ doInteract(interactuableGroup: Group)&lt;/div&gt;&lt;div style=&quot;font-size: 16px;&quot;&gt;+ interactTrigger(triggerGroup: Group)&lt;/div&gt;" style="text;strokeColor=#d79b00;fillColor=#ffe6cc;align=left;verticalAlign=top;spacingLeft=4;spacingRight=4;overflow=hidden;rotatable=0;points=[[0,0.5],[1,0.5]];portConstraint=eastwest;whiteSpace=wrap;html=1;strokeWidth=5;swimlaneLine=1;fontSize=16;fontFamily=Courier New;" vertex="1" parent="TTCNMAuqTzoZXRjNOpaT-5">
          <mxGeometry y="138" width="756" height="204" as="geometry" />
        </mxCell>
        <mxCell id="TTCNMAuqTzoZXRjNOpaT-84" style="edgeStyle=orthogonalEdgeStyle;rounded=0;orthogonalLoop=1;jettySize=auto;html=1;exitX=1.002;exitY=0.672;exitDx=0;exitDy=0;endArrow=block;endFill=0;fillColor=#fff2cc;strokeColor=#d6b656;strokeWidth=5;swimlaneLine=1;fontSize=16;fontFamily=Courier New;exitPerimeter=0;entryX=0;entryY=0.5;entryDx=0;entryDy=0;endSize=18;" edge="1" parent="WIyWlLk6GJQsqaUBKTNV-1" source="TTCNMAuqTzoZXRjNOpaT-16" target="TTCNMAuqTzoZXRjNOpaT-1">
          <mxGeometry relative="1" as="geometry">
            <mxPoint x="-916.6000000000004" y="-497.03999999999996" as="targetPoint" />
            <mxPoint x="-2310" y="-250" as="sourcePoint" />
          </mxGeometry>
        </mxCell>
        <mxCell id="TTCNMAuqTzoZXRjNOpaT-13" value="PlayerWithDash&lt;div style=&quot;font-size: 16px;&quot;&gt;&lt;br style=&quot;font-size: 16px;&quot;&gt;&lt;/div&gt;" style="swimlane;fontStyle=1;align=center;verticalAlign=top;childLayout=stackLayout;horizontal=1;startSize=26;horizontalStack=0;resizeParent=1;resizeParentMax=0;resizeLast=0;collapsible=1;marginBottom=0;whiteSpace=wrap;html=1;fillColor=#ffe6cc;strokeColor=#d79b00;strokeWidth=5;swimlaneLine=1;fontSize=16;fontFamily=Courier New;" vertex="1" parent="WIyWlLk6GJQsqaUBKTNV-1">
          <mxGeometry x="-2055" y="-557" width="756" height="294" as="geometry" />
        </mxCell>
        <mxCell id="TTCNMAuqTzoZXRjNOpaT-14" value="+ player : PlayerAbstract&lt;div style=&quot;font-size: 16px;&quot;&gt;+ ui : UI&lt;/div&gt;&lt;div style=&quot;font-size: 16px;&quot;&gt;+ states: Dict&lt;/div&gt;" style="text;strokeColor=#d79b00;fillColor=#ffe6cc;align=left;verticalAlign=top;spacingLeft=4;spacingRight=4;overflow=hidden;rotatable=0;points=[[0,0.5],[1,0.5]];portConstraint=eastwest;whiteSpace=wrap;html=1;strokeWidth=5;swimlaneLine=1;fontSize=16;fontFamily=Courier New;" vertex="1" parent="TTCNMAuqTzoZXRjNOpaT-13">
          <mxGeometry y="26" width="756" height="58" as="geometry" />
        </mxCell>
        <mxCell id="TTCNMAuqTzoZXRjNOpaT-15" value="" style="line;strokeWidth=5;fillColor=#ffe6cc;align=left;verticalAlign=middle;spacingTop=-1;spacingLeft=3;spacingRight=3;rotatable=0;labelPosition=right;points=[];portConstraint=eastwest;strokeColor=#d79b00;swimlaneLine=1;fontSize=16;fontFamily=Courier New;" vertex="1" parent="TTCNMAuqTzoZXRjNOpaT-13">
          <mxGeometry y="84" width="756" height="8" as="geometry" />
        </mxCell>
        <mxCell id="TTCNMAuqTzoZXRjNOpaT-16" value="&lt;div style=&quot;font-size: 16px;&quot;&gt;&lt;div style=&quot;font-size: 16px;&quot;&gt;+ PlayerWithDash(player: PlayerAbstract)&lt;/div&gt;+ update(world: World, dt : float, enemiesGroup : Group, interactuableGroup: Group, triggerGroup: Group, cameraOffset: int): Tuple&lt;br style=&quot;font-size: 16px;&quot;&gt;&lt;div style=&quot;font-size: 16px;&quot;&gt;+ draw()&lt;/div&gt;&lt;div style=&quot;font-size: 16px;&quot;&gt;+ hit(damage: int)&lt;/div&gt;&lt;div style=&quot;font-size: 16px;&quot;&gt;+ interact(interactuableGroup : Group)&lt;/div&gt;&lt;div style=&quot;font-size: 16px;&quot;&gt;+ doInteract(interactuableGroup: Group)&lt;/div&gt;&lt;div style=&quot;font-size: 16px;&quot;&gt;+ interactTrigger(triggerGroup: Group)&lt;/div&gt;&lt;/div&gt;+ dash()&lt;div style=&quot;font-size: 16px;&quot;&gt;+ undash()&lt;/div&gt;" style="text;strokeColor=#d79b00;fillColor=#ffe6cc;align=left;verticalAlign=top;spacingLeft=4;spacingRight=4;overflow=hidden;rotatable=0;points=[[0,0.5],[1,0.5]];portConstraint=eastwest;whiteSpace=wrap;html=1;strokeWidth=5;swimlaneLine=1;fontSize=16;fontFamily=Courier New;" vertex="1" parent="TTCNMAuqTzoZXRjNOpaT-13">
          <mxGeometry y="92" width="756" height="202" as="geometry" />
        </mxCell>
        <mxCell id="TTCNMAuqTzoZXRjNOpaT-17" value="&lt;div style=&quot;font-size: 16px;&quot;&gt;PlayerWithShield&lt;/div&gt;" style="swimlane;fontStyle=1;align=center;verticalAlign=top;childLayout=stackLayout;horizontal=1;startSize=26;horizontalStack=0;resizeParent=1;resizeParentMax=0;resizeLast=0;collapsible=1;marginBottom=0;whiteSpace=wrap;html=1;fillColor=#ffe6cc;strokeColor=#d79b00;strokeWidth=5;swimlaneLine=1;fontSize=16;fontFamily=Courier New;" vertex="1" parent="WIyWlLk6GJQsqaUBKTNV-1">
          <mxGeometry x="-2067" y="-102" width="756" height="336" as="geometry" />
        </mxCell>
        <mxCell id="TTCNMAuqTzoZXRjNOpaT-18" value="+ player : PlayerAbstract&lt;div style=&quot;font-size: 16px;&quot;&gt;+ ui : UI&lt;/div&gt;&lt;div style=&quot;font-size: 16px;&quot;&gt;+ states: Dict&lt;/div&gt;" style="text;strokeColor=#d79b00;fillColor=#ffe6cc;align=left;verticalAlign=top;spacingLeft=4;spacingRight=4;overflow=hidden;rotatable=0;points=[[0,0.5],[1,0.5]];portConstraint=eastwest;whiteSpace=wrap;html=1;strokeWidth=5;swimlaneLine=1;fontSize=16;fontFamily=Courier New;" vertex="1" parent="TTCNMAuqTzoZXRjNOpaT-17">
          <mxGeometry y="26" width="756" height="58" as="geometry" />
        </mxCell>
        <mxCell id="TTCNMAuqTzoZXRjNOpaT-19" value="" style="line;strokeWidth=5;fillColor=#ffe6cc;align=left;verticalAlign=middle;spacingTop=-1;spacingLeft=3;spacingRight=3;rotatable=0;labelPosition=right;points=[];portConstraint=eastwest;strokeColor=#d79b00;swimlaneLine=1;fontSize=16;fontFamily=Courier New;" vertex="1" parent="TTCNMAuqTzoZXRjNOpaT-17">
          <mxGeometry y="84" width="756" height="8" as="geometry" />
        </mxCell>
        <mxCell id="TTCNMAuqTzoZXRjNOpaT-20" value="&lt;div style=&quot;font-size: 16px;&quot;&gt;+ PlayerWithShield(player: PlayerAbstract)&lt;/div&gt;+ update(world: World, dt : float, enemiesGroup : Group, interactuableGroup: Group, triggerGroup: Group, cameraOffset: int): Tuple&lt;div style=&quot;font-size: 16px;&quot;&gt;+ draw()&lt;/div&gt;&lt;div style=&quot;font-size: 16px;&quot;&gt;+ hit(damage: int)&lt;/div&gt;&lt;div style=&quot;font-size: 16px;&quot;&gt;+ interact(interactuableGroup : Group)&lt;/div&gt;&lt;div style=&quot;font-size: 16px;&quot;&gt;+ doInteract(interactuableGroup: Group)&lt;/div&gt;&lt;div style=&quot;font-size: 16px;&quot;&gt;+ interactTrigger(triggerGroup: Group)&lt;/div&gt;&lt;div style=&quot;font-size: 16px;&quot;&gt;+ cover()&lt;/div&gt;&lt;div style=&quot;font-size: 16px;&quot;&gt;+ deflect(direction : Int, bulletImage : Surface, velocidadBala: Int, damage: Int, posX : int, posY: int, bulletsGroup: Group)&lt;/div&gt;" style="text;strokeColor=#d79b00;fillColor=#ffe6cc;align=left;verticalAlign=top;spacingLeft=4;spacingRight=4;overflow=hidden;rotatable=0;points=[[0,0.5],[1,0.5]];portConstraint=eastwest;whiteSpace=wrap;html=1;strokeWidth=5;swimlaneLine=1;fontSize=16;fontFamily=Courier New;" vertex="1" parent="TTCNMAuqTzoZXRjNOpaT-17">
          <mxGeometry y="92" width="756" height="244" as="geometry" />
        </mxCell>
        <mxCell id="TTCNMAuqTzoZXRjNOpaT-21" value="&lt;div style=&quot;font-size: 16px;&quot;&gt;PlayerWithUpgradePistol&lt;/div&gt;&lt;div style=&quot;font-size: 16px;&quot;&gt;&lt;br style=&quot;font-size: 16px;&quot;&gt;&lt;/div&gt;" style="swimlane;fontStyle=1;align=center;verticalAlign=top;childLayout=stackLayout;horizontal=1;startSize=26;horizontalStack=0;resizeParent=1;resizeParentMax=0;resizeLast=0;collapsible=1;marginBottom=0;whiteSpace=wrap;html=1;fillColor=#ffe6cc;strokeColor=#d79b00;strokeWidth=5;swimlaneLine=1;fontSize=16;fontFamily=Courier New;" vertex="1" parent="WIyWlLk6GJQsqaUBKTNV-1">
          <mxGeometry x="-700" y="451" width="798" height="285" as="geometry" />
        </mxCell>
        <mxCell id="TTCNMAuqTzoZXRjNOpaT-22" value="+ player : PlayerAbstract&lt;div style=&quot;font-size: 16px;&quot;&gt;+ ui : UI&lt;/div&gt;&lt;div style=&quot;font-size: 16px;&quot;&gt;+ states: Dict&lt;/div&gt;" style="text;strokeColor=#d79b00;fillColor=#ffe6cc;align=left;verticalAlign=top;spacingLeft=4;spacingRight=4;overflow=hidden;rotatable=0;points=[[0,0.5],[1,0.5]];portConstraint=eastwest;whiteSpace=wrap;html=1;strokeWidth=5;swimlaneLine=1;fontSize=16;fontFamily=Courier New;" vertex="1" parent="TTCNMAuqTzoZXRjNOpaT-21">
          <mxGeometry y="26" width="798" height="58" as="geometry" />
        </mxCell>
        <mxCell id="TTCNMAuqTzoZXRjNOpaT-23" value="" style="line;strokeWidth=5;fillColor=#ffe6cc;align=left;verticalAlign=middle;spacingTop=-1;spacingLeft=3;spacingRight=3;rotatable=0;labelPosition=right;points=[];portConstraint=eastwest;strokeColor=#d79b00;swimlaneLine=1;fontSize=16;fontFamily=Courier New;" vertex="1" parent="TTCNMAuqTzoZXRjNOpaT-21">
          <mxGeometry y="84" width="798" height="8" as="geometry" />
        </mxCell>
        <mxCell id="TTCNMAuqTzoZXRjNOpaT-24" value="&lt;div style=&quot;font-size: 16px;&quot;&gt;+ PlayerWithUpgradePistol(player: PlayerAbstract)&lt;/div&gt;&lt;div style=&quot;font-size: 16px;&quot;&gt;&lt;span style=&quot;background-color: initial; font-size: 16px;&quot;&gt;+ update(world: World, dt : float, enemiesGroup : Group, interactuableGroup: Group, triggerGroup: Group, cameraOffset: int): Tuple&lt;/span&gt;+ draw()&lt;/div&gt;&lt;div style=&quot;font-size: 16px;&quot;&gt;+ hit(damage: int)&lt;/div&gt;&lt;div style=&quot;font-size: 16px;&quot;&gt;+ interact(interactuableGroup : Group)&lt;/div&gt;&lt;div style=&quot;font-size: 16px;&quot;&gt;+ doInteract(interactuableGroup: Group)&lt;/div&gt;&lt;div style=&quot;font-size: 16px;&quot;&gt;+ interactTrigger(triggerGroup: Group)&lt;/div&gt;&lt;div style=&quot;font-size: 16px;&quot;&gt;+ shoot(direction : int, bulletsGroup : Group)&lt;/div&gt;&lt;div style=&quot;font-size: 16px;&quot;&gt;+ shootUpdateSprites(direction)&lt;/div&gt;" style="text;strokeColor=#d79b00;fillColor=#ffe6cc;align=left;verticalAlign=top;spacingLeft=4;spacingRight=4;overflow=hidden;rotatable=0;points=[[0,0.5],[1,0.5]];portConstraint=eastwest;whiteSpace=wrap;html=1;strokeWidth=5;swimlaneLine=1;fontSize=16;fontFamily=Courier New;" vertex="1" parent="TTCNMAuqTzoZXRjNOpaT-21">
          <mxGeometry y="92" width="798" height="193" as="geometry" />
        </mxCell>
        <mxCell id="TTCNMAuqTzoZXRjNOpaT-25" value="&lt;div style=&quot;font-size: 16px;&quot;&gt;PlayerWithGrenadeLauncher&lt;/div&gt;&lt;div style=&quot;font-size: 16px;&quot;&gt;&lt;br style=&quot;font-size: 16px;&quot;&gt;&lt;/div&gt;" style="swimlane;fontStyle=1;align=center;verticalAlign=top;childLayout=stackLayout;horizontal=1;startSize=26;horizontalStack=0;resizeParent=1;resizeParentMax=0;resizeLast=0;collapsible=1;marginBottom=0;whiteSpace=wrap;html=1;fillColor=#ffe6cc;strokeColor=#d79b00;strokeWidth=5;swimlaneLine=1;fontSize=16;fontFamily=Courier New;" vertex="1" parent="WIyWlLk6GJQsqaUBKTNV-1">
          <mxGeometry x="-80" y="-276" width="798" height="309" as="geometry">
            <mxRectangle x="462" y="666" width="210" height="42" as="alternateBounds" />
          </mxGeometry>
        </mxCell>
        <mxCell id="TTCNMAuqTzoZXRjNOpaT-26" value="+ player : PlayerAbstract&lt;div style=&quot;font-size: 16px;&quot;&gt;+ ui : UI&lt;/div&gt;&lt;div style=&quot;font-size: 16px;&quot;&gt;+ states: Dict&lt;/div&gt;" style="text;strokeColor=#d79b00;fillColor=#ffe6cc;align=left;verticalAlign=top;spacingLeft=4;spacingRight=4;overflow=hidden;rotatable=0;points=[[0,0.5],[1,0.5]];portConstraint=eastwest;whiteSpace=wrap;html=1;strokeWidth=5;swimlaneLine=1;fontSize=16;fontFamily=Courier New;" vertex="1" parent="TTCNMAuqTzoZXRjNOpaT-25">
          <mxGeometry y="26" width="798" height="82" as="geometry" />
        </mxCell>
        <mxCell id="TTCNMAuqTzoZXRjNOpaT-27" value="" style="line;strokeWidth=5;fillColor=#ffe6cc;align=left;verticalAlign=middle;spacingTop=-1;spacingLeft=3;spacingRight=3;rotatable=0;labelPosition=right;points=[];portConstraint=eastwest;strokeColor=#d79b00;swimlaneLine=1;fontSize=16;fontFamily=Courier New;" vertex="1" parent="TTCNMAuqTzoZXRjNOpaT-25">
          <mxGeometry y="108" width="798" height="8" as="geometry" />
        </mxCell>
        <mxCell id="TTCNMAuqTzoZXRjNOpaT-28" value="&lt;div style=&quot;font-size: 16px;&quot;&gt;+ PlayerWithGrenadeLauncher(player: PlayerAbstract)&lt;/div&gt;&lt;div style=&quot;font-size: 16px;&quot;&gt;&lt;span style=&quot;background-color: initial; font-size: 16px;&quot;&gt;+ update(world: World, dt : float, enemiesGroup : Group, interactuableGroup: Group, triggerGroup: Group, cameraOffset: int): Tuple&lt;/span&gt;+ draw()&lt;/div&gt;&lt;div style=&quot;font-size: 16px;&quot;&gt;+ hit(damage: int)&lt;/div&gt;&lt;div style=&quot;font-size: 16px;&quot;&gt;+ interact(interactuableGroup : Group)&lt;/div&gt;&lt;div style=&quot;font-size: 16px;&quot;&gt;+ doInteract(interactuableGroup: Group)&lt;/div&gt;&lt;div style=&quot;font-size: 16px;&quot;&gt;+ interactTrigger(triggerGroup: Group)&lt;/div&gt;&lt;div style=&quot;font-size: 16px;&quot;&gt;+ launchGrenade(direction : int, grenades : Group)&lt;/div&gt;&lt;div style=&quot;font-size: 16px;&quot;&gt;+ shootUpdateSprites(direction)&lt;/div&gt;" style="text;strokeColor=#d79b00;fillColor=#ffe6cc;align=left;verticalAlign=top;spacingLeft=4;spacingRight=4;overflow=hidden;rotatable=0;points=[[0,0.5],[1,0.5]];portConstraint=eastwest;whiteSpace=wrap;html=1;strokeWidth=5;swimlaneLine=1;fontSize=16;fontFamily=Courier New;" vertex="1" parent="TTCNMAuqTzoZXRjNOpaT-25">
          <mxGeometry y="116" width="798" height="193" as="geometry" />
        </mxCell>
        <mxCell id="TTCNMAuqTzoZXRjNOpaT-30" value="uiElementsList =&amp;gt; lista de observadores&lt;div style=&quot;font-size: 16px;&quot;&gt;&lt;br style=&quot;font-size: 16px;&quot;&gt;&lt;div style=&quot;font-size: 16px;&quot;&gt;observer: Object =&amp;gt; Object debe impementar el método update&lt;/div&gt;&lt;/div&gt;&lt;div style=&quot;font-size: 16px;&quot;&gt;&lt;br style=&quot;font-size: 16px;&quot;&gt;&lt;/div&gt;&lt;div style=&quot;font-size: 16px;&quot;&gt;PlayerAbstract =&amp;gt; Sujeto&lt;/div&gt;" style="shape=note;whiteSpace=wrap;html=1;backgroundOutline=1;darkOpacity=0.05;size=0;fillColor=#f5f5f5;strokeColor=#666666;strokeWidth=5;swimlaneLine=1;fontSize=16;fontFamily=Courier New;fontColor=#333333;" vertex="1" parent="WIyWlLk6GJQsqaUBKTNV-1">
          <mxGeometry x="-3277" y="83" width="672" height="204" as="geometry" />
        </mxCell>
        <mxCell id="TTCNMAuqTzoZXRjNOpaT-82" style="edgeStyle=orthogonalEdgeStyle;rounded=0;orthogonalLoop=1;jettySize=auto;html=1;entryX=0.16;entryY=1.012;entryDx=0;entryDy=0;entryPerimeter=0;endArrow=block;endFill=0;exitX=1;exitY=0.5;exitDx=0;exitDy=0;fillColor=#fff2cc;strokeColor=#d6b656;strokeWidth=5;swimlaneLine=1;fontSize=16;fontFamily=Courier New;endSize=18;" edge="1" parent="WIyWlLk6GJQsqaUBKTNV-1" source="TTCNMAuqTzoZXRjNOpaT-10" target="TTCNMAuqTzoZXRjNOpaT-4">
          <mxGeometry relative="1" as="geometry">
            <mxPoint x="504" y="336" as="sourcePoint" />
            <mxPoint x="263" y="280.00000000000006" as="targetPoint" />
            <Array as="points">
              <mxPoint x="-815" y="429" />
            </Array>
          </mxGeometry>
        </mxCell>
        <mxCell id="TTCNMAuqTzoZXRjNOpaT-85" style="edgeStyle=orthogonalEdgeStyle;rounded=0;orthogonalLoop=1;jettySize=auto;html=1;entryX=0.5;entryY=1;entryDx=0;entryDy=0;endArrow=block;endFill=0;fillColor=#fff2cc;strokeColor=#d6b656;strokeWidth=5;swimlaneLine=1;fontSize=16;fontFamily=Courier New;endSize=18;exitX=0.124;exitY=0.006;exitDx=0;exitDy=0;exitPerimeter=0;" edge="1" parent="WIyWlLk6GJQsqaUBKTNV-1" source="TTCNMAuqTzoZXRjNOpaT-21" target="TTCNMAuqTzoZXRjNOpaT-1">
          <mxGeometry relative="1" as="geometry">
            <mxPoint x="-601" y="743" as="sourcePoint" />
          </mxGeometry>
        </mxCell>
        <mxCell id="TTCNMAuqTzoZXRjNOpaT-87" style="edgeStyle=orthogonalEdgeStyle;rounded=0;orthogonalLoop=1;jettySize=auto;html=1;entryX=1.001;entryY=0.693;entryDx=0;entryDy=0;entryPerimeter=0;endArrow=block;endFill=0;fillColor=#fff2cc;strokeColor=#d6b656;strokeWidth=5;swimlaneLine=1;fontSize=16;fontFamily=Courier New;endSize=18;" edge="1" parent="WIyWlLk6GJQsqaUBKTNV-1" source="TTCNMAuqTzoZXRjNOpaT-28" target="TTCNMAuqTzoZXRjNOpaT-4">
          <mxGeometry relative="1" as="geometry" />
        </mxCell>
        <mxCell id="TTCNMAuqTzoZXRjNOpaT-88" value="Player (Componente concreto) y&lt;div style=&quot;font-size: 16px;&quot;&gt;PlayerWithX ( Decoradores)&lt;/div&gt;&lt;div style=&quot;font-size: 16px;&quot;&gt;Todos implementan los mismos metodos&lt;/div&gt;&lt;div style=&quot;font-size: 16px;&quot;&gt;(Por simplicidad, solo se muestran los fundamentales)&lt;/div&gt;" style="shape=note;whiteSpace=wrap;html=1;backgroundOutline=1;darkOpacity=0.05;size=0;fillColor=#f5f5f5;strokeColor=#666666;strokeWidth=5;swimlaneLine=1;fontSize=16;fontFamily=Courier New;fontColor=#333333;" vertex="1" parent="WIyWlLk6GJQsqaUBKTNV-1">
          <mxGeometry x="-1454" y="-1250" width="714" height="210" as="geometry" />
        </mxCell>
        <mxCell id="TTCNMAuqTzoZXRjNOpaT-163" style="edgeStyle=orthogonalEdgeStyle;rounded=0;orthogonalLoop=1;jettySize=auto;html=1;exitX=1;exitY=0.5;exitDx=0;exitDy=0;entryX=0.5;entryY=0;entryDx=0;entryDy=0;strokeWidth=5;fillColor=#e1d5e7;strokeColor=#9673a6;endSize=18;endArrow=block;endFill=0;" edge="1" parent="WIyWlLk6GJQsqaUBKTNV-1" source="TTCNMAuqTzoZXRjNOpaT-106" target="TTCNMAuqTzoZXRjNOpaT-134">
          <mxGeometry relative="1" as="geometry" />
        </mxCell>
        <mxCell id="TTCNMAuqTzoZXRjNOpaT-106" value="Bullet" style="swimlane;fontStyle=1;align=center;verticalAlign=top;childLayout=stackLayout;horizontal=1;startSize=26;horizontalStack=0;resizeParent=1;resizeParentMax=0;resizeLast=0;collapsible=1;marginBottom=0;whiteSpace=wrap;html=1;fillColor=#e1d5e7;strokeColor=#9673a6;strokeWidth=5;swimlaneLine=1;fontSize=16;fontFamily=Courier New;" vertex="1" parent="WIyWlLk6GJQsqaUBKTNV-1">
          <mxGeometry x="-672" y="1796" width="798" height="294" as="geometry" />
        </mxCell>
        <mxCell id="TTCNMAuqTzoZXRjNOpaT-107" value="+ velocidad : int&lt;div style=&quot;font-size: 16px;&quot;&gt;+ parent&lt;/div&gt;&lt;div style=&quot;font-size: 16px;&quot;&gt;+ player : PlayerAbstract&lt;/div&gt;&lt;div style=&quot;font-size: 16px;&quot;&gt;+ direction : int&lt;/div&gt;&lt;div style=&quot;font-size: 16px;&quot;&gt;+ deflected : Bool&lt;/div&gt;&lt;div style=&quot;font-size: 16px;&quot;&gt;&lt;div style=&quot;font-size: 16px;&quot;&gt;+ despawnTime : int&lt;/div&gt;&lt;/div&gt;&lt;div style=&quot;font-size: 16px;&quot;&gt;+ image : Surface&lt;/div&gt;&lt;div style=&quot;font-size: 16px;&quot;&gt;+ rect : Rect&lt;/div&gt;&lt;div style=&quot;font-size: 16px;&quot;&gt;+ mask : Mask&lt;/div&gt;" style="text;strokeColor=#9673a6;fillColor=#e1d5e7;align=left;verticalAlign=top;spacingLeft=4;spacingRight=4;overflow=hidden;rotatable=0;points=[[0,0.5],[1,0.5]];portConstraint=eastwest;whiteSpace=wrap;html=1;strokeWidth=5;swimlaneLine=1;fontSize=16;fontFamily=Courier New;" vertex="1" parent="TTCNMAuqTzoZXRjNOpaT-106">
          <mxGeometry y="26" width="798" height="142" as="geometry" />
        </mxCell>
        <mxCell id="TTCNMAuqTzoZXRjNOpaT-108" value="" style="line;strokeWidth=5;fillColor=#e1d5e7;align=left;verticalAlign=middle;spacingTop=-1;spacingLeft=3;spacingRight=3;rotatable=0;labelPosition=right;points=[];portConstraint=eastwest;strokeColor=#9673a6;swimlaneLine=1;fontSize=16;fontFamily=Courier New;" vertex="1" parent="TTCNMAuqTzoZXRjNOpaT-106">
          <mxGeometry y="168" width="798" height="8" as="geometry" />
        </mxCell>
        <mxCell id="TTCNMAuqTzoZXRjNOpaT-109" value="&lt;div style=&quot;font-size: 16px;&quot;&gt;+ update(cameraOffset : int, world :World, enemiesGroup : Group, destructiblesGroup : Group, bulletsGroup : Group, backAnimations :Group)&lt;/div&gt;+ explodeAnimation(backAnimations : Group)&lt;div style=&quot;font-size: 16px;&quot;&gt;+ move(cameraOffset : int, dt : Float, world : World, enemiesGroup : Group, backAnimations : Group, bulletsGroup : Group)&lt;/div&gt;&lt;div style=&quot;font-size: 16px;&quot;&gt;+ checkDespawnTime(bulletsGroup : Group, backAnimations : Group)&lt;/div&gt;" style="text;strokeColor=#9673a6;fillColor=#e1d5e7;align=left;verticalAlign=top;spacingLeft=4;spacingRight=4;overflow=hidden;rotatable=0;points=[[0,0.5],[1,0.5]];portConstraint=eastwest;whiteSpace=wrap;html=1;strokeWidth=5;swimlaneLine=1;fontSize=16;fontFamily=Courier New;" vertex="1" parent="TTCNMAuqTzoZXRjNOpaT-106">
          <mxGeometry y="176" width="798" height="118" as="geometry" />
        </mxCell>
        <mxCell id="TTCNMAuqTzoZXRjNOpaT-164" style="edgeStyle=orthogonalEdgeStyle;rounded=0;orthogonalLoop=1;jettySize=auto;html=1;exitX=1;exitY=0.5;exitDx=0;exitDy=0;entryX=0.75;entryY=0;entryDx=0;entryDy=0;strokeWidth=5;fillColor=#e1d5e7;strokeColor=#9673a6;endArrow=block;endFill=0;endSize=18;" edge="1" parent="WIyWlLk6GJQsqaUBKTNV-1" source="TTCNMAuqTzoZXRjNOpaT-115" target="TTCNMAuqTzoZXRjNOpaT-134">
          <mxGeometry relative="1" as="geometry" />
        </mxCell>
        <mxCell id="TTCNMAuqTzoZXRjNOpaT-115" value="Grenade" style="swimlane;fontStyle=1;align=center;verticalAlign=top;childLayout=stackLayout;horizontal=1;startSize=26;horizontalStack=0;resizeParent=1;resizeParentMax=0;resizeLast=0;collapsible=1;marginBottom=0;whiteSpace=wrap;html=1;fillColor=#e1d5e7;strokeColor=#9673a6;strokeWidth=5;swimlaneLine=1;fontSize=16;fontFamily=Courier New;" vertex="1" parent="WIyWlLk6GJQsqaUBKTNV-1">
          <mxGeometry x="82" y="849" width="840" height="323" as="geometry" />
        </mxCell>
        <mxCell id="TTCNMAuqTzoZXRjNOpaT-116" value="+ velocidad : int&lt;div style=&quot;font-size: 16px;&quot;&gt;+ parent&lt;/div&gt;&lt;div style=&quot;font-size: 16px;&quot;&gt;+ player : PlayerAbstract&lt;/div&gt;&lt;div style=&quot;font-size: 16px;&quot;&gt;+ direction : int&lt;/div&gt;&lt;div style=&quot;font-size: 16px;&quot;&gt;&lt;span style=&quot;background-color: initial; font-size: 16px;&quot;&gt;+ despawnTime : int&lt;/span&gt;&lt;br style=&quot;font-size: 16px;&quot;&gt;&lt;/div&gt;&lt;div style=&quot;font-size: 16px;&quot;&gt;+ image : Surface&lt;/div&gt;&lt;div style=&quot;font-size: 16px;&quot;&gt;+ rect : Rect&lt;/div&gt;&lt;div style=&quot;font-size: 16px;&quot;&gt;+ damageArea : GrenadeDamageArea&lt;/div&gt;" style="text;strokeColor=#9673a6;fillColor=#e1d5e7;align=left;verticalAlign=top;spacingLeft=4;spacingRight=4;overflow=hidden;rotatable=0;points=[[0,0.5],[1,0.5]];portConstraint=eastwest;whiteSpace=wrap;html=1;strokeWidth=5;swimlaneLine=1;fontSize=16;fontFamily=Courier New;" vertex="1" parent="TTCNMAuqTzoZXRjNOpaT-115">
          <mxGeometry y="26" width="840" height="171" as="geometry" />
        </mxCell>
        <mxCell id="TTCNMAuqTzoZXRjNOpaT-117" value="" style="line;strokeWidth=5;fillColor=#e1d5e7;align=left;verticalAlign=middle;spacingTop=-1;spacingLeft=3;spacingRight=3;rotatable=0;labelPosition=right;points=[];portConstraint=eastwest;strokeColor=#9673a6;swimlaneLine=1;fontSize=16;fontFamily=Courier New;" vertex="1" parent="TTCNMAuqTzoZXRjNOpaT-115">
          <mxGeometry y="197" width="840" height="8" as="geometry" />
        </mxCell>
        <mxCell id="TTCNMAuqTzoZXRjNOpaT-118" value="&lt;div style=&quot;font-size: 16px;&quot;&gt;+ update(cameraOffset : int, dt : float, world :World, enemiesGroup : Group, destructiblesGroup : Group, grenadesGroup : Group, backAnimations :Group)&lt;/div&gt;+ explode(senemiesGroup : Group, destructiblesGroup : Group, backAnimations : Group, grenadesGroup : Group, world : World, cameraOffset : int)&lt;div style=&quot;font-size: 16px;&quot;&gt;+ move(cameraOffset : int, dt : Float, world : World)&lt;/div&gt;&lt;div style=&quot;font-size: 16px;&quot;&gt;+ checkDespawnTime()&lt;/div&gt;" style="text;strokeColor=#9673a6;fillColor=#e1d5e7;align=left;verticalAlign=top;spacingLeft=4;spacingRight=4;overflow=hidden;rotatable=0;points=[[0,0.5],[1,0.5]];portConstraint=eastwest;whiteSpace=wrap;html=1;strokeWidth=5;swimlaneLine=1;fontSize=16;fontFamily=Courier New;" vertex="1" parent="TTCNMAuqTzoZXRjNOpaT-115">
          <mxGeometry y="205" width="840" height="118" as="geometry" />
        </mxCell>
        <mxCell id="TTCNMAuqTzoZXRjNOpaT-119" value="GrenadeDamageArea" style="swimlane;fontStyle=1;align=center;verticalAlign=top;childLayout=stackLayout;horizontal=1;startSize=26;horizontalStack=0;resizeParent=1;resizeParentMax=0;resizeLast=0;collapsible=1;marginBottom=0;whiteSpace=wrap;html=1;fillColor=#e1d5e7;strokeColor=#9673a6;strokeWidth=5;swimlaneLine=1;fontSize=16;fontFamily=Courier New;" vertex="1" parent="WIyWlLk6GJQsqaUBKTNV-1">
          <mxGeometry x="-112" y="1282" width="840" height="168" as="geometry" />
        </mxCell>
        <mxCell id="TTCNMAuqTzoZXRjNOpaT-120" value="+ rect: Rect" style="text;strokeColor=#9673a6;fillColor=#e1d5e7;align=left;verticalAlign=top;spacingLeft=4;spacingRight=4;overflow=hidden;rotatable=0;points=[[0,0.5],[1,0.5]];portConstraint=eastwest;whiteSpace=wrap;html=1;strokeWidth=5;swimlaneLine=1;fontSize=16;fontFamily=Courier New;" vertex="1" parent="TTCNMAuqTzoZXRjNOpaT-119">
          <mxGeometry y="26" width="840" height="58" as="geometry" />
        </mxCell>
        <mxCell id="TTCNMAuqTzoZXRjNOpaT-121" value="" style="line;strokeWidth=5;fillColor=#e1d5e7;align=left;verticalAlign=middle;spacingTop=-1;spacingLeft=3;spacingRight=3;rotatable=0;labelPosition=right;points=[];portConstraint=eastwest;strokeColor=#9673a6;swimlaneLine=1;fontSize=16;fontFamily=Courier New;" vertex="1" parent="TTCNMAuqTzoZXRjNOpaT-119">
          <mxGeometry y="84" width="840" height="8" as="geometry" />
        </mxCell>
        <mxCell id="TTCNMAuqTzoZXRjNOpaT-122" value="&lt;div style=&quot;font-size: 16px;&quot;&gt;+ update(x: int, y: int)&lt;/div&gt;" style="text;strokeColor=#9673a6;fillColor=#e1d5e7;align=left;verticalAlign=top;spacingLeft=4;spacingRight=4;overflow=hidden;rotatable=0;points=[[0,0.5],[1,0.5]];portConstraint=eastwest;whiteSpace=wrap;html=1;strokeWidth=5;swimlaneLine=1;fontSize=16;fontFamily=Courier New;" vertex="1" parent="TTCNMAuqTzoZXRjNOpaT-119">
          <mxGeometry y="92" width="840" height="76" as="geometry" />
        </mxCell>
        <mxCell id="TTCNMAuqTzoZXRjNOpaT-125" style="edgeStyle=orthogonalEdgeStyle;rounded=0;orthogonalLoop=1;jettySize=auto;html=1;exitX=0.5;exitY=0;exitDx=0;exitDy=0;entryX=0.507;entryY=1;entryDx=0;entryDy=0;entryPerimeter=0;endArrow=diamondThin;endFill=1;endSize=14;fillColor=#e1d5e7;strokeColor=#9673a6;strokeWidth=5;swimlaneLine=1;fontSize=16;fontFamily=Courier New;" edge="1" parent="WIyWlLk6GJQsqaUBKTNV-1" source="TTCNMAuqTzoZXRjNOpaT-119" target="TTCNMAuqTzoZXRjNOpaT-118">
          <mxGeometry relative="1" as="geometry" />
        </mxCell>
        <mxCell id="TTCNMAuqTzoZXRjNOpaT-126" value="GrenadeExplosion" style="swimlane;fontStyle=1;align=center;verticalAlign=top;childLayout=stackLayout;horizontal=1;startSize=26;horizontalStack=0;resizeParent=1;resizeParentMax=0;resizeLast=0;collapsible=1;marginBottom=0;whiteSpace=wrap;html=1;fillColor=#d5e8d4;strokeColor=#82b366;strokeWidth=5;swimlaneLine=1;fontSize=16;fontFamily=Courier New;" vertex="1" parent="WIyWlLk6GJQsqaUBKTNV-1">
          <mxGeometry x="1512" y="2090" width="840" height="92" as="geometry" />
        </mxCell>
        <mxCell id="TTCNMAuqTzoZXRjNOpaT-127" value="+ explosionSpriteList : List" style="text;strokeColor=#82b366;fillColor=#d5e8d4;align=left;verticalAlign=top;spacingLeft=4;spacingRight=4;overflow=hidden;rotatable=0;points=[[0,0.5],[1,0.5]];portConstraint=eastwest;whiteSpace=wrap;html=1;strokeWidth=5;swimlaneLine=1;fontSize=16;fontFamily=Courier New;" vertex="1" parent="TTCNMAuqTzoZXRjNOpaT-126">
          <mxGeometry y="26" width="840" height="58" as="geometry" />
        </mxCell>
        <mxCell id="TTCNMAuqTzoZXRjNOpaT-128" value="" style="line;strokeWidth=5;fillColor=#d5e8d4;align=left;verticalAlign=middle;spacingTop=-1;spacingLeft=3;spacingRight=3;rotatable=0;labelPosition=right;points=[];portConstraint=eastwest;strokeColor=#82b366;swimlaneLine=1;fontSize=16;fontFamily=Courier New;" vertex="1" parent="TTCNMAuqTzoZXRjNOpaT-126">
          <mxGeometry y="84" width="840" height="8" as="geometry" />
        </mxCell>
        <mxCell id="TTCNMAuqTzoZXRjNOpaT-140" style="edgeStyle=orthogonalEdgeStyle;rounded=0;orthogonalLoop=1;jettySize=auto;html=1;exitX=0.5;exitY=0;exitDx=0;exitDy=0;entryX=0.5;entryY=1;entryDx=0;entryDy=0;fillColor=#d5e8d4;strokeColor=#82b366;strokeWidth=5;swimlaneLine=1;fontSize=16;fontFamily=Courier New;endArrow=block;endFill=0;endSize=18;" edge="1" parent="WIyWlLk6GJQsqaUBKTNV-1" source="TTCNMAuqTzoZXRjNOpaT-130" target="TTCNMAuqTzoZXRjNOpaT-138">
          <mxGeometry relative="1" as="geometry" />
        </mxCell>
        <mxCell id="TTCNMAuqTzoZXRjNOpaT-130" value="Animation" style="swimlane;fontStyle=1;align=center;verticalAlign=top;childLayout=stackLayout;horizontal=1;startSize=26;horizontalStack=0;resizeParent=1;resizeParentMax=0;resizeLast=0;collapsible=1;marginBottom=0;whiteSpace=wrap;html=1;fillColor=#d5e8d4;strokeColor=#82b366;strokeWidth=5;swimlaneLine=1;fontSize=16;fontFamily=Courier New;" vertex="1" parent="WIyWlLk6GJQsqaUBKTNV-1">
          <mxGeometry x="1134" y="2839" width="840" height="168" as="geometry" />
        </mxCell>
        <mxCell id="TTCNMAuqTzoZXRjNOpaT-131" value="+ rect: Rect" style="text;strokeColor=#82b366;fillColor=#d5e8d4;align=left;verticalAlign=top;spacingLeft=4;spacingRight=4;overflow=hidden;rotatable=0;points=[[0,0.5],[1,0.5]];portConstraint=eastwest;whiteSpace=wrap;html=1;strokeWidth=5;swimlaneLine=1;fontSize=16;fontFamily=Courier New;" vertex="1" parent="TTCNMAuqTzoZXRjNOpaT-130">
          <mxGeometry y="26" width="840" height="58" as="geometry" />
        </mxCell>
        <mxCell id="TTCNMAuqTzoZXRjNOpaT-132" value="" style="line;strokeWidth=5;fillColor=#d5e8d4;align=left;verticalAlign=middle;spacingTop=-1;spacingLeft=3;spacingRight=3;rotatable=0;labelPosition=right;points=[];portConstraint=eastwest;strokeColor=#82b366;swimlaneLine=1;fontSize=16;fontFamily=Courier New;" vertex="1" parent="TTCNMAuqTzoZXRjNOpaT-130">
          <mxGeometry y="84" width="840" height="8" as="geometry" />
        </mxCell>
        <mxCell id="TTCNMAuqTzoZXRjNOpaT-133" value="&lt;div style=&quot;font-size: 16px;&quot;&gt;+ update(x: int, y: int)&lt;/div&gt;&lt;div style=&quot;font-size: 16px;&quot;&gt;+ draw(screen : Surface)&lt;/div&gt;" style="text;strokeColor=#82b366;fillColor=#d5e8d4;align=left;verticalAlign=top;spacingLeft=4;spacingRight=4;overflow=hidden;rotatable=0;points=[[0,0.5],[1,0.5]];portConstraint=eastwest;whiteSpace=wrap;html=1;strokeWidth=5;swimlaneLine=1;fontSize=16;fontFamily=Courier New;" vertex="1" parent="TTCNMAuqTzoZXRjNOpaT-130">
          <mxGeometry y="92" width="840" height="76" as="geometry" />
        </mxCell>
        <mxCell id="TTCNMAuqTzoZXRjNOpaT-134" value="pygame.sprite.Sprites" style="swimlane;fontStyle=1;align=center;verticalAlign=top;childLayout=stackLayout;horizontal=1;startSize=26;horizontalStack=0;resizeParent=1;resizeParentMax=0;resizeLast=0;collapsible=1;marginBottom=0;whiteSpace=wrap;html=1;fillColor=#f8cecc;strokeColor=#b85450;strokeWidth=5;swimlaneLine=1;fontSize=16;fontFamily=Courier New;" vertex="1" parent="WIyWlLk6GJQsqaUBKTNV-1">
          <mxGeometry x="882" y="2182" width="336" height="34" as="geometry" />
        </mxCell>
        <mxCell id="TTCNMAuqTzoZXRjNOpaT-135" value="" style="line;strokeWidth=5;fillColor=#f8cecc;align=left;verticalAlign=middle;spacingTop=-1;spacingLeft=3;spacingRight=3;rotatable=0;labelPosition=right;points=[];portConstraint=eastwest;strokeColor=#b85450;swimlaneLine=1;fontSize=16;fontFamily=Courier New;" vertex="1" parent="TTCNMAuqTzoZXRjNOpaT-134">
          <mxGeometry y="26" width="336" height="8" as="geometry" />
        </mxCell>
        <mxCell id="TTCNMAuqTzoZXRjNOpaT-136" style="edgeStyle=orthogonalEdgeStyle;rounded=0;orthogonalLoop=1;jettySize=auto;html=1;exitX=0.5;exitY=0;exitDx=0;exitDy=0;entryX=0.437;entryY=0.914;entryDx=0;entryDy=0;entryPerimeter=0;fillColor=#d5e8d4;strokeColor=#82b366;strokeWidth=5;swimlaneLine=1;fontSize=16;fontFamily=Courier New;endSize=18;endArrow=block;endFill=0;" edge="1" parent="WIyWlLk6GJQsqaUBKTNV-1" source="TTCNMAuqTzoZXRjNOpaT-130" target="TTCNMAuqTzoZXRjNOpaT-135">
          <mxGeometry relative="1" as="geometry" />
        </mxCell>
        <mxCell id="TTCNMAuqTzoZXRjNOpaT-138" value="PygAnimation" style="swimlane;fontStyle=1;align=center;verticalAlign=top;childLayout=stackLayout;horizontal=1;startSize=26;horizontalStack=0;resizeParent=1;resizeParentMax=0;resizeLast=0;collapsible=1;marginBottom=0;whiteSpace=wrap;html=1;fillColor=#d5e8d4;strokeColor=#82b366;strokeWidth=5;swimlaneLine=1;fontSize=16;fontFamily=Courier New;" vertex="1" parent="WIyWlLk6GJQsqaUBKTNV-1">
          <mxGeometry x="1554" y="2352" width="210" height="34" as="geometry" />
        </mxCell>
        <mxCell id="TTCNMAuqTzoZXRjNOpaT-139" value="" style="line;strokeWidth=5;fillColor=#d5e8d4;align=left;verticalAlign=middle;spacingTop=-1;spacingLeft=3;spacingRight=3;rotatable=0;labelPosition=right;points=[];portConstraint=eastwest;strokeColor=#82b366;swimlaneLine=1;fontSize=16;fontFamily=Courier New;" vertex="1" parent="TTCNMAuqTzoZXRjNOpaT-138">
          <mxGeometry y="26" width="210" height="8" as="geometry" />
        </mxCell>
        <mxCell id="TTCNMAuqTzoZXRjNOpaT-141" style="edgeStyle=orthogonalEdgeStyle;rounded=0;orthogonalLoop=1;jettySize=auto;html=1;exitX=0.382;exitY=0.375;exitDx=0;exitDy=0;entryX=0.635;entryY=-0.012;entryDx=0;entryDy=0;entryPerimeter=0;fillColor=#d5e8d4;strokeColor=#82b366;strokeWidth=5;swimlaneLine=1;fontSize=16;fontFamily=Courier New;exitPerimeter=0;endSize=18;endArrow=block;endFill=0;" edge="1" parent="WIyWlLk6GJQsqaUBKTNV-1" source="TTCNMAuqTzoZXRjNOpaT-128" target="TTCNMAuqTzoZXRjNOpaT-130">
          <mxGeometry relative="1" as="geometry">
            <Array as="points">
              <mxPoint x="1833" y="2730" />
              <mxPoint x="1667" y="2730" />
            </Array>
          </mxGeometry>
        </mxCell>
        <mxCell id="TTCNMAuqTzoZXRjNOpaT-142" value="BulletImpact" style="swimlane;fontStyle=1;align=center;verticalAlign=top;childLayout=stackLayout;horizontal=1;startSize=26;horizontalStack=0;resizeParent=1;resizeParentMax=0;resizeLast=0;collapsible=1;marginBottom=0;whiteSpace=wrap;html=1;fillColor=#d5e8d4;strokeColor=#82b366;strokeWidth=5;swimlaneLine=1;fontSize=16;fontFamily=Courier New;" vertex="1" parent="WIyWlLk6GJQsqaUBKTNV-1">
          <mxGeometry x="-6" y="2562" width="840" height="92" as="geometry" />
        </mxCell>
        <mxCell id="TTCNMAuqTzoZXRjNOpaT-143" value="+ explosionSpriteList : List" style="text;strokeColor=#82b366;fillColor=#d5e8d4;align=left;verticalAlign=top;spacingLeft=4;spacingRight=4;overflow=hidden;rotatable=0;points=[[0,0.5],[1,0.5]];portConstraint=eastwest;whiteSpace=wrap;html=1;strokeWidth=5;swimlaneLine=1;fontSize=16;fontFamily=Courier New;" vertex="1" parent="TTCNMAuqTzoZXRjNOpaT-142">
          <mxGeometry y="26" width="840" height="58" as="geometry" />
        </mxCell>
        <mxCell id="TTCNMAuqTzoZXRjNOpaT-144" value="" style="line;strokeWidth=5;fillColor=#d5e8d4;align=left;verticalAlign=middle;spacingTop=-1;spacingLeft=3;spacingRight=3;rotatable=0;labelPosition=right;points=[];portConstraint=eastwest;strokeColor=#82b366;swimlaneLine=1;fontSize=16;fontFamily=Courier New;" vertex="1" parent="TTCNMAuqTzoZXRjNOpaT-142">
          <mxGeometry y="84" width="840" height="8" as="geometry" />
        </mxCell>
        <mxCell id="TTCNMAuqTzoZXRjNOpaT-147" style="edgeStyle=orthogonalEdgeStyle;rounded=0;orthogonalLoop=1;jettySize=auto;html=1;exitX=0.481;exitY=1.222;exitDx=0;exitDy=0;entryX=-0.005;entryY=0.638;entryDx=0;entryDy=0;entryPerimeter=0;fillColor=#d5e8d4;strokeColor=#82b366;strokeWidth=5;swimlaneLine=1;fontSize=16;fontFamily=Courier New;exitPerimeter=0;endSize=18;endArrow=block;endFill=0;" edge="1" parent="WIyWlLk6GJQsqaUBKTNV-1" source="TTCNMAuqTzoZXRjNOpaT-144" target="TTCNMAuqTzoZXRjNOpaT-133">
          <mxGeometry relative="1" as="geometry">
            <Array as="points">
              <mxPoint x="398" y="2979" />
            </Array>
          </mxGeometry>
        </mxCell>
        <mxCell id="TTCNMAuqTzoZXRjNOpaT-148" value="BoxBreaking" style="swimlane;fontStyle=1;align=center;verticalAlign=top;childLayout=stackLayout;horizontal=1;startSize=26;horizontalStack=0;resizeParent=1;resizeParentMax=0;resizeLast=0;collapsible=1;marginBottom=0;whiteSpace=wrap;html=1;fillColor=#d5e8d4;strokeColor=#82b366;strokeWidth=5;swimlaneLine=1;fontSize=16;fontFamily=Courier New;" vertex="1" parent="WIyWlLk6GJQsqaUBKTNV-1">
          <mxGeometry x="1974" y="3108" width="840" height="92" as="geometry" />
        </mxCell>
        <mxCell id="TTCNMAuqTzoZXRjNOpaT-149" value="+ explosionSpriteList : List" style="text;strokeColor=#82b366;fillColor=#d5e8d4;align=left;verticalAlign=top;spacingLeft=4;spacingRight=4;overflow=hidden;rotatable=0;points=[[0,0.5],[1,0.5]];portConstraint=eastwest;whiteSpace=wrap;html=1;strokeWidth=5;swimlaneLine=1;fontSize=16;fontFamily=Courier New;" vertex="1" parent="TTCNMAuqTzoZXRjNOpaT-148">
          <mxGeometry y="26" width="840" height="58" as="geometry" />
        </mxCell>
        <mxCell id="TTCNMAuqTzoZXRjNOpaT-150" value="" style="line;strokeWidth=5;fillColor=#d5e8d4;align=left;verticalAlign=middle;spacingTop=-1;spacingLeft=3;spacingRight=3;rotatable=0;labelPosition=right;points=[];portConstraint=eastwest;strokeColor=#82b366;swimlaneLine=1;fontSize=16;fontFamily=Courier New;" vertex="1" parent="TTCNMAuqTzoZXRjNOpaT-148">
          <mxGeometry y="84" width="840" height="8" as="geometry" />
        </mxCell>
        <mxCell id="TTCNMAuqTzoZXRjNOpaT-151" style="edgeStyle=orthogonalEdgeStyle;rounded=0;orthogonalLoop=1;jettySize=auto;html=1;exitX=0.5;exitY=0;exitDx=0;exitDy=0;entryX=1.003;entryY=0.811;entryDx=0;entryDy=0;entryPerimeter=0;fillColor=#d5e8d4;strokeColor=#82b366;strokeWidth=5;swimlaneLine=1;fontSize=16;fontFamily=Courier New;endSize=18;endArrow=block;endFill=0;" edge="1" parent="WIyWlLk6GJQsqaUBKTNV-1" source="TTCNMAuqTzoZXRjNOpaT-148" target="TTCNMAuqTzoZXRjNOpaT-133">
          <mxGeometry relative="1" as="geometry">
            <Array as="points">
              <mxPoint x="2394" y="2993" />
            </Array>
          </mxGeometry>
        </mxCell>
        <mxCell id="TTCNMAuqTzoZXRjNOpaT-152" style="edgeStyle=orthogonalEdgeStyle;rounded=0;orthogonalLoop=1;jettySize=auto;html=1;exitX=0.5;exitY=0;exitDx=0;exitDy=0;entryX=1;entryY=0.5;entryDx=0;entryDy=0;endArrow=diamondThin;endFill=1;endSize=18;fillColor=#d5e8d4;strokeColor=#82b366;strokeWidth=5;swimlaneLine=1;fontSize=16;fontFamily=Courier New;" edge="1" parent="WIyWlLk6GJQsqaUBKTNV-1" source="TTCNMAuqTzoZXRjNOpaT-126" target="TTCNMAuqTzoZXRjNOpaT-116">
          <mxGeometry relative="1" as="geometry" />
        </mxCell>
        <mxCell id="TTCNMAuqTzoZXRjNOpaT-153" style="edgeStyle=orthogonalEdgeStyle;rounded=0;orthogonalLoop=1;jettySize=auto;html=1;exitX=0.593;exitY=-0.043;exitDx=0;exitDy=0;entryX=0.496;entryY=1.085;entryDx=0;entryDy=0;entryPerimeter=0;endSize=18;endArrow=diamondThin;endFill=1;exitPerimeter=0;fillColor=#d5e8d4;strokeColor=#82b366;strokeWidth=5;swimlaneLine=1;fontSize=16;fontFamily=Courier New;" edge="1" parent="WIyWlLk6GJQsqaUBKTNV-1" source="TTCNMAuqTzoZXRjNOpaT-142" target="TTCNMAuqTzoZXRjNOpaT-109">
          <mxGeometry relative="1" as="geometry">
            <mxPoint x="3001.95" y="2380.94" as="sourcePoint" />
            <mxPoint x="1848.0000000000002" y="1007.998" as="targetPoint" />
            <Array as="points">
              <mxPoint x="492" y="2268" />
              <mxPoint x="-276" y="2268" />
            </Array>
          </mxGeometry>
        </mxCell>
        <mxCell id="TTCNMAuqTzoZXRjNOpaT-31" value="&lt;div style=&quot;font-size: 16px;&quot;&gt;UI&lt;/div&gt;" style="swimlane;fontStyle=1;align=center;verticalAlign=top;childLayout=stackLayout;horizontal=1;startSize=26;horizontalStack=0;resizeParent=1;resizeParentMax=0;resizeLast=0;collapsible=1;marginBottom=0;whiteSpace=wrap;html=1;fillColor=#0050ef;strokeColor=#001DBC;strokeWidth=5;swimlaneLine=1;fontSize=16;fontFamily=Courier New;fontColor=#ffffff;" vertex="1" parent="WIyWlLk6GJQsqaUBKTNV-1">
          <mxGeometry x="-4452" y="-250" width="210" height="110" as="geometry" />
        </mxCell>
        <mxCell id="TTCNMAuqTzoZXRjNOpaT-32" value="+ field: type" style="text;strokeColor=#9673a6;fillColor=#e1d5e7;align=left;verticalAlign=top;spacingLeft=4;spacingRight=4;overflow=hidden;rotatable=0;points=[[0,0.5],[1,0.5]];portConstraint=eastwest;whiteSpace=wrap;html=1;strokeWidth=5;swimlaneLine=1;fontSize=16;fontFamily=Courier New;" vertex="1" parent="TTCNMAuqTzoZXRjNOpaT-31">
          <mxGeometry y="26" width="210" height="42" as="geometry" />
        </mxCell>
        <mxCell id="TTCNMAuqTzoZXRjNOpaT-33" value="" style="line;strokeWidth=5;fillColor=#e1d5e7;align=left;verticalAlign=middle;spacingTop=-1;spacingLeft=3;spacingRight=3;rotatable=0;labelPosition=right;points=[];portConstraint=eastwest;strokeColor=#9673a6;swimlaneLine=1;fontSize=16;fontFamily=Courier New;" vertex="1" parent="TTCNMAuqTzoZXRjNOpaT-31">
          <mxGeometry y="68" width="210" as="geometry" />
        </mxCell>
        <mxCell id="TTCNMAuqTzoZXRjNOpaT-34" value="+ method(type): type" style="text;strokeColor=#9673a6;fillColor=#e1d5e7;align=left;verticalAlign=top;spacingLeft=4;spacingRight=4;overflow=hidden;rotatable=0;points=[[0,0.5],[1,0.5]];portConstraint=eastwest;whiteSpace=wrap;html=1;strokeWidth=5;swimlaneLine=1;fontSize=16;fontFamily=Courier New;" vertex="1" parent="TTCNMAuqTzoZXRjNOpaT-31">
          <mxGeometry y="68" width="210" height="42" as="geometry" />
        </mxCell>
        <mxCell id="TTCNMAuqTzoZXRjNOpaT-35" value="UIHearts" style="swimlane;fontStyle=1;align=center;verticalAlign=top;childLayout=stackLayout;horizontal=1;startSize=26;horizontalStack=0;resizeParent=1;resizeParentMax=0;resizeLast=0;collapsible=1;marginBottom=0;whiteSpace=wrap;html=1;fillColor=#0050ef;strokeColor=#001DBC;strokeWidth=5;swimlaneLine=1;fontSize=16;fontFamily=Courier New;fontColor=#ffffff;" vertex="1" parent="WIyWlLk6GJQsqaUBKTNV-1">
          <mxGeometry x="-5082" y="-74" width="210" height="110" as="geometry" />
        </mxCell>
        <mxCell id="TTCNMAuqTzoZXRjNOpaT-36" value="+ field: type" style="text;strokeColor=#9673a6;fillColor=#e1d5e7;align=left;verticalAlign=top;spacingLeft=4;spacingRight=4;overflow=hidden;rotatable=0;points=[[0,0.5],[1,0.5]];portConstraint=eastwest;whiteSpace=wrap;html=1;strokeWidth=5;swimlaneLine=1;fontSize=16;fontFamily=Courier New;" vertex="1" parent="TTCNMAuqTzoZXRjNOpaT-35">
          <mxGeometry y="26" width="210" height="42" as="geometry" />
        </mxCell>
        <mxCell id="TTCNMAuqTzoZXRjNOpaT-37" value="" style="line;strokeWidth=5;fillColor=#e1d5e7;align=left;verticalAlign=middle;spacingTop=-1;spacingLeft=3;spacingRight=3;rotatable=0;labelPosition=right;points=[];portConstraint=eastwest;strokeColor=#9673a6;swimlaneLine=1;fontSize=16;fontFamily=Courier New;" vertex="1" parent="TTCNMAuqTzoZXRjNOpaT-35">
          <mxGeometry y="68" width="210" as="geometry" />
        </mxCell>
        <mxCell id="TTCNMAuqTzoZXRjNOpaT-38" value="+ method(type): type" style="text;strokeColor=#9673a6;fillColor=#e1d5e7;align=left;verticalAlign=top;spacingLeft=4;spacingRight=4;overflow=hidden;rotatable=0;points=[[0,0.5],[1,0.5]];portConstraint=eastwest;whiteSpace=wrap;html=1;strokeWidth=5;swimlaneLine=1;fontSize=16;fontFamily=Courier New;" vertex="1" parent="TTCNMAuqTzoZXRjNOpaT-35">
          <mxGeometry y="68" width="210" height="42" as="geometry" />
        </mxCell>
        <mxCell id="TTCNMAuqTzoZXRjNOpaT-39" value="&lt;div style=&quot;font-size: 16px;&quot;&gt;UICounter&lt;/div&gt;" style="swimlane;fontStyle=1;align=center;verticalAlign=top;childLayout=stackLayout;horizontal=1;startSize=26;horizontalStack=0;resizeParent=1;resizeParentMax=0;resizeLast=0;collapsible=1;marginBottom=0;whiteSpace=wrap;html=1;fillColor=#0050ef;strokeColor=#001DBC;strokeWidth=5;swimlaneLine=1;fontSize=16;fontFamily=Courier New;fontColor=#ffffff;" vertex="1" parent="WIyWlLk6GJQsqaUBKTNV-1">
          <mxGeometry x="-5082" y="-336" width="210" height="110" as="geometry" />
        </mxCell>
        <mxCell id="TTCNMAuqTzoZXRjNOpaT-40" value="+ field: type" style="text;strokeColor=#9673a6;fillColor=#e1d5e7;align=left;verticalAlign=top;spacingLeft=4;spacingRight=4;overflow=hidden;rotatable=0;points=[[0,0.5],[1,0.5]];portConstraint=eastwest;whiteSpace=wrap;html=1;strokeWidth=5;swimlaneLine=1;fontSize=16;fontFamily=Courier New;" vertex="1" parent="TTCNMAuqTzoZXRjNOpaT-39">
          <mxGeometry y="26" width="210" height="42" as="geometry" />
        </mxCell>
        <mxCell id="TTCNMAuqTzoZXRjNOpaT-41" value="" style="line;strokeWidth=5;fillColor=#e1d5e7;align=left;verticalAlign=middle;spacingTop=-1;spacingLeft=3;spacingRight=3;rotatable=0;labelPosition=right;points=[];portConstraint=eastwest;strokeColor=#9673a6;swimlaneLine=1;fontSize=16;fontFamily=Courier New;" vertex="1" parent="TTCNMAuqTzoZXRjNOpaT-39">
          <mxGeometry y="68" width="210" as="geometry" />
        </mxCell>
        <mxCell id="TTCNMAuqTzoZXRjNOpaT-42" value="+ method(type): type" style="text;strokeColor=#9673a6;fillColor=#e1d5e7;align=left;verticalAlign=top;spacingLeft=4;spacingRight=4;overflow=hidden;rotatable=0;points=[[0,0.5],[1,0.5]];portConstraint=eastwest;whiteSpace=wrap;html=1;strokeWidth=5;swimlaneLine=1;fontSize=16;fontFamily=Courier New;" vertex="1" parent="TTCNMAuqTzoZXRjNOpaT-39">
          <mxGeometry y="68" width="210" height="42" as="geometry" />
        </mxCell>
        <mxCell id="TTCNMAuqTzoZXRjNOpaT-43" value="&lt;div style=&quot;font-size: 16px;&quot;&gt;UIDash&lt;/div&gt;" style="swimlane;fontStyle=1;align=center;verticalAlign=top;childLayout=stackLayout;horizontal=1;startSize=26;horizontalStack=0;resizeParent=1;resizeParentMax=0;resizeLast=0;collapsible=1;marginBottom=0;whiteSpace=wrap;html=1;fillColor=#0050ef;strokeColor=#001DBC;strokeWidth=5;swimlaneLine=1;fontSize=16;fontFamily=Courier New;fontColor=#ffffff;" vertex="1" parent="WIyWlLk6GJQsqaUBKTNV-1">
          <mxGeometry x="-4788" y="110" width="210" height="110" as="geometry" />
        </mxCell>
        <mxCell id="TTCNMAuqTzoZXRjNOpaT-44" value="+ field: type" style="text;strokeColor=#9673a6;fillColor=#e1d5e7;align=left;verticalAlign=top;spacingLeft=4;spacingRight=4;overflow=hidden;rotatable=0;points=[[0,0.5],[1,0.5]];portConstraint=eastwest;whiteSpace=wrap;html=1;strokeWidth=5;swimlaneLine=1;fontSize=16;fontFamily=Courier New;" vertex="1" parent="TTCNMAuqTzoZXRjNOpaT-43">
          <mxGeometry y="26" width="210" height="42" as="geometry" />
        </mxCell>
        <mxCell id="TTCNMAuqTzoZXRjNOpaT-45" value="" style="line;strokeWidth=5;fillColor=#e1d5e7;align=left;verticalAlign=middle;spacingTop=-1;spacingLeft=3;spacingRight=3;rotatable=0;labelPosition=right;points=[];portConstraint=eastwest;strokeColor=#9673a6;swimlaneLine=1;fontSize=16;fontFamily=Courier New;" vertex="1" parent="TTCNMAuqTzoZXRjNOpaT-43">
          <mxGeometry y="68" width="210" as="geometry" />
        </mxCell>
        <mxCell id="TTCNMAuqTzoZXRjNOpaT-46" value="+ method(type): type" style="text;strokeColor=#9673a6;fillColor=#e1d5e7;align=left;verticalAlign=top;spacingLeft=4;spacingRight=4;overflow=hidden;rotatable=0;points=[[0,0.5],[1,0.5]];portConstraint=eastwest;whiteSpace=wrap;html=1;strokeWidth=5;swimlaneLine=1;fontSize=16;fontFamily=Courier New;" vertex="1" parent="TTCNMAuqTzoZXRjNOpaT-43">
          <mxGeometry y="68" width="210" height="42" as="geometry" />
        </mxCell>
        <mxCell id="Ig-3myvOuiy7OCBKOPEr-1" style="edgeStyle=orthogonalEdgeStyle;rounded=0;orthogonalLoop=1;jettySize=auto;html=1;exitX=0.5;exitY=0;exitDx=0;exitDy=0;entryX=0.5;entryY=1;entryDx=0;entryDy=0;strokeWidth=5;fillColor=#dae8fc;strokeColor=#6c8ebf;endArrow=diamondThin;endFill=0;endSize=20;" edge="1" parent="WIyWlLk6GJQsqaUBKTNV-1" source="TTCNMAuqTzoZXRjNOpaT-52" target="TTCNMAuqTzoZXRjNOpaT-31">
          <mxGeometry relative="1" as="geometry" />
        </mxCell>
        <mxCell id="Ig-3myvOuiy7OCBKOPEr-22" style="edgeStyle=orthogonalEdgeStyle;rounded=0;orthogonalLoop=1;jettySize=auto;html=1;exitX=0.5;exitY=1;exitDx=0;exitDy=0;entryX=0;entryY=0.5;entryDx=0;entryDy=0;fillColor=#dae8fc;strokeColor=#6c8ebf;strokeWidth=5;" edge="1" parent="WIyWlLk6GJQsqaUBKTNV-1" source="TTCNMAuqTzoZXRjNOpaT-52" target="TTCNMAuqTzoZXRjNOpaT-17">
          <mxGeometry relative="1" as="geometry">
            <Array as="points">
              <mxPoint x="-4347" y="350" />
              <mxPoint x="-2389" y="350" />
              <mxPoint x="-2389" y="66" />
            </Array>
          </mxGeometry>
        </mxCell>
        <mxCell id="TTCNMAuqTzoZXRjNOpaT-52" value="&lt;div style=&quot;font-size: 16px;&quot;&gt;UIEnergy&lt;/div&gt;" style="swimlane;fontStyle=1;align=center;verticalAlign=top;childLayout=stackLayout;horizontal=1;startSize=26;horizontalStack=0;resizeParent=1;resizeParentMax=0;resizeLast=0;collapsible=1;marginBottom=0;whiteSpace=wrap;html=1;fillColor=#0050ef;strokeColor=#001DBC;strokeWidth=5;swimlaneLine=1;fontSize=16;fontFamily=Courier New;fontColor=#ffffff;" vertex="1" parent="WIyWlLk6GJQsqaUBKTNV-1">
          <mxGeometry x="-4452" y="220" width="210" height="110" as="geometry" />
        </mxCell>
        <mxCell id="TTCNMAuqTzoZXRjNOpaT-53" value="+ field: type" style="text;strokeColor=#9673a6;fillColor=#e1d5e7;align=left;verticalAlign=top;spacingLeft=4;spacingRight=4;overflow=hidden;rotatable=0;points=[[0,0.5],[1,0.5]];portConstraint=eastwest;whiteSpace=wrap;html=1;strokeWidth=5;swimlaneLine=1;fontSize=16;fontFamily=Courier New;" vertex="1" parent="TTCNMAuqTzoZXRjNOpaT-52">
          <mxGeometry y="26" width="210" height="42" as="geometry" />
        </mxCell>
        <mxCell id="TTCNMAuqTzoZXRjNOpaT-54" value="" style="line;strokeWidth=5;fillColor=#e1d5e7;align=left;verticalAlign=middle;spacingTop=-1;spacingLeft=3;spacingRight=3;rotatable=0;labelPosition=right;points=[];portConstraint=eastwest;strokeColor=#9673a6;swimlaneLine=1;fontSize=16;fontFamily=Courier New;" vertex="1" parent="TTCNMAuqTzoZXRjNOpaT-52">
          <mxGeometry y="68" width="210" as="geometry" />
        </mxCell>
        <mxCell id="TTCNMAuqTzoZXRjNOpaT-55" value="+ method(type): type" style="text;strokeColor=#9673a6;fillColor=#e1d5e7;align=left;verticalAlign=top;spacingLeft=4;spacingRight=4;overflow=hidden;rotatable=0;points=[[0,0.5],[1,0.5]];portConstraint=eastwest;whiteSpace=wrap;html=1;strokeWidth=5;swimlaneLine=1;fontSize=16;fontFamily=Courier New;" vertex="1" parent="TTCNMAuqTzoZXRjNOpaT-52">
          <mxGeometry y="68" width="210" height="42" as="geometry" />
        </mxCell>
        <mxCell id="Ig-3myvOuiy7OCBKOPEr-25" style="edgeStyle=orthogonalEdgeStyle;rounded=0;orthogonalLoop=1;jettySize=auto;html=1;exitX=1;exitY=0.5;exitDx=0;exitDy=0;entryX=0.476;entryY=-0.01;entryDx=0;entryDy=0;fillColor=#dae8fc;strokeColor=#6c8ebf;strokeWidth=5;entryPerimeter=0;" edge="1" parent="WIyWlLk6GJQsqaUBKTNV-1" source="TTCNMAuqTzoZXRjNOpaT-56" target="TTCNMAuqTzoZXRjNOpaT-25">
          <mxGeometry relative="1" as="geometry">
            <Array as="points">
              <mxPoint x="-3865" y="-898" />
              <mxPoint x="300" y="-898" />
            </Array>
          </mxGeometry>
        </mxCell>
        <mxCell id="TTCNMAuqTzoZXRjNOpaT-56" value="UIGrenadeLauncherIcon" style="swimlane;fontStyle=1;align=center;verticalAlign=top;childLayout=stackLayout;horizontal=1;startSize=26;horizontalStack=0;resizeParent=1;resizeParentMax=0;resizeLast=0;collapsible=1;marginBottom=0;whiteSpace=wrap;html=1;fillColor=#0050ef;strokeColor=#001DBC;strokeWidth=5;swimlaneLine=1;fontSize=16;fontFamily=Courier New;fontColor=#ffffff;" vertex="1" parent="WIyWlLk6GJQsqaUBKTNV-1">
          <mxGeometry x="-4075" y="-562" width="210" height="110" as="geometry" />
        </mxCell>
        <mxCell id="TTCNMAuqTzoZXRjNOpaT-57" value="+ field: type" style="text;strokeColor=#9673a6;fillColor=#e1d5e7;align=left;verticalAlign=top;spacingLeft=4;spacingRight=4;overflow=hidden;rotatable=0;points=[[0,0.5],[1,0.5]];portConstraint=eastwest;whiteSpace=wrap;html=1;strokeWidth=5;swimlaneLine=1;fontSize=16;fontFamily=Courier New;" vertex="1" parent="TTCNMAuqTzoZXRjNOpaT-56">
          <mxGeometry y="26" width="210" height="42" as="geometry" />
        </mxCell>
        <mxCell id="TTCNMAuqTzoZXRjNOpaT-58" value="" style="line;strokeWidth=5;fillColor=#e1d5e7;align=left;verticalAlign=middle;spacingTop=-1;spacingLeft=3;spacingRight=3;rotatable=0;labelPosition=right;points=[];portConstraint=eastwest;strokeColor=#9673a6;swimlaneLine=1;fontSize=16;fontFamily=Courier New;" vertex="1" parent="TTCNMAuqTzoZXRjNOpaT-56">
          <mxGeometry y="68" width="210" as="geometry" />
        </mxCell>
        <mxCell id="TTCNMAuqTzoZXRjNOpaT-59" value="+ method(type): type" style="text;strokeColor=#9673a6;fillColor=#e1d5e7;align=left;verticalAlign=top;spacingLeft=4;spacingRight=4;overflow=hidden;rotatable=0;points=[[0,0.5],[1,0.5]];portConstraint=eastwest;whiteSpace=wrap;html=1;strokeWidth=5;swimlaneLine=1;fontSize=16;fontFamily=Courier New;" vertex="1" parent="TTCNMAuqTzoZXRjNOpaT-56">
          <mxGeometry y="68" width="210" height="42" as="geometry" />
        </mxCell>
        <mxCell id="TTCNMAuqTzoZXRjNOpaT-60" value="&lt;div style=&quot;font-size: 16px;&quot;&gt;UIBossHealthBar&lt;/div&gt;" style="swimlane;fontStyle=1;align=center;verticalAlign=top;childLayout=stackLayout;horizontal=1;startSize=26;horizontalStack=0;resizeParent=1;resizeParentMax=0;resizeLast=0;collapsible=1;marginBottom=0;whiteSpace=wrap;html=1;fillColor=#0050ef;strokeColor=#001DBC;strokeWidth=5;swimlaneLine=1;fontSize=16;fontFamily=Courier New;fontColor=#ffffff;" vertex="1" parent="WIyWlLk6GJQsqaUBKTNV-1">
          <mxGeometry x="-4075" y="110" width="210" height="110" as="geometry" />
        </mxCell>
        <mxCell id="TTCNMAuqTzoZXRjNOpaT-61" value="+ field: type" style="text;strokeColor=#9673a6;fillColor=#e1d5e7;align=left;verticalAlign=top;spacingLeft=4;spacingRight=4;overflow=hidden;rotatable=0;points=[[0,0.5],[1,0.5]];portConstraint=eastwest;whiteSpace=wrap;html=1;strokeWidth=5;swimlaneLine=1;fontSize=16;fontFamily=Courier New;" vertex="1" parent="TTCNMAuqTzoZXRjNOpaT-60">
          <mxGeometry y="26" width="210" height="42" as="geometry" />
        </mxCell>
        <mxCell id="TTCNMAuqTzoZXRjNOpaT-62" value="" style="line;strokeWidth=5;fillColor=#e1d5e7;align=left;verticalAlign=middle;spacingTop=-1;spacingLeft=3;spacingRight=3;rotatable=0;labelPosition=right;points=[];portConstraint=eastwest;strokeColor=#9673a6;swimlaneLine=1;fontSize=16;fontFamily=Courier New;" vertex="1" parent="TTCNMAuqTzoZXRjNOpaT-60">
          <mxGeometry y="68" width="210" as="geometry" />
        </mxCell>
        <mxCell id="TTCNMAuqTzoZXRjNOpaT-63" value="+ method(type): type" style="text;strokeColor=#9673a6;fillColor=#e1d5e7;align=left;verticalAlign=top;spacingLeft=4;spacingRight=4;overflow=hidden;rotatable=0;points=[[0,0.5],[1,0.5]];portConstraint=eastwest;whiteSpace=wrap;html=1;strokeWidth=5;swimlaneLine=1;fontSize=16;fontFamily=Courier New;" vertex="1" parent="TTCNMAuqTzoZXRjNOpaT-60">
          <mxGeometry y="68" width="210" height="42" as="geometry" />
        </mxCell>
        <mxCell id="Ig-3myvOuiy7OCBKOPEr-3" style="edgeStyle=orthogonalEdgeStyle;rounded=0;orthogonalLoop=1;jettySize=auto;html=1;exitX=0.5;exitY=0;exitDx=0;exitDy=0;entryX=1;entryY=0.5;entryDx=0;entryDy=0;strokeWidth=5;fillColor=#dae8fc;strokeColor=#6c8ebf;endArrow=diamondThin;endFill=0;endSize=20;" edge="1" parent="WIyWlLk6GJQsqaUBKTNV-1" source="TTCNMAuqTzoZXRjNOpaT-64" target="TTCNMAuqTzoZXRjNOpaT-34">
          <mxGeometry relative="1" as="geometry" />
        </mxCell>
        <mxCell id="Ig-3myvOuiy7OCBKOPEr-23" style="edgeStyle=orthogonalEdgeStyle;rounded=0;orthogonalLoop=1;jettySize=auto;html=1;exitX=0.5;exitY=1;exitDx=0;exitDy=0;entryX=0;entryY=0.5;entryDx=0;entryDy=0;strokeWidth=5;fillColor=#dae8fc;strokeColor=#6c8ebf;" edge="1" parent="WIyWlLk6GJQsqaUBKTNV-1" source="TTCNMAuqTzoZXRjNOpaT-64" target="TTCNMAuqTzoZXRjNOpaT-9">
          <mxGeometry relative="1" as="geometry" />
        </mxCell>
        <mxCell id="TTCNMAuqTzoZXRjNOpaT-64" value="&lt;div style=&quot;font-size: 16px;&quot;&gt;UIPistol&lt;/div&gt;" style="swimlane;fontStyle=1;align=center;verticalAlign=top;childLayout=stackLayout;horizontal=1;startSize=26;horizontalStack=0;resizeParent=1;resizeParentMax=0;resizeLast=0;collapsible=1;marginBottom=0;whiteSpace=wrap;html=1;fillColor=#0050ef;strokeColor=#001DBC;strokeWidth=5;swimlaneLine=1;fontSize=16;fontFamily=Courier New;fontColor=#ffffff;" vertex="1" parent="WIyWlLk6GJQsqaUBKTNV-1">
          <mxGeometry x="-3865" y="-74" width="210" height="110" as="geometry" />
        </mxCell>
        <mxCell id="TTCNMAuqTzoZXRjNOpaT-65" value="+ field: type" style="text;strokeColor=#9673a6;fillColor=#e1d5e7;align=left;verticalAlign=top;spacingLeft=4;spacingRight=4;overflow=hidden;rotatable=0;points=[[0,0.5],[1,0.5]];portConstraint=eastwest;whiteSpace=wrap;html=1;strokeWidth=5;swimlaneLine=1;fontSize=16;fontFamily=Courier New;" vertex="1" parent="TTCNMAuqTzoZXRjNOpaT-64">
          <mxGeometry y="26" width="210" height="42" as="geometry" />
        </mxCell>
        <mxCell id="TTCNMAuqTzoZXRjNOpaT-66" value="" style="line;strokeWidth=5;fillColor=#e1d5e7;align=left;verticalAlign=middle;spacingTop=-1;spacingLeft=3;spacingRight=3;rotatable=0;labelPosition=right;points=[];portConstraint=eastwest;strokeColor=#9673a6;swimlaneLine=1;fontSize=16;fontFamily=Courier New;" vertex="1" parent="TTCNMAuqTzoZXRjNOpaT-64">
          <mxGeometry y="68" width="210" as="geometry" />
        </mxCell>
        <mxCell id="TTCNMAuqTzoZXRjNOpaT-67" value="+ method(type): type" style="text;strokeColor=#9673a6;fillColor=#e1d5e7;align=left;verticalAlign=top;spacingLeft=4;spacingRight=4;overflow=hidden;rotatable=0;points=[[0,0.5],[1,0.5]];portConstraint=eastwest;whiteSpace=wrap;html=1;strokeWidth=5;swimlaneLine=1;fontSize=16;fontFamily=Courier New;" vertex="1" parent="TTCNMAuqTzoZXRjNOpaT-64">
          <mxGeometry y="68" width="210" height="42" as="geometry" />
        </mxCell>
        <mxCell id="Ig-3myvOuiy7OCBKOPEr-4" style="edgeStyle=orthogonalEdgeStyle;rounded=0;orthogonalLoop=1;jettySize=auto;html=1;exitX=0;exitY=0.5;exitDx=0;exitDy=0;entryX=1;entryY=0.5;entryDx=0;entryDy=0;strokeWidth=5;fillColor=#dae8fc;strokeColor=#6c8ebf;endArrow=diamondThin;endFill=0;endSize=20;" edge="1" parent="WIyWlLk6GJQsqaUBKTNV-1" source="TTCNMAuqTzoZXRjNOpaT-68" target="TTCNMAuqTzoZXRjNOpaT-32">
          <mxGeometry relative="1" as="geometry" />
        </mxCell>
        <mxCell id="TTCNMAuqTzoZXRjNOpaT-68" value="&lt;div style=&quot;font-size: 16px;&quot;&gt;UIPistolUpgrade&lt;/div&gt;" style="swimlane;fontStyle=1;align=center;verticalAlign=top;childLayout=stackLayout;horizontal=1;startSize=26;horizontalStack=0;resizeParent=1;resizeParentMax=0;resizeLast=0;collapsible=1;marginBottom=0;whiteSpace=wrap;html=1;fillColor=#0050ef;strokeColor=#001DBC;strokeWidth=5;swimlaneLine=1;fontSize=16;fontFamily=Courier New;fontColor=#ffffff;" vertex="1" parent="WIyWlLk6GJQsqaUBKTNV-1">
          <mxGeometry x="-3865" y="-336" width="210" height="110" as="geometry" />
        </mxCell>
        <mxCell id="TTCNMAuqTzoZXRjNOpaT-69" value="+ field: type" style="text;strokeColor=#9673a6;fillColor=#e1d5e7;align=left;verticalAlign=top;spacingLeft=4;spacingRight=4;overflow=hidden;rotatable=0;points=[[0,0.5],[1,0.5]];portConstraint=eastwest;whiteSpace=wrap;html=1;strokeWidth=5;swimlaneLine=1;fontSize=16;fontFamily=Courier New;" vertex="1" parent="TTCNMAuqTzoZXRjNOpaT-68">
          <mxGeometry y="26" width="210" height="42" as="geometry" />
        </mxCell>
        <mxCell id="TTCNMAuqTzoZXRjNOpaT-70" value="" style="line;strokeWidth=5;fillColor=#e1d5e7;align=left;verticalAlign=middle;spacingTop=-1;spacingLeft=3;spacingRight=3;rotatable=0;labelPosition=right;points=[];portConstraint=eastwest;strokeColor=#9673a6;swimlaneLine=1;fontSize=16;fontFamily=Courier New;" vertex="1" parent="TTCNMAuqTzoZXRjNOpaT-68">
          <mxGeometry y="68" width="210" as="geometry" />
        </mxCell>
        <mxCell id="TTCNMAuqTzoZXRjNOpaT-71" value="+ method(type): type" style="text;strokeColor=#9673a6;fillColor=#e1d5e7;align=left;verticalAlign=top;spacingLeft=4;spacingRight=4;overflow=hidden;rotatable=0;points=[[0,0.5],[1,0.5]];portConstraint=eastwest;whiteSpace=wrap;html=1;strokeWidth=5;swimlaneLine=1;fontSize=16;fontFamily=Courier New;" vertex="1" parent="TTCNMAuqTzoZXRjNOpaT-68">
          <mxGeometry y="68" width="210" height="42" as="geometry" />
        </mxCell>
        <mxCell id="Ig-3myvOuiy7OCBKOPEr-6" style="edgeStyle=orthogonalEdgeStyle;rounded=0;orthogonalLoop=1;jettySize=auto;html=1;exitX=0.5;exitY=1;exitDx=0;exitDy=0;entryX=0.5;entryY=0;entryDx=0;entryDy=0;strokeWidth=5;fillColor=#dae8fc;strokeColor=#6c8ebf;endArrow=diamondThin;endFill=0;endSize=20;" edge="1" parent="WIyWlLk6GJQsqaUBKTNV-1" source="TTCNMAuqTzoZXRjNOpaT-72" target="TTCNMAuqTzoZXRjNOpaT-31">
          <mxGeometry relative="1" as="geometry" />
        </mxCell>
        <mxCell id="TTCNMAuqTzoZXRjNOpaT-72" value="&lt;div style=&quot;font-size: 16px;&quot;&gt;UIRahmCroshair&lt;/div&gt;" style="swimlane;fontStyle=1;align=center;verticalAlign=top;childLayout=stackLayout;horizontal=1;startSize=26;horizontalStack=0;resizeParent=1;resizeParentMax=0;resizeLast=0;collapsible=1;marginBottom=0;whiteSpace=wrap;html=1;fillColor=#0050ef;strokeColor=#001DBC;strokeWidth=5;swimlaneLine=1;fontSize=16;fontFamily=Courier New;fontColor=#ffffff;" vertex="1" parent="WIyWlLk6GJQsqaUBKTNV-1">
          <mxGeometry x="-4452" y="-672" width="210" height="110" as="geometry" />
        </mxCell>
        <mxCell id="TTCNMAuqTzoZXRjNOpaT-75" value="+ method(type): type" style="text;strokeColor=#9673a6;fillColor=#e1d5e7;align=left;verticalAlign=top;spacingLeft=4;spacingRight=4;overflow=hidden;rotatable=0;points=[[0,0.5],[1,0.5]];portConstraint=eastwest;whiteSpace=wrap;html=1;strokeWidth=5;swimlaneLine=1;fontSize=16;fontFamily=Courier New;" vertex="1" parent="TTCNMAuqTzoZXRjNOpaT-72">
          <mxGeometry y="26" width="210" height="42" as="geometry" />
        </mxCell>
        <mxCell id="TTCNMAuqTzoZXRjNOpaT-73" value="+ field: type" style="text;strokeColor=#9673a6;fillColor=#e1d5e7;align=left;verticalAlign=top;spacingLeft=4;spacingRight=4;overflow=hidden;rotatable=0;points=[[0,0.5],[1,0.5]];portConstraint=eastwest;whiteSpace=wrap;html=1;strokeWidth=5;swimlaneLine=1;fontSize=16;fontFamily=Courier New;" vertex="1" parent="TTCNMAuqTzoZXRjNOpaT-72">
          <mxGeometry y="68" width="210" height="42" as="geometry" />
        </mxCell>
        <mxCell id="TTCNMAuqTzoZXRjNOpaT-74" value="" style="line;strokeWidth=5;fillColor=#e1d5e7;align=left;verticalAlign=middle;spacingTop=-1;spacingLeft=3;spacingRight=3;rotatable=0;labelPosition=right;points=[];portConstraint=eastwest;strokeColor=#9673a6;swimlaneLine=1;fontSize=16;fontFamily=Courier New;" vertex="1" parent="TTCNMAuqTzoZXRjNOpaT-72">
          <mxGeometry y="110" width="210" as="geometry" />
        </mxCell>
        <mxCell id="Ig-3myvOuiy7OCBKOPEr-19" style="edgeStyle=orthogonalEdgeStyle;rounded=0;orthogonalLoop=1;jettySize=auto;html=1;exitX=0.5;exitY=0;exitDx=0;exitDy=0;entryX=0.36;entryY=-0.006;entryDx=0;entryDy=0;strokeWidth=5;fillColor=#dae8fc;strokeColor=#6c8ebf;entryPerimeter=0;" edge="1" parent="WIyWlLk6GJQsqaUBKTNV-1" source="TTCNMAuqTzoZXRjNOpaT-76" target="TTCNMAuqTzoZXRjNOpaT-5">
          <mxGeometry relative="1" as="geometry">
            <Array as="points">
              <mxPoint x="-4767" y="-729" />
              <mxPoint x="-707" y="-729" />
            </Array>
          </mxGeometry>
        </mxCell>
        <mxCell id="TTCNMAuqTzoZXRjNOpaT-76" value="&lt;div style=&quot;font-size: 16px;&quot;&gt;UIText&lt;/div&gt;" style="swimlane;fontStyle=1;align=center;verticalAlign=top;childLayout=stackLayout;horizontal=1;startSize=26;horizontalStack=0;resizeParent=1;resizeParentMax=0;resizeLast=0;collapsible=1;marginBottom=0;whiteSpace=wrap;html=1;fillColor=#0050ef;strokeColor=#001DBC;strokeWidth=5;swimlaneLine=1;fontSize=16;fontFamily=Courier New;fontColor=#ffffff;" vertex="1" parent="WIyWlLk6GJQsqaUBKTNV-1">
          <mxGeometry x="-4872" y="-562" width="210" height="110" as="geometry" />
        </mxCell>
        <mxCell id="TTCNMAuqTzoZXRjNOpaT-79" value="+ method(type): type" style="text;strokeColor=#9673a6;fillColor=#e1d5e7;align=left;verticalAlign=top;spacingLeft=4;spacingRight=4;overflow=hidden;rotatable=0;points=[[0,0.5],[1,0.5]];portConstraint=eastwest;whiteSpace=wrap;html=1;strokeWidth=5;swimlaneLine=1;fontSize=16;fontFamily=Courier New;" vertex="1" parent="TTCNMAuqTzoZXRjNOpaT-76">
          <mxGeometry y="26" width="210" height="42" as="geometry" />
        </mxCell>
        <mxCell id="TTCNMAuqTzoZXRjNOpaT-77" value="+ field: type" style="text;strokeColor=#9673a6;fillColor=#e1d5e7;align=left;verticalAlign=top;spacingLeft=4;spacingRight=4;overflow=hidden;rotatable=0;points=[[0,0.5],[1,0.5]];portConstraint=eastwest;whiteSpace=wrap;html=1;strokeWidth=5;swimlaneLine=1;fontSize=16;fontFamily=Courier New;" vertex="1" parent="TTCNMAuqTzoZXRjNOpaT-76">
          <mxGeometry y="68" width="210" height="42" as="geometry" />
        </mxCell>
        <mxCell id="TTCNMAuqTzoZXRjNOpaT-78" value="" style="line;strokeWidth=5;fillColor=#e1d5e7;align=left;verticalAlign=middle;spacingTop=-1;spacingLeft=3;spacingRight=3;rotatable=0;labelPosition=right;points=[];portConstraint=eastwest;strokeColor=#9673a6;swimlaneLine=1;fontSize=16;fontFamily=Courier New;" vertex="1" parent="TTCNMAuqTzoZXRjNOpaT-76">
          <mxGeometry y="110" width="210" as="geometry" />
        </mxCell>
        <mxCell id="TTCNMAuqTzoZXRjNOpaT-156" style="edgeStyle=orthogonalEdgeStyle;rounded=0;orthogonalLoop=1;jettySize=auto;html=1;entryX=0.75;entryY=0;entryDx=0;entryDy=0;endArrow=block;endFill=0;strokeWidth=5;fillColor=#fff2cc;strokeColor=#d6b656;endSize=18;exitX=0.704;exitY=1.005;exitDx=0;exitDy=0;exitPerimeter=0;" edge="1" parent="WIyWlLk6GJQsqaUBKTNV-1" source="TTCNMAuqTzoZXRjNOpaT-8" target="TTCNMAuqTzoZXRjNOpaT-1">
          <mxGeometry relative="1" as="geometry">
            <mxPoint x="-429" y="-178" as="sourcePoint" />
            <Array as="points">
              <mxPoint x="-443" y="-242" />
              <mxPoint x="-443" y="-161" />
            </Array>
          </mxGeometry>
        </mxCell>
        <mxCell id="TTCNMAuqTzoZXRjNOpaT-160" style="edgeStyle=orthogonalEdgeStyle;rounded=0;orthogonalLoop=1;jettySize=auto;html=1;fillColor=#e1d5e7;strokeColor=#9673a6;endArrow=diamondThin;endFill=1;endSize=18;strokeWidth=5;exitX=0.91;exitY=-0.029;exitDx=0;exitDy=0;exitPerimeter=0;entryX=0.618;entryY=0.999;entryDx=0;entryDy=0;entryPerimeter=0;" edge="1" parent="WIyWlLk6GJQsqaUBKTNV-1" source="TTCNMAuqTzoZXRjNOpaT-115" target="TTCNMAuqTzoZXRjNOpaT-28">
          <mxGeometry relative="1" as="geometry">
            <mxPoint x="391" y="839" as="sourcePoint" />
            <mxPoint x="391" y="-66" as="targetPoint" />
          </mxGeometry>
        </mxCell>
        <mxCell id="TTCNMAuqTzoZXRjNOpaT-161" style="edgeStyle=orthogonalEdgeStyle;rounded=0;orthogonalLoop=1;jettySize=auto;html=1;entryX=0.47;entryY=1.001;entryDx=0;entryDy=0;entryPerimeter=0;strokeWidth=5;endArrow=none;endFill=0;endSize=18;fillColor=#e1d5e7;strokeColor=#9673a6;exitX=0.437;exitY=0.001;exitDx=0;exitDy=0;exitPerimeter=0;flowAnimation=0;jumpStyle=none;curved=0;" edge="1" parent="WIyWlLk6GJQsqaUBKTNV-1" source="TTCNMAuqTzoZXRjNOpaT-106" target="TTCNMAuqTzoZXRjNOpaT-24">
          <mxGeometry relative="1" as="geometry">
            <mxPoint x="-672" y="1848" as="sourcePoint" />
          </mxGeometry>
        </mxCell>
        <mxCell id="TTCNMAuqTzoZXRjNOpaT-167" style="edgeStyle=orthogonalEdgeStyle;rounded=0;orthogonalLoop=1;jettySize=auto;html=1;exitX=0;exitY=0.5;exitDx=0;exitDy=0;entryX=0.435;entryY=1.041;entryDx=0;entryDy=0;entryPerimeter=0;strokeWidth=5;fillColor=#e1d5e7;strokeColor=#9673a6;endArrow=none;endFill=0;endSize=18;" edge="1" parent="WIyWlLk6GJQsqaUBKTNV-1" source="TTCNMAuqTzoZXRjNOpaT-106" target="TTCNMAuqTzoZXRjNOpaT-12">
          <mxGeometry relative="1" as="geometry">
            <Array as="points">
              <mxPoint x="-1596" y="1943" />
            </Array>
          </mxGeometry>
        </mxCell>
        <mxCell id="TTCNMAuqTzoZXRjNOpaT-176" value="Shield" style="swimlane;fontStyle=1;align=center;verticalAlign=top;childLayout=stackLayout;horizontal=1;startSize=26;horizontalStack=0;resizeParent=1;resizeParentMax=0;resizeLast=0;collapsible=1;marginBottom=0;whiteSpace=wrap;html=1;fillColor=#e1d5e7;strokeColor=#9673a6;strokeWidth=5;swimlaneLine=1;fontSize=16;fontFamily=Courier New;" vertex="1" parent="WIyWlLk6GJQsqaUBKTNV-1">
          <mxGeometry x="-1554" y="2234" width="840" height="420" as="geometry" />
        </mxCell>
        <mxCell id="TTCNMAuqTzoZXRjNOpaT-177" value="+ shieldImage : Surface&lt;div&gt;+ shieldRect : Rect&lt;/div&gt;&lt;div&gt;+ energy : int&lt;/div&gt;&lt;div&gt;+ timeWithoutHits : int&lt;/div&gt;&lt;div&gt;+ chargeDelay : int&lt;/div&gt;&lt;div&gt;+ uiShieldObservers : List&lt;/div&gt;" style="text;strokeColor=#9673a6;fillColor=#e1d5e7;align=left;verticalAlign=top;spacingLeft=4;spacingRight=4;overflow=hidden;rotatable=0;points=[[0,0.5],[1,0.5]];portConstraint=eastwest;whiteSpace=wrap;html=1;strokeWidth=5;swimlaneLine=1;fontSize=16;fontFamily=Courier New;" vertex="1" parent="TTCNMAuqTzoZXRjNOpaT-176">
          <mxGeometry y="26" width="840" height="142" as="geometry" />
        </mxCell>
        <mxCell id="TTCNMAuqTzoZXRjNOpaT-178" value="" style="line;strokeWidth=5;fillColor=#e1d5e7;align=left;verticalAlign=middle;spacingTop=-1;spacingLeft=3;spacingRight=3;rotatable=0;labelPosition=right;points=[];portConstraint=eastwest;strokeColor=#9673a6;swimlaneLine=1;fontSize=16;fontFamily=Courier New;" vertex="1" parent="TTCNMAuqTzoZXRjNOpaT-176">
          <mxGeometry y="168" width="840" height="8" as="geometry" />
        </mxCell>
        <mxCell id="TTCNMAuqTzoZXRjNOpaT-179" value="&lt;div style=&quot;font-size: 16px;&quot;&gt;&lt;span style=&quot;background-color: initial;&quot;&gt;+ update(player : PlayerWithShield)&lt;/span&gt;&lt;/div&gt;&lt;div style=&quot;font-size: 16px;&quot;&gt;&lt;span style=&quot;background-color: initial;&quot;&gt;+ draw(screen)&lt;/span&gt;&lt;br&gt;&lt;/div&gt;&lt;div style=&quot;font-size: 16px;&quot;&gt;+ deflect(hitImage : Surface)&lt;/div&gt;&lt;div style=&quot;font-size: 16px;&quot;&gt;+ charge()&lt;/div&gt;&lt;div style=&quot;font-size: 16px;&quot;&gt;+ changeImage()&lt;/div&gt;&lt;div style=&quot;font-size: 16px;&quot;&gt;+ startChangingImageThread()&lt;/div&gt;&lt;div style=&quot;font-size: 16px;&quot;&gt;+ getShieldHp()&lt;/div&gt;&lt;div style=&quot;font-size: 16px;&quot;&gt;+ addObserver(observer)&lt;/div&gt;&lt;div style=&quot;font-size: 16px;&quot;&gt;+ delObserver(observer)&lt;/div&gt;&lt;div style=&quot;font-size: 16px;&quot;&gt;+ notify()&lt;/div&gt;" style="text;strokeColor=#9673a6;fillColor=#e1d5e7;align=left;verticalAlign=top;spacingLeft=4;spacingRight=4;overflow=hidden;rotatable=0;points=[[0,0.5],[1,0.5]];portConstraint=eastwest;whiteSpace=wrap;html=1;strokeWidth=5;swimlaneLine=1;fontSize=16;fontFamily=Courier New;" vertex="1" parent="TTCNMAuqTzoZXRjNOpaT-176">
          <mxGeometry y="176" width="840" height="244" as="geometry" />
        </mxCell>
        <mxCell id="TTCNMAuqTzoZXRjNOpaT-181" style="edgeStyle=orthogonalEdgeStyle;rounded=0;orthogonalLoop=1;jettySize=auto;html=1;exitX=0;exitY=0.5;exitDx=0;exitDy=0;entryX=0.057;entryY=1;entryDx=0;entryDy=0;strokeWidth=5;fillColor=#e1d5e7;strokeColor=#9673a6;endArrow=diamondThin;endFill=1;endSize=18;entryPerimeter=0;" edge="1" parent="WIyWlLk6GJQsqaUBKTNV-1" source="TTCNMAuqTzoZXRjNOpaT-177" target="TTCNMAuqTzoZXRjNOpaT-20">
          <mxGeometry relative="1" as="geometry" />
        </mxCell>
        <mxCell id="Ig-3myvOuiy7OCBKOPEr-2" style="edgeStyle=orthogonalEdgeStyle;rounded=0;orthogonalLoop=1;jettySize=auto;html=1;exitX=0.5;exitY=0;exitDx=0;exitDy=0;entryX=0.714;entryY=1;entryDx=0;entryDy=0;entryPerimeter=0;strokeWidth=5;fillColor=#dae8fc;strokeColor=#6c8ebf;endArrow=diamondThin;endFill=0;endSize=20;" edge="1" parent="WIyWlLk6GJQsqaUBKTNV-1" source="TTCNMAuqTzoZXRjNOpaT-60" target="TTCNMAuqTzoZXRjNOpaT-34">
          <mxGeometry relative="1" as="geometry" />
        </mxCell>
        <mxCell id="Ig-3myvOuiy7OCBKOPEr-5" style="edgeStyle=orthogonalEdgeStyle;rounded=0;orthogonalLoop=1;jettySize=auto;html=1;exitX=0;exitY=0.5;exitDx=0;exitDy=0;entryX=0.895;entryY=-0.018;entryDx=0;entryDy=0;entryPerimeter=0;strokeWidth=5;fillColor=#dae8fc;strokeColor=#6c8ebf;endArrow=diamondThin;endFill=0;endSize=20;" edge="1" parent="WIyWlLk6GJQsqaUBKTNV-1" source="TTCNMAuqTzoZXRjNOpaT-59" target="TTCNMAuqTzoZXRjNOpaT-31">
          <mxGeometry relative="1" as="geometry" />
        </mxCell>
        <mxCell id="Ig-3myvOuiy7OCBKOPEr-7" style="edgeStyle=orthogonalEdgeStyle;rounded=0;orthogonalLoop=1;jettySize=auto;html=1;exitX=1;exitY=0.75;exitDx=0;exitDy=0;entryX=0.157;entryY=0.018;entryDx=0;entryDy=0;entryPerimeter=0;strokeWidth=5;fillColor=#dae8fc;strokeColor=#6c8ebf;endArrow=diamondThin;endFill=0;endSize=20;" edge="1" parent="WIyWlLk6GJQsqaUBKTNV-1" source="TTCNMAuqTzoZXRjNOpaT-76" target="TTCNMAuqTzoZXRjNOpaT-31">
          <mxGeometry relative="1" as="geometry" />
        </mxCell>
        <mxCell id="Ig-3myvOuiy7OCBKOPEr-8" style="edgeStyle=orthogonalEdgeStyle;rounded=0;orthogonalLoop=1;jettySize=auto;html=1;exitX=1;exitY=0.5;exitDx=0;exitDy=0;entryX=0;entryY=0.333;entryDx=0;entryDy=0;entryPerimeter=0;strokeWidth=5;fillColor=#dae8fc;strokeColor=#6c8ebf;endArrow=diamondThin;endFill=0;endSize=20;" edge="1" parent="WIyWlLk6GJQsqaUBKTNV-1" source="TTCNMAuqTzoZXRjNOpaT-39" target="TTCNMAuqTzoZXRjNOpaT-32">
          <mxGeometry relative="1" as="geometry" />
        </mxCell>
        <mxCell id="Ig-3myvOuiy7OCBKOPEr-10" style="edgeStyle=orthogonalEdgeStyle;rounded=0;orthogonalLoop=1;jettySize=auto;html=1;exitX=0.5;exitY=0;exitDx=0;exitDy=0;entryX=0;entryY=0.333;entryDx=0;entryDy=0;entryPerimeter=0;strokeWidth=5;fillColor=#dae8fc;strokeColor=#6c8ebf;endArrow=diamondThin;endFill=0;endSize=20;" edge="1" parent="WIyWlLk6GJQsqaUBKTNV-1" source="TTCNMAuqTzoZXRjNOpaT-35" target="TTCNMAuqTzoZXRjNOpaT-34">
          <mxGeometry relative="1" as="geometry" />
        </mxCell>
        <mxCell id="Ig-3myvOuiy7OCBKOPEr-11" style="edgeStyle=orthogonalEdgeStyle;rounded=0;orthogonalLoop=1;jettySize=auto;html=1;exitX=0.5;exitY=0;exitDx=0;exitDy=0;entryX=0.281;entryY=1.024;entryDx=0;entryDy=0;entryPerimeter=0;strokeWidth=5;fillColor=#dae8fc;strokeColor=#6c8ebf;endArrow=diamondThin;endFill=0;endSize=20;" edge="1" parent="WIyWlLk6GJQsqaUBKTNV-1" source="TTCNMAuqTzoZXRjNOpaT-43" target="TTCNMAuqTzoZXRjNOpaT-34">
          <mxGeometry relative="1" as="geometry" />
        </mxCell>
        <mxCell id="Ig-3myvOuiy7OCBKOPEr-20" style="edgeStyle=orthogonalEdgeStyle;rounded=0;orthogonalLoop=1;jettySize=auto;html=1;exitX=0;exitY=0.5;exitDx=0;exitDy=0;entryX=0.625;entryY=0.005;entryDx=0;entryDy=0;entryPerimeter=0;strokeWidth=5;fillColor=#dae8fc;strokeColor=#6c8ebf;" edge="1" parent="WIyWlLk6GJQsqaUBKTNV-1" source="TTCNMAuqTzoZXRjNOpaT-35" target="TTCNMAuqTzoZXRjNOpaT-5">
          <mxGeometry relative="1" as="geometry">
            <Array as="points">
              <mxPoint x="-5102" y="-19" />
              <mxPoint x="-5102" y="-809" />
              <mxPoint x="-507" y="-809" />
            </Array>
          </mxGeometry>
        </mxCell>
        <mxCell id="Ig-3myvOuiy7OCBKOPEr-21" style="edgeStyle=orthogonalEdgeStyle;rounded=0;orthogonalLoop=1;jettySize=auto;html=1;exitX=0.5;exitY=1;exitDx=0;exitDy=0;entryX=-0.009;entryY=0.43;entryDx=0;entryDy=0;entryPerimeter=0;fillColor=#dae8fc;strokeColor=#6c8ebf;strokeWidth=5;" edge="1" parent="WIyWlLk6GJQsqaUBKTNV-1" source="TTCNMAuqTzoZXRjNOpaT-43" target="TTCNMAuqTzoZXRjNOpaT-16">
          <mxGeometry relative="1" as="geometry">
            <Array as="points">
              <mxPoint x="-4683" y="416" />
              <mxPoint x="-2182" y="416" />
              <mxPoint x="-2182" y="-378" />
            </Array>
          </mxGeometry>
        </mxCell>
        <mxCell id="Ig-3myvOuiy7OCBKOPEr-24" style="edgeStyle=orthogonalEdgeStyle;rounded=0;orthogonalLoop=1;jettySize=auto;html=1;exitX=1;exitY=0.5;exitDx=0;exitDy=0;entryX=-0.006;entryY=0.278;entryDx=0;entryDy=0;entryPerimeter=0;fillColor=#dae8fc;strokeColor=#6c8ebf;strokeWidth=5;" edge="1" parent="WIyWlLk6GJQsqaUBKTNV-1" source="TTCNMAuqTzoZXRjNOpaT-69" target="TTCNMAuqTzoZXRjNOpaT-24">
          <mxGeometry relative="1" as="geometry">
            <Array as="points">
              <mxPoint x="-3519" y="-289" />
              <mxPoint x="-3519" y="883" />
              <mxPoint x="-1025" y="883" />
              <mxPoint x="-1025" y="587" />
            </Array>
          </mxGeometry>
        </mxCell>
        <mxCell id="TTCNMAuqTzoZXRjNOpaT-9" value="PlayerWithPistol" style="swimlane;fontStyle=1;align=center;verticalAlign=top;childLayout=stackLayout;horizontal=1;startSize=26;horizontalStack=0;resizeParent=1;resizeParentMax=0;resizeLast=0;collapsible=1;marginBottom=0;whiteSpace=wrap;html=1;fillColor=#ffe6cc;strokeColor=#d79b00;strokeWidth=5;swimlaneLine=1;fontSize=16;fontFamily=Courier New;" vertex="1" parent="WIyWlLk6GJQsqaUBKTNV-1">
          <mxGeometry x="-1943" y="374" width="798" height="283" as="geometry">
            <mxRectangle x="183" y="490" width="126" height="42" as="alternateBounds" />
          </mxGeometry>
        </mxCell>
        <mxCell id="TTCNMAuqTzoZXRjNOpaT-10" value="+ player : PlayerAbstract&lt;div style=&quot;font-size: 16px;&quot;&gt;+ ui : UI&lt;/div&gt;&lt;div style=&quot;font-size: 16px;&quot;&gt;+ states: Dict&lt;/div&gt;" style="text;strokeColor=#d79b00;fillColor=#ffe6cc;align=left;verticalAlign=top;spacingLeft=4;spacingRight=4;overflow=hidden;rotatable=0;points=[[0,0.5],[1,0.5]];portConstraint=eastwest;whiteSpace=wrap;html=1;strokeWidth=5;swimlaneLine=1;fontSize=16;fontFamily=Courier New;" vertex="1" parent="TTCNMAuqTzoZXRjNOpaT-9">
          <mxGeometry y="26" width="798" height="58" as="geometry" />
        </mxCell>
        <mxCell id="TTCNMAuqTzoZXRjNOpaT-11" value="" style="line;strokeWidth=5;fillColor=#ffe6cc;align=left;verticalAlign=middle;spacingTop=-1;spacingLeft=3;spacingRight=3;rotatable=0;labelPosition=right;points=[];portConstraint=eastwest;strokeColor=#d79b00;swimlaneLine=1;fontSize=16;fontFamily=Courier New;" vertex="1" parent="TTCNMAuqTzoZXRjNOpaT-9">
          <mxGeometry y="84" width="798" height="8" as="geometry" />
        </mxCell>
        <mxCell id="TTCNMAuqTzoZXRjNOpaT-12" value="&lt;div style=&quot;font-size: 16px;&quot;&gt;+ PlayerWithPistol(player: PlayerAbstract)&lt;/div&gt;&lt;div style=&quot;font-size: 16px;&quot;&gt;&lt;span style=&quot;background-color: initial; font-size: 16px;&quot;&gt;+ update(world: World, dt : float, enemiesGroup : Group, interactuableGroup: Group, triggerGroup: Group, cameraOffset: int): Tuple&lt;/span&gt;+ draw()&lt;/div&gt;&lt;div style=&quot;font-size: 16px;&quot;&gt;+ hit(damage: int)&lt;/div&gt;&lt;div style=&quot;font-size: 16px;&quot;&gt;+ interact(interactuableGroup : Group)&lt;/div&gt;&lt;div style=&quot;font-size: 16px;&quot;&gt;+ doInteract(interactuableGroup: Group)&lt;/div&gt;&lt;div style=&quot;font-size: 16px;&quot;&gt;+ interactTrigger(triggerGroup: Group)&lt;/div&gt;&lt;div style=&quot;font-size: 16px;&quot;&gt;+ shoot(direction : int, bulletsGroup : Group)&lt;/div&gt;&lt;div style=&quot;font-size: 16px;&quot;&gt;+ shootUpdateSprites(direction)&lt;/div&gt;" style="text;strokeColor=#d79b00;fillColor=#ffe6cc;align=left;verticalAlign=top;spacingLeft=4;spacingRight=4;overflow=hidden;rotatable=0;points=[[0,0.5],[1,0.5]];portConstraint=eastwest;whiteSpace=wrap;html=1;strokeWidth=5;swimlaneLine=1;fontSize=16;fontFamily=Courier New;" vertex="1" parent="TTCNMAuqTzoZXRjNOpaT-9">
          <mxGeometry y="92" width="798" height="191" as="geometry" />
        </mxCell>
        <mxCell id="Ig-3myvOuiy7OCBKOPEr-32" style="edgeStyle=orthogonalEdgeStyle;rounded=0;orthogonalLoop=1;jettySize=auto;html=1;exitX=1;exitY=0.5;exitDx=0;exitDy=0;entryX=0.002;entryY=0.636;entryDx=0;entryDy=0;entryPerimeter=0;fillColor=#fff2cc;strokeColor=#d6b656;strokeWidth=5;endArrow=block;endFill=0;endSize=18;" edge="1" parent="WIyWlLk6GJQsqaUBKTNV-1" source="TTCNMAuqTzoZXRjNOpaT-20" target="TTCNMAuqTzoZXRjNOpaT-4">
          <mxGeometry relative="1" as="geometry" />
        </mxCell>
        <mxCell id="Ig-3myvOuiy7OCBKOPEr-43" value="Health" style="swimlane;fontStyle=1;align=center;verticalAlign=top;childLayout=stackLayout;horizontal=1;startSize=26;horizontalStack=0;resizeParent=1;resizeParentMax=0;resizeLast=0;collapsible=1;marginBottom=0;whiteSpace=wrap;html=1;fillColor=#fad9d5;strokeWidth=5;strokeColor=#ae4132;fontSize=16;fontFamily=Courier New;" vertex="1" parent="WIyWlLk6GJQsqaUBKTNV-1">
          <mxGeometry x="411" y="-589" width="772" height="186" as="geometry" />
        </mxCell>
        <mxCell id="Ig-3myvOuiy7OCBKOPEr-44" value="+ image : Surface&lt;div&gt;+ spritesheet : Spritesheet&lt;br&gt;&lt;div&gt;+ rect : Rect&lt;/div&gt;&lt;/div&gt;" style="text;fillColor=#fad9d5;align=left;verticalAlign=top;spacingLeft=4;spacingRight=4;overflow=hidden;rotatable=0;points=[[0,0.5],[1,0.5]];portConstraint=eastwest;whiteSpace=wrap;html=1;strokeWidth=5;strokeColor=#ae4132;fontSize=16;fontFamily=Courier New;" vertex="1" parent="Ig-3myvOuiy7OCBKOPEr-43">
          <mxGeometry y="26" width="772" height="88" as="geometry" />
        </mxCell>
        <mxCell id="Ig-3myvOuiy7OCBKOPEr-45" value="" style="line;strokeWidth=5;fillColor=#fad9d5;align=left;verticalAlign=middle;spacingTop=-1;spacingLeft=3;spacingRight=3;rotatable=0;labelPosition=right;points=[];portConstraint=eastwest;strokeColor=#ae4132;fontSize=16;fontFamily=Courier New;" vertex="1" parent="Ig-3myvOuiy7OCBKOPEr-43">
          <mxGeometry y="114" width="772" height="8" as="geometry" />
        </mxCell>
        <mxCell id="Ig-3myvOuiy7OCBKOPEr-46" value="+ update(player : PlayerAbstract, cameraOffset : int, healingGroup : Group)" style="text;fillColor=#fad9d5;align=left;verticalAlign=top;spacingLeft=4;spacingRight=4;overflow=hidden;rotatable=0;points=[[0,0.5],[1,0.5]];portConstraint=eastwest;whiteSpace=wrap;html=1;strokeWidth=5;strokeColor=#ae4132;fontSize=16;fontFamily=Courier New;" vertex="1" parent="Ig-3myvOuiy7OCBKOPEr-43">
          <mxGeometry y="122" width="772" height="64" as="geometry" />
        </mxCell>
        <mxCell id="Ig-3myvOuiy7OCBKOPEr-47" value="Pistol" style="swimlane;fontStyle=1;align=center;verticalAlign=top;childLayout=stackLayout;horizontal=1;startSize=26;horizontalStack=0;resizeParent=1;resizeParentMax=0;resizeLast=0;collapsible=1;marginBottom=0;whiteSpace=wrap;html=1;fillColor=#fad9d5;strokeWidth=5;strokeColor=#ae4132;fontSize=16;fontFamily=Courier New;" vertex="1" parent="WIyWlLk6GJQsqaUBKTNV-1">
          <mxGeometry x="-2819" y="970" width="692" height="206" as="geometry" />
        </mxCell>
        <mxCell id="Ig-3myvOuiy7OCBKOPEr-48" value="+ image : Surface&lt;div&gt;+ rect : Rect&lt;/div&gt;" style="text;fillColor=#fad9d5;align=left;verticalAlign=top;spacingLeft=4;spacingRight=4;overflow=hidden;rotatable=0;points=[[0,0.5],[1,0.5]];portConstraint=eastwest;whiteSpace=wrap;html=1;strokeWidth=5;strokeColor=#ae4132;fontSize=16;fontFamily=Courier New;" vertex="1" parent="Ig-3myvOuiy7OCBKOPEr-47">
          <mxGeometry y="26" width="692" height="72" as="geometry" />
        </mxCell>
        <mxCell id="Ig-3myvOuiy7OCBKOPEr-49" value="" style="line;strokeWidth=5;fillColor=#fad9d5;align=left;verticalAlign=middle;spacingTop=-1;spacingLeft=3;spacingRight=3;rotatable=0;labelPosition=right;points=[];portConstraint=eastwest;strokeColor=#ae4132;fontSize=16;fontFamily=Courier New;" vertex="1" parent="Ig-3myvOuiy7OCBKOPEr-47">
          <mxGeometry y="98" width="692" height="8" as="geometry" />
        </mxCell>
        <mxCell id="Ig-3myvOuiy7OCBKOPEr-50" value="+ update(cameraOffset : Int)&lt;div&gt;+ collidesWithPlayer(player : PlayerAbstract, gunsGroup :Group)&lt;/div&gt;&lt;div&gt;+ getPlayerWithIt(player: PlayerAbstract, ui : Ui, volume)&lt;/div&gt;&lt;div&gt;&lt;br&gt;&lt;/div&gt;" style="text;fillColor=#fad9d5;align=left;verticalAlign=top;spacingLeft=4;spacingRight=4;overflow=hidden;rotatable=0;points=[[0,0.5],[1,0.5]];portConstraint=eastwest;whiteSpace=wrap;html=1;strokeWidth=5;strokeColor=#ae4132;fontSize=16;fontFamily=Courier New;" vertex="1" parent="Ig-3myvOuiy7OCBKOPEr-47">
          <mxGeometry y="106" width="692" height="100" as="geometry" />
        </mxCell>
        <mxCell id="Ig-3myvOuiy7OCBKOPEr-67" style="edgeStyle=orthogonalEdgeStyle;rounded=0;orthogonalLoop=1;jettySize=auto;html=1;exitX=1;exitY=0.437;exitDx=0;exitDy=0;strokeWidth=5;fillColor=#fad9d5;strokeColor=#ae4132;endSize=18;endArrow=diamondThin;endFill=0;exitPerimeter=0;entryX=-0.002;entryY=0.164;entryDx=0;entryDy=0;entryPerimeter=0;" edge="1" parent="WIyWlLk6GJQsqaUBKTNV-1" source="TTCNMAuqTzoZXRjNOpaT-24" target="Ig-3myvOuiy7OCBKOPEr-54">
          <mxGeometry relative="1" as="geometry">
            <mxPoint x="199" y="628" as="targetPoint" />
          </mxGeometry>
        </mxCell>
        <mxCell id="Ig-3myvOuiy7OCBKOPEr-51" value="PistolUpgrade" style="swimlane;fontStyle=1;align=center;verticalAlign=top;childLayout=stackLayout;horizontal=1;startSize=26;horizontalStack=0;resizeParent=1;resizeParentMax=0;resizeLast=0;collapsible=1;marginBottom=0;whiteSpace=wrap;html=1;fillColor=#fad9d5;strokeWidth=5;strokeColor=#ae4132;fontSize=16;fontFamily=Courier New;" vertex="1" parent="WIyWlLk6GJQsqaUBKTNV-1">
          <mxGeometry x="220" y="514" width="547" height="231" as="geometry" />
        </mxCell>
        <mxCell id="Ig-3myvOuiy7OCBKOPEr-52" value="+ image : Surface&lt;div&gt;+ rect : Rect&lt;/div&gt;" style="text;fillColor=#fad9d5;align=left;verticalAlign=top;spacingLeft=4;spacingRight=4;overflow=hidden;rotatable=0;points=[[0,0.5],[1,0.5]];portConstraint=eastwest;whiteSpace=wrap;html=1;strokeWidth=5;strokeColor=#ae4132;fontSize=16;fontFamily=Courier New;" vertex="1" parent="Ig-3myvOuiy7OCBKOPEr-51">
          <mxGeometry y="26" width="547" height="57" as="geometry" />
        </mxCell>
        <mxCell id="Ig-3myvOuiy7OCBKOPEr-53" value="" style="line;strokeWidth=5;fillColor=#fad9d5;align=left;verticalAlign=middle;spacingTop=-1;spacingLeft=3;spacingRight=3;rotatable=0;labelPosition=right;points=[];portConstraint=eastwest;strokeColor=#ae4132;fontSize=16;fontFamily=Courier New;" vertex="1" parent="Ig-3myvOuiy7OCBKOPEr-51">
          <mxGeometry y="83" width="547" height="8" as="geometry" />
        </mxCell>
        <mxCell id="Ig-3myvOuiy7OCBKOPEr-54" value="+ update(cameraOffset : Int)&lt;div&gt;+ collidesWithPlayer(player : PlayerAbstract, gunsGroup :Group)&lt;/div&gt;&lt;div&gt;+ getPlayerWithIt(player: PlayerAbstract, ui : Ui, volume)&lt;/div&gt;" style="text;fillColor=#fad9d5;align=left;verticalAlign=top;spacingLeft=4;spacingRight=4;overflow=hidden;rotatable=0;points=[[0,0.5],[1,0.5]];portConstraint=eastwest;whiteSpace=wrap;html=1;strokeWidth=5;strokeColor=#ae4132;fontSize=16;fontFamily=Courier New;" vertex="1" parent="Ig-3myvOuiy7OCBKOPEr-51">
          <mxGeometry y="91" width="547" height="140" as="geometry" />
        </mxCell>
        <mxCell id="Ig-3myvOuiy7OCBKOPEr-55" value="ShieldPickUp" style="swimlane;fontStyle=1;align=center;verticalAlign=top;childLayout=stackLayout;horizontal=1;startSize=26;horizontalStack=0;resizeParent=1;resizeParentMax=0;resizeLast=0;collapsible=1;marginBottom=0;whiteSpace=wrap;html=1;fillColor=#fad9d5;strokeWidth=5;strokeColor=#ae4132;fontSize=16;fontFamily=Courier New;" vertex="1" parent="WIyWlLk6GJQsqaUBKTNV-1">
          <mxGeometry x="-2877" y="-214" width="621" height="244" as="geometry" />
        </mxCell>
        <mxCell id="Ig-3myvOuiy7OCBKOPEr-56" value="+ image : Surface&lt;div&gt;+ rect : Rect&lt;/div&gt;" style="text;fillColor=#fad9d5;align=left;verticalAlign=top;spacingLeft=4;spacingRight=4;overflow=hidden;rotatable=0;points=[[0,0.5],[1,0.5]];portConstraint=eastwest;whiteSpace=wrap;html=1;strokeWidth=5;strokeColor=#ae4132;fontSize=16;fontFamily=Courier New;" vertex="1" parent="Ig-3myvOuiy7OCBKOPEr-55">
          <mxGeometry y="26" width="621" height="57" as="geometry" />
        </mxCell>
        <mxCell id="Ig-3myvOuiy7OCBKOPEr-57" value="" style="line;strokeWidth=5;fillColor=#fad9d5;align=left;verticalAlign=middle;spacingTop=-1;spacingLeft=3;spacingRight=3;rotatable=0;labelPosition=right;points=[];portConstraint=eastwest;strokeColor=#ae4132;fontSize=16;fontFamily=Courier New;" vertex="1" parent="Ig-3myvOuiy7OCBKOPEr-55">
          <mxGeometry y="83" width="621" height="8" as="geometry" />
        </mxCell>
        <mxCell id="Ig-3myvOuiy7OCBKOPEr-58" value="+ update(cameraOffset : Int)&lt;div&gt;+ collidesWithPlayer(player : PlayerAbstract, gunsGroup :Group)&lt;/div&gt;&lt;div&gt;+ getPlayerWithIt(player: PlayerAbstract, ui : Ui, volume)&lt;/div&gt;" style="text;fillColor=#fad9d5;align=left;verticalAlign=top;spacingLeft=4;spacingRight=4;overflow=hidden;rotatable=0;points=[[0,0.5],[1,0.5]];portConstraint=eastwest;whiteSpace=wrap;html=1;strokeWidth=5;strokeColor=#ae4132;fontSize=16;fontFamily=Courier New;" vertex="1" parent="Ig-3myvOuiy7OCBKOPEr-55">
          <mxGeometry y="91" width="621" height="153" as="geometry" />
        </mxCell>
        <mxCell id="Ig-3myvOuiy7OCBKOPEr-59" value="Dash" style="swimlane;fontStyle=1;align=center;verticalAlign=top;childLayout=stackLayout;horizontal=1;startSize=26;horizontalStack=0;resizeParent=1;resizeParentMax=0;resizeLast=0;collapsible=1;marginBottom=0;whiteSpace=wrap;html=1;fillColor=#fad9d5;strokeWidth=5;strokeColor=#ae4132;fontSize=16;fontFamily=Courier New;" vertex="1" parent="WIyWlLk6GJQsqaUBKTNV-1">
          <mxGeometry x="-2885.5" y="-597" width="638" height="234" as="geometry" />
        </mxCell>
        <mxCell id="Ig-3myvOuiy7OCBKOPEr-60" value="+ image : Surface&lt;div&gt;+ rect : Rect&lt;/div&gt;" style="text;fillColor=#fad9d5;align=left;verticalAlign=top;spacingLeft=4;spacingRight=4;overflow=hidden;rotatable=0;points=[[0,0.5],[1,0.5]];portConstraint=eastwest;whiteSpace=wrap;html=1;strokeWidth=5;strokeColor=#ae4132;fontSize=16;fontFamily=Courier New;" vertex="1" parent="Ig-3myvOuiy7OCBKOPEr-59">
          <mxGeometry y="26" width="638" height="61" as="geometry" />
        </mxCell>
        <mxCell id="Ig-3myvOuiy7OCBKOPEr-61" value="" style="line;strokeWidth=5;fillColor=#fad9d5;align=left;verticalAlign=middle;spacingTop=-1;spacingLeft=3;spacingRight=3;rotatable=0;labelPosition=right;points=[];portConstraint=eastwest;strokeColor=#ae4132;fontSize=16;fontFamily=Courier New;" vertex="1" parent="Ig-3myvOuiy7OCBKOPEr-59">
          <mxGeometry y="87" width="638" height="8" as="geometry" />
        </mxCell>
        <mxCell id="Ig-3myvOuiy7OCBKOPEr-62" value="+ update(cameraOffset : Int)&lt;div&gt;+ collidesWithPlayer(player : PlayerAbstract, gunsGroup :Group)&lt;/div&gt;&lt;div&gt;+ getPlayerWithIt(player: PlayerAbstract, ui : Ui, volume)&lt;/div&gt;" style="text;fillColor=#fad9d5;align=left;verticalAlign=top;spacingLeft=4;spacingRight=4;overflow=hidden;rotatable=0;points=[[0,0.5],[1,0.5]];portConstraint=eastwest;whiteSpace=wrap;html=1;strokeWidth=5;strokeColor=#ae4132;fontSize=16;fontFamily=Courier New;" vertex="1" parent="Ig-3myvOuiy7OCBKOPEr-59">
          <mxGeometry y="95" width="638" height="139" as="geometry" />
        </mxCell>
        <mxCell id="Ig-3myvOuiy7OCBKOPEr-63" style="edgeStyle=orthogonalEdgeStyle;rounded=0;orthogonalLoop=1;jettySize=auto;html=1;entryX=0.5;entryY=0;entryDx=0;entryDy=0;strokeWidth=5;fillColor=#fad9d5;strokeColor=#ae4132;endArrow=diamondThin;endFill=0;endSize=18;exitX=0;exitY=0.75;exitDx=0;exitDy=0;" edge="1" parent="WIyWlLk6GJQsqaUBKTNV-1" source="TTCNMAuqTzoZXRjNOpaT-9" target="Ig-3myvOuiy7OCBKOPEr-47">
          <mxGeometry relative="1" as="geometry">
            <mxPoint x="-2247" y="733" as="sourcePoint" />
          </mxGeometry>
        </mxCell>
        <mxCell id="Ig-3myvOuiy7OCBKOPEr-66" style="edgeStyle=orthogonalEdgeStyle;rounded=0;orthogonalLoop=1;jettySize=auto;html=1;exitX=0;exitY=0.5;exitDx=0;exitDy=0;fillColor=#fad9d5;strokeColor=#ae4132;strokeWidth=5;endSize=18;endArrow=diamondThin;endFill=0;entryX=1;entryY=0.5;entryDx=0;entryDy=0;" edge="1" parent="WIyWlLk6GJQsqaUBKTNV-1" source="TTCNMAuqTzoZXRjNOpaT-18" target="Ig-3myvOuiy7OCBKOPEr-58">
          <mxGeometry relative="1" as="geometry">
            <mxPoint x="-2080" y="-47" as="targetPoint" />
          </mxGeometry>
        </mxCell>
        <mxCell id="Ig-3myvOuiy7OCBKOPEr-68" style="edgeStyle=orthogonalEdgeStyle;rounded=0;orthogonalLoop=1;jettySize=auto;html=1;exitX=0;exitY=0.5;exitDx=0;exitDy=0;strokeWidth=5;fillColor=#fad9d5;strokeColor=#ae4132;endArrow=diamondThin;endFill=0;endSize=18;" edge="1" parent="WIyWlLk6GJQsqaUBKTNV-1" source="TTCNMAuqTzoZXRjNOpaT-14" target="Ig-3myvOuiy7OCBKOPEr-60">
          <mxGeometry relative="1" as="geometry" />
        </mxCell>
        <mxCell id="Ig-3myvOuiy7OCBKOPEr-69" style="rounded=0;orthogonalLoop=1;jettySize=auto;html=1;exitX=0;exitY=0.5;exitDx=0;exitDy=0;entryX=1.004;entryY=0.392;entryDx=0;entryDy=0;entryPerimeter=0;edgeStyle=orthogonalEdgeStyle;endArrow=none;endFill=0;strokeWidth=5;fillColor=#fad9d5;strokeColor=#ae4132;" edge="1" parent="WIyWlLk6GJQsqaUBKTNV-1" source="Ig-3myvOuiy7OCBKOPEr-44" target="TTCNMAuqTzoZXRjNOpaT-6">
          <mxGeometry relative="1" as="geometry">
            <Array as="points">
              <mxPoint x="-24" y="-518" />
            </Array>
          </mxGeometry>
        </mxCell>
        <mxCell id="Ig-3myvOuiy7OCBKOPEr-72" value="GrenadeLauncher" style="swimlane;fontStyle=1;align=center;verticalAlign=top;childLayout=stackLayout;horizontal=1;startSize=26;horizontalStack=0;resizeParent=1;resizeParentMax=0;resizeLast=0;collapsible=1;marginBottom=0;whiteSpace=wrap;html=1;fillColor=#fad9d5;strokeWidth=5;strokeColor=#ae4132;fontSize=16;fontFamily=Courier New;" vertex="1" parent="WIyWlLk6GJQsqaUBKTNV-1">
          <mxGeometry x="935" y="-247" width="547" height="231" as="geometry" />
        </mxCell>
        <mxCell id="Ig-3myvOuiy7OCBKOPEr-73" value="+ image : Surface&lt;div&gt;+ rect : Rect&lt;/div&gt;" style="text;fillColor=#fad9d5;align=left;verticalAlign=top;spacingLeft=4;spacingRight=4;overflow=hidden;rotatable=0;points=[[0,0.5],[1,0.5]];portConstraint=eastwest;whiteSpace=wrap;html=1;strokeWidth=5;strokeColor=#ae4132;fontSize=16;fontFamily=Courier New;" vertex="1" parent="Ig-3myvOuiy7OCBKOPEr-72">
          <mxGeometry y="26" width="547" height="57" as="geometry" />
        </mxCell>
        <mxCell id="Ig-3myvOuiy7OCBKOPEr-74" value="" style="line;strokeWidth=5;fillColor=#fad9d5;align=left;verticalAlign=middle;spacingTop=-1;spacingLeft=3;spacingRight=3;rotatable=0;labelPosition=right;points=[];portConstraint=eastwest;strokeColor=#ae4132;fontSize=16;fontFamily=Courier New;" vertex="1" parent="Ig-3myvOuiy7OCBKOPEr-72">
          <mxGeometry y="83" width="547" height="8" as="geometry" />
        </mxCell>
        <mxCell id="Ig-3myvOuiy7OCBKOPEr-75" value="+ update(cameraOffset : Int)&lt;div&gt;+ collidesWithPlayer(player : PlayerAbstract, gunsGroup :Group)&lt;/div&gt;&lt;div&gt;+ getPlayerWithIt(player: PlayerAbstract, ui : Ui, volume)&lt;/div&gt;" style="text;fillColor=#fad9d5;align=left;verticalAlign=top;spacingLeft=4;spacingRight=4;overflow=hidden;rotatable=0;points=[[0,0.5],[1,0.5]];portConstraint=eastwest;whiteSpace=wrap;html=1;strokeWidth=5;strokeColor=#ae4132;fontSize=16;fontFamily=Courier New;" vertex="1" parent="Ig-3myvOuiy7OCBKOPEr-72">
          <mxGeometry y="91" width="547" height="140" as="geometry" />
        </mxCell>
        <mxCell id="Ig-3myvOuiy7OCBKOPEr-76" style="edgeStyle=orthogonalEdgeStyle;rounded=0;orthogonalLoop=1;jettySize=auto;html=1;entryX=0;entryY=0.659;entryDx=0;entryDy=0;entryPerimeter=0;strokeWidth=5;endSize=18;fillColor=#fad9d5;strokeColor=#ae4132;endArrow=diamondThin;endFill=0;" edge="1" parent="WIyWlLk6GJQsqaUBKTNV-1" source="TTCNMAuqTzoZXRjNOpaT-28" target="Ig-3myvOuiy7OCBKOPEr-75">
          <mxGeometry relative="1" as="geometry" />
        </mxCell>
        <mxCell id="Ig-3myvOuiy7OCBKOPEr-78" style="edgeStyle=orthogonalEdgeStyle;rounded=0;orthogonalLoop=1;jettySize=auto;html=1;exitX=0;exitY=0.5;exitDx=0;exitDy=0;entryX=1.013;entryY=0.867;entryDx=0;entryDy=0;entryPerimeter=0;strokeWidth=5;fillColor=#e1d5e7;strokeColor=#9673a6;endArrow=none;endFill=0;" edge="1" parent="WIyWlLk6GJQsqaUBKTNV-1" source="TTCNMAuqTzoZXRjNOpaT-107" target="TTCNMAuqTzoZXRjNOpaT-20">
          <mxGeometry relative="1" as="geometry">
            <Array as="points">
              <mxPoint x="-934" y="1893" />
              <mxPoint x="-934" y="202" />
            </Array>
          </mxGeometry>
        </mxCell>
        <mxCell id="Ig-3myvOuiy7OCBKOPEr-79" value="&lt;font face=&quot;Courier New&quot; style=&quot;font-size: 32px;&quot;&gt;*&lt;/font&gt;" style="text;html=1;align=center;verticalAlign=middle;resizable=0;points=[];autosize=1;strokeColor=none;fillColor=none;" vertex="1" parent="WIyWlLk6GJQsqaUBKTNV-1">
          <mxGeometry x="-311" y="1754" width="37" height="50" as="geometry" />
        </mxCell>
        <mxCell id="Ig-3myvOuiy7OCBKOPEr-80" value="&lt;font face=&quot;Courier New&quot; style=&quot;font-size: 32px;&quot;&gt;1&lt;/font&gt;" style="text;html=1;align=center;verticalAlign=middle;resizable=0;points=[];autosize=1;strokeColor=none;fillColor=none;" vertex="1" parent="WIyWlLk6GJQsqaUBKTNV-1">
          <mxGeometry x="-311" y="745" width="37" height="50" as="geometry" />
        </mxCell>
        <mxCell id="Ig-3myvOuiy7OCBKOPEr-81" value="&lt;font face=&quot;Courier New&quot; style=&quot;font-size: 32px;&quot;&gt;1&lt;/font&gt;" style="text;html=1;align=center;verticalAlign=middle;resizable=0;points=[];autosize=1;strokeColor=none;fillColor=none;" vertex="1" parent="WIyWlLk6GJQsqaUBKTNV-1">
          <mxGeometry x="-1569" y="663" width="37" height="50" as="geometry" />
        </mxCell>
        <mxCell id="Ig-3myvOuiy7OCBKOPEr-82" value="&lt;font face=&quot;Courier New&quot; style=&quot;font-size: 32px;&quot;&gt;1&lt;/font&gt;" style="text;html=1;align=center;verticalAlign=middle;resizable=0;points=[];autosize=1;strokeColor=none;fillColor=none;" vertex="1" parent="WIyWlLk6GJQsqaUBKTNV-1">
          <mxGeometry x="-1297" y="140" width="37" height="50" as="geometry" />
        </mxCell>
        <mxCell id="Ig-3myvOuiy7OCBKOPEr-84" value="&lt;font face=&quot;Courier New&quot; style=&quot;font-size: 32px;&quot;&gt;*&lt;/font&gt;" style="text;html=1;align=center;verticalAlign=middle;resizable=0;points=[];autosize=1;strokeColor=none;fillColor=none;" vertex="1" parent="WIyWlLk6GJQsqaUBKTNV-1">
          <mxGeometry x="-714" y="1843" width="37" height="50" as="geometry" />
        </mxCell>
        <mxCell id="Ig-3myvOuiy7OCBKOPEr-85" value="&lt;font face=&quot;Courier New&quot; style=&quot;font-size: 32px;&quot;&gt;*&lt;/font&gt;" style="text;html=1;align=center;verticalAlign=middle;resizable=0;points=[];autosize=1;strokeColor=none;fillColor=none;" vertex="1" parent="WIyWlLk6GJQsqaUBKTNV-1">
          <mxGeometry x="-714" y="1958" width="37" height="50" as="geometry" />
        </mxCell>
        <mxCell id="Ig-3myvOuiy7OCBKOPEr-90" value="Computer" style="swimlane;fontStyle=1;align=center;verticalAlign=top;childLayout=stackLayout;horizontal=1;startSize=26;horizontalStack=0;resizeParent=1;resizeParentMax=0;resizeLast=0;collapsible=1;marginBottom=0;whiteSpace=wrap;html=1;fillColor=#eeeeee;strokeWidth=5;strokeColor=#36393d;fontSize=16;fontFamily=Courier New;" vertex="1" parent="WIyWlLk6GJQsqaUBKTNV-1">
          <mxGeometry x="-6520" y="1108" width="692" height="206" as="geometry" />
        </mxCell>
        <mxCell id="Ig-3myvOuiy7OCBKOPEr-91" value="+ image&lt;div&gt;+ rect : Rect&lt;/div&gt;" style="text;fillColor=#eeeeee;align=left;verticalAlign=top;spacingLeft=4;spacingRight=4;overflow=hidden;rotatable=0;points=[[0,0.5],[1,0.5]];portConstraint=eastwest;whiteSpace=wrap;html=1;strokeWidth=5;strokeColor=#36393d;fontSize=16;fontFamily=Courier New;" vertex="1" parent="Ig-3myvOuiy7OCBKOPEr-90">
          <mxGeometry y="26" width="692" height="72" as="geometry" />
        </mxCell>
        <mxCell id="Ig-3myvOuiy7OCBKOPEr-92" value="" style="line;strokeWidth=5;fillColor=#eeeeee;align=left;verticalAlign=middle;spacingTop=-1;spacingLeft=3;spacingRight=3;rotatable=0;labelPosition=right;points=[];portConstraint=eastwest;strokeColor=#36393d;fontSize=16;fontFamily=Courier New;" vertex="1" parent="Ig-3myvOuiy7OCBKOPEr-90">
          <mxGeometry y="98" width="692" height="8" as="geometry" />
        </mxCell>
        <mxCell id="Ig-3myvOuiy7OCBKOPEr-93" value="+ update(cameraOffset : int)&lt;div&gt;+ interact()&lt;/div&gt;&lt;div&gt;+ getText()&lt;/div&gt;" style="text;fillColor=#eeeeee;align=left;verticalAlign=top;spacingLeft=4;spacingRight=4;overflow=hidden;rotatable=0;points=[[0,0.5],[1,0.5]];portConstraint=eastwest;whiteSpace=wrap;html=1;strokeWidth=5;strokeColor=#36393D;fontSize=16;fontFamily=Courier New;" vertex="1" parent="Ig-3myvOuiy7OCBKOPEr-90">
          <mxGeometry y="106" width="692" height="100" as="geometry" />
        </mxCell>
        <mxCell id="Ig-3myvOuiy7OCBKOPEr-98" value="RandomEnemyFactorySecuence" style="swimlane;fontStyle=1;align=center;verticalAlign=top;childLayout=stackLayout;horizontal=1;startSize=26;horizontalStack=0;resizeParent=1;resizeParentMax=0;resizeLast=0;collapsible=1;marginBottom=0;whiteSpace=wrap;html=1;fillColor=#FABB96;strokeWidth=5;strokeColor=#C73500;fontSize=16;fontFamily=Courier New;fontColor=#000000;" vertex="1" parent="WIyWlLk6GJQsqaUBKTNV-1">
          <mxGeometry x="-5865" y="1968" width="692" height="206" as="geometry" />
        </mxCell>
        <mxCell id="Ig-3myvOuiy7OCBKOPEr-99" value="+ gunPicks : Group&lt;div&gt;+ uiCounter : UICounter&lt;/div&gt;" style="text;fillColor=#FABB96;align=left;verticalAlign=top;spacingLeft=4;spacingRight=4;overflow=hidden;rotatable=0;points=[[0,0.5],[1,0.5]];portConstraint=eastwest;whiteSpace=wrap;html=1;strokeWidth=5;strokeColor=#C73500;fontSize=16;fontFamily=Courier New;fontColor=#000000;" vertex="1" parent="Ig-3myvOuiy7OCBKOPEr-98">
          <mxGeometry y="26" width="692" height="72" as="geometry" />
        </mxCell>
        <mxCell id="Ig-3myvOuiy7OCBKOPEr-100" value="" style="line;strokeWidth=5;fillColor=#FABB96;align=left;verticalAlign=middle;spacingTop=-1;spacingLeft=3;spacingRight=3;rotatable=0;labelPosition=right;points=[];portConstraint=eastwest;strokeColor=#C73500;fontSize=16;fontFamily=Courier New;fontColor=#000000;" vertex="1" parent="Ig-3myvOuiy7OCBKOPEr-98">
          <mxGeometry y="98" width="692" height="8" as="geometry" />
        </mxCell>
        <mxCell id="Ig-3myvOuiy7OCBKOPEr-101" value="&lt;div&gt;+ createEnemy(enemiesGroup : Group, dificulty : Dificulty, uiCounter : UICounter, bulletsGroup: Group, gunPicks : Group)&lt;/div&gt;" style="text;fillColor=#FABB96;align=left;verticalAlign=top;spacingLeft=4;spacingRight=4;overflow=hidden;rotatable=0;points=[[0,0.5],[1,0.5]];portConstraint=eastwest;whiteSpace=wrap;html=1;strokeWidth=5;strokeColor=#C73500;fontSize=16;fontFamily=Courier New;fontColor=#000000;" vertex="1" parent="Ig-3myvOuiy7OCBKOPEr-98">
          <mxGeometry y="106" width="692" height="100" as="geometry" />
        </mxCell>
        <mxCell id="Ig-3myvOuiy7OCBKOPEr-102" value="SelectedEnemyFactory" style="swimlane;fontStyle=1;align=center;verticalAlign=top;childLayout=stackLayout;horizontal=1;startSize=26;horizontalStack=0;resizeParent=1;resizeParentMax=0;resizeLast=0;collapsible=1;marginBottom=0;whiteSpace=wrap;html=1;fillColor=#FABB96;strokeWidth=5;strokeColor=#C73500;fontSize=16;fontFamily=Courier New;fontColor=#000000;" vertex="1" parent="WIyWlLk6GJQsqaUBKTNV-1">
          <mxGeometry x="-6946" y="1976" width="692" height="248" as="geometry" />
        </mxCell>
        <mxCell id="Ig-3myvOuiy7OCBKOPEr-103" value="+ bulletsGroup : Group&lt;div&gt;+ grenadesGrop : Group&lt;/div&gt;&lt;div&gt;+ uiCroshair : UIRahmCroshair&lt;/div&gt;&lt;div&gt;+ dificulty : Dificulty&lt;/div&gt;&lt;div&gt;+ gunPicks : Groups&lt;/div&gt;" style="text;fillColor=#FABB96;align=left;verticalAlign=top;spacingLeft=4;spacingRight=4;overflow=hidden;rotatable=0;points=[[0,0.5],[1,0.5]];portConstraint=eastwest;whiteSpace=wrap;html=1;strokeWidth=5;strokeColor=#C73500;fontSize=16;fontFamily=Courier New;fontColor=#000000;" vertex="1" parent="Ig-3myvOuiy7OCBKOPEr-102">
          <mxGeometry y="26" width="692" height="114" as="geometry" />
        </mxCell>
        <mxCell id="Ig-3myvOuiy7OCBKOPEr-104" value="" style="line;strokeWidth=5;fillColor=#FABB96;align=left;verticalAlign=middle;spacingTop=-1;spacingLeft=3;spacingRight=3;rotatable=0;labelPosition=right;points=[];portConstraint=eastwest;strokeColor=#C73500;fontSize=16;fontFamily=Courier New;fontColor=#000000;" vertex="1" parent="Ig-3myvOuiy7OCBKOPEr-102">
          <mxGeometry y="140" width="692" height="8" as="geometry" />
        </mxCell>
        <mxCell id="Ig-3myvOuiy7OCBKOPEr-105" value="&lt;div&gt;&lt;span style=&quot;background-color: initial;&quot;&gt;+ createEnemy(columna : int, fila : int, enemyID : int, boss : Bool, enemies : Group)&lt;/span&gt;&lt;br&gt;&lt;/div&gt;" style="text;fillColor=#FABB96;align=left;verticalAlign=top;spacingLeft=4;spacingRight=4;overflow=hidden;rotatable=0;points=[[0,0.5],[1,0.5]];portConstraint=eastwest;whiteSpace=wrap;html=1;strokeWidth=5;strokeColor=#C73500;fontSize=16;fontFamily=Courier New;fontColor=#000000;" vertex="1" parent="Ig-3myvOuiy7OCBKOPEr-102">
          <mxGeometry y="148" width="692" height="100" as="geometry" />
        </mxCell>
        <mxCell id="Ig-3myvOuiy7OCBKOPEr-106" value="MeleeEnemy" style="swimlane;fontStyle=1;align=center;verticalAlign=top;childLayout=stackLayout;horizontal=1;startSize=26;horizontalStack=0;resizeParent=1;resizeParentMax=0;resizeLast=0;collapsible=1;marginBottom=0;whiteSpace=wrap;html=1;fillColor=#FABB96;strokeWidth=5;strokeColor=#C73500;fontSize=16;fontFamily=Courier New;fontColor=#000000;" vertex="1" parent="WIyWlLk6GJQsqaUBKTNV-1">
          <mxGeometry x="-3829" y="2145" width="833" height="377" as="geometry" />
        </mxCell>
        <mxCell id="Ig-3myvOuiy7OCBKOPEr-107" value="+ image : Surface&lt;div&gt;+ rect : Rect&lt;/div&gt;&lt;div&gt;+ health : int&lt;/div&gt;&lt;div&gt;+ damage : int&lt;/div&gt;&lt;div&gt;+ states: Dict&lt;/div&gt;" style="text;fillColor=#FABB96;align=left;verticalAlign=top;spacingLeft=4;spacingRight=4;overflow=hidden;rotatable=0;points=[[0,0.5],[1,0.5]];portConstraint=eastwest;whiteSpace=wrap;html=1;strokeWidth=5;strokeColor=#C73500;fontSize=16;fontFamily=Courier New;fontColor=#000000;" vertex="1" parent="Ig-3myvOuiy7OCBKOPEr-106">
          <mxGeometry y="26" width="833" height="112" as="geometry" />
        </mxCell>
        <mxCell id="Ig-3myvOuiy7OCBKOPEr-108" value="" style="line;strokeWidth=5;fillColor=#FABB96;align=left;verticalAlign=middle;spacingTop=-1;spacingLeft=3;spacingRight=3;rotatable=0;labelPosition=right;points=[];portConstraint=eastwest;strokeColor=#C73500;fontSize=16;fontFamily=Courier New;fontColor=#000000;" vertex="1" parent="Ig-3myvOuiy7OCBKOPEr-106">
          <mxGeometry y="138" width="833" height="8" as="geometry" />
        </mxCell>
        <mxCell id="Ig-3myvOuiy7OCBKOPEr-109" value="+ MeleeEnemy(x : int, y : int, dificulty : Dificulty, onlyChase : Bool, lastEnemy: Bool, gunPicks : Group)&lt;div&gt;+ update(dt : int, world : World, player : PlayerAbstract, cameraOffset : int, enemiesGroup)&lt;/div&gt;&lt;div&gt;+ patrol(world : World, player : PlayerAbstract, cameraOffset : int, enemiesGroup)&lt;/div&gt;&lt;div&gt;&lt;div&gt;+ chase(world : World, player : PlayerAbstract, cameraOffset : int, enemiesGroup)&lt;/div&gt;&lt;div&gt;&lt;span style=&quot;background-color: initial;&quot;&gt;+ attack(world : World, player : PlayerAbstract, cameraOffset : int, enemiesGroup)&lt;/span&gt;&lt;/div&gt;&lt;/div&gt;&lt;div&gt;&lt;span style=&quot;background-color: initial;&quot;&gt;+ die(world : World, player : PlayerAbstract, cameraOffset : int, enemiesGroup)&lt;/span&gt;&lt;br&gt;&lt;/div&gt;&lt;div&gt;+ hit(world : World, player : PlayerAbstract, cameraOffset : int, enemiesGroup)&lt;/div&gt;&lt;div&gt;+ drawBullets(screen)&lt;/div&gt;&lt;div&gt;&lt;br style=&quot;color: rgb(0, 0, 0); font-family: &amp;quot;Courier New&amp;quot;; font-size: 16px; font-style: normal; font-variant-ligatures: normal; font-variant-caps: normal; font-weight: 400; letter-spacing: normal; orphans: 2; text-align: left; text-indent: 0px; text-transform: none; widows: 2; word-spacing: 0px; -webkit-text-stroke-width: 0px; white-space: normal; text-decoration-thickness: initial; text-decoration-style: initial; text-decoration-color: initial; background-color: rgb(251, 251, 251);&quot;&gt;&lt;/div&gt;" style="text;fillColor=#FABB96;align=left;verticalAlign=top;spacingLeft=4;spacingRight=4;overflow=hidden;rotatable=0;points=[[0,0.5],[1,0.5]];portConstraint=eastwest;whiteSpace=wrap;html=1;strokeWidth=5;strokeColor=#C73500;fontSize=16;fontFamily=Courier New;fontColor=#000000;" vertex="1" parent="Ig-3myvOuiy7OCBKOPEr-106">
          <mxGeometry y="146" width="833" height="231" as="geometry" />
        </mxCell>
        <mxCell id="Ig-3myvOuiy7OCBKOPEr-110" value="FlyingEnemy" style="swimlane;fontStyle=1;align=center;verticalAlign=top;childLayout=stackLayout;horizontal=1;startSize=26;horizontalStack=0;resizeParent=1;resizeParentMax=0;resizeLast=0;collapsible=1;marginBottom=0;whiteSpace=wrap;html=1;fillColor=#FABB96;strokeWidth=5;strokeColor=#C73500;fontSize=16;fontFamily=Courier New;fontColor=#000000;" vertex="1" parent="WIyWlLk6GJQsqaUBKTNV-1">
          <mxGeometry x="-3465" y="2778" width="1060" height="360" as="geometry" />
        </mxCell>
        <mxCell id="Ig-3myvOuiy7OCBKOPEr-111" value="+ image : Surface&lt;div&gt;+ rect : Rect&lt;/div&gt;&lt;div&gt;+ health : int&lt;/div&gt;&lt;div&gt;+ damage : int&lt;/div&gt;&lt;div&gt;+ states: Dict&lt;/div&gt;" style="text;fillColor=#FABB96;align=left;verticalAlign=top;spacingLeft=4;spacingRight=4;overflow=hidden;rotatable=0;points=[[0,0.5],[1,0.5]];portConstraint=eastwest;whiteSpace=wrap;html=1;strokeWidth=5;strokeColor=#C73500;fontSize=16;fontFamily=Courier New;fontColor=#000000;" vertex="1" parent="Ig-3myvOuiy7OCBKOPEr-110">
          <mxGeometry y="26" width="1060" height="131" as="geometry" />
        </mxCell>
        <mxCell id="Ig-3myvOuiy7OCBKOPEr-112" value="" style="line;strokeWidth=5;fillColor=#FABB96;align=left;verticalAlign=middle;spacingTop=-1;spacingLeft=3;spacingRight=3;rotatable=0;labelPosition=right;points=[];portConstraint=eastwest;strokeColor=#C73500;fontSize=16;fontFamily=Courier New;fontColor=#000000;" vertex="1" parent="Ig-3myvOuiy7OCBKOPEr-110">
          <mxGeometry y="157" width="1060" height="8" as="geometry" />
        </mxCell>
        <mxCell id="Ig-3myvOuiy7OCBKOPEr-113" value="&lt;div&gt;+ FlyingEnemy(x : int, y : int, dificulty : Dificulty, onlyChase : Bool, bulletsGroup : Group)&lt;div&gt;+ update(dt : int, world : World, player : PlayerAbstract, cameraOffset : int, enemiesGroup)&lt;/div&gt;&lt;div&gt;+ patrol(world : World, player : PlayerAbstract, cameraOffset : int, enemiesGroup)&lt;/div&gt;&lt;div&gt;&lt;div&gt;+ chase(world : World, player : PlayerAbstract, cameraOffset : int, enemiesGroup)&lt;/div&gt;&lt;div&gt;&lt;span style=&quot;background-color: initial;&quot;&gt;+ attack(world : World, player : PlayerAbstract, cameraOffset : int, enemiesGroup)&lt;/span&gt;&lt;/div&gt;&lt;/div&gt;&lt;div&gt;&lt;span style=&quot;background-color: initial;&quot;&gt;+ die(world : World, player : PlayerAbstract, cameraOffset : int, enemiesGroup)&lt;/span&gt;&lt;br&gt;&lt;/div&gt;&lt;div&gt;+ hit(world : World, player : PlayerAbstract, cameraOffset : int, enemiesGroup)&lt;/div&gt;&lt;div&gt;+ drawBullets(screen)&lt;/div&gt;&lt;div&gt;&lt;br&gt;&lt;/div&gt;&lt;/div&gt;" style="text;fillColor=#FABB96;align=left;verticalAlign=top;spacingLeft=4;spacingRight=4;overflow=hidden;rotatable=0;points=[[0,0.5],[1,0.5]];portConstraint=eastwest;whiteSpace=wrap;html=1;strokeWidth=5;strokeColor=#C73500;fontSize=16;fontFamily=Courier New;fontColor=#000000;" vertex="1" parent="Ig-3myvOuiy7OCBKOPEr-110">
          <mxGeometry y="165" width="1060" height="195" as="geometry" />
        </mxCell>
        <mxCell id="Ig-3myvOuiy7OCBKOPEr-114" value="ShooterEnemy" style="swimlane;fontStyle=1;align=center;verticalAlign=top;childLayout=stackLayout;horizontal=1;startSize=26;horizontalStack=0;resizeParent=1;resizeParentMax=0;resizeLast=0;collapsible=1;marginBottom=0;whiteSpace=wrap;html=1;fillColor=#FABB96;strokeWidth=5;strokeColor=#C73500;fontSize=16;fontFamily=Courier New;fontColor=#000000;" vertex="1" parent="WIyWlLk6GJQsqaUBKTNV-1">
          <mxGeometry x="-2913" y="2273" width="960" height="353" as="geometry" />
        </mxCell>
        <mxCell id="Ig-3myvOuiy7OCBKOPEr-115" value="+ image : Surface&lt;div&gt;+ rect : Rect&lt;/div&gt;&lt;div&gt;+ health : int&lt;/div&gt;&lt;div&gt;+ damage : int&lt;/div&gt;&lt;div&gt;+ states: Dict&lt;/div&gt;" style="text;fillColor=#FABB96;align=left;verticalAlign=top;spacingLeft=4;spacingRight=4;overflow=hidden;rotatable=0;points=[[0,0.5],[1,0.5]];portConstraint=eastwest;whiteSpace=wrap;html=1;strokeWidth=5;strokeColor=#C73500;fontSize=16;fontFamily=Courier New;fontColor=#000000;" vertex="1" parent="Ig-3myvOuiy7OCBKOPEr-114">
          <mxGeometry y="26" width="960" height="116" as="geometry" />
        </mxCell>
        <mxCell id="Ig-3myvOuiy7OCBKOPEr-116" value="" style="line;strokeWidth=5;fillColor=#FABB96;align=left;verticalAlign=middle;spacingTop=-1;spacingLeft=3;spacingRight=3;rotatable=0;labelPosition=right;points=[];portConstraint=eastwest;strokeColor=#C73500;fontSize=16;fontFamily=Courier New;fontColor=#000000;" vertex="1" parent="Ig-3myvOuiy7OCBKOPEr-114">
          <mxGeometry y="142" width="960" height="8" as="geometry" />
        </mxCell>
        <mxCell id="Ig-3myvOuiy7OCBKOPEr-117" value="&lt;div&gt;+ ShooterEnemy(x : int, y : int, dificulty : Dificulty, onlyChase : Bool, bulletsGroup : Group)&lt;div&gt;+ update(dt : int, world : World, player : PlayerAbstract, cameraOffset : int, enemiesGroup)&lt;/div&gt;&lt;div&gt;+ patrol(world : World, player : PlayerAbstract, cameraOffset : int, enemiesGroup)&lt;/div&gt;&lt;div&gt;&lt;div&gt;+ chase(world : World, player : PlayerAbstract, cameraOffset : int, enemiesGroup)&lt;/div&gt;&lt;div&gt;&lt;span style=&quot;background-color: initial;&quot;&gt;+ attack(world : World, player : PlayerAbstract, cameraOffset : int, enemiesGroup)&lt;/span&gt;&lt;/div&gt;&lt;/div&gt;&lt;div&gt;&lt;span style=&quot;background-color: initial;&quot;&gt;+ die(world : World, player : PlayerAbstract, cameraOffset : int, enemiesGroup)&lt;/span&gt;&lt;br&gt;&lt;/div&gt;&lt;div&gt;+ hit(world : World, player : PlayerAbstract, cameraOffset : int, enemiesGroup)&lt;/div&gt;&lt;div&gt;+ drawBullets(screen)&lt;/div&gt;&lt;div&gt;&lt;br&gt;&lt;/div&gt;&lt;/div&gt;" style="text;fillColor=#FABB96;align=left;verticalAlign=top;spacingLeft=4;spacingRight=4;overflow=hidden;rotatable=0;points=[[0,0.5],[1,0.5]];portConstraint=eastwest;whiteSpace=wrap;html=1;strokeWidth=5;strokeColor=#C73500;fontSize=16;fontFamily=Courier New;fontColor=#000000;" vertex="1" parent="Ig-3myvOuiy7OCBKOPEr-114">
          <mxGeometry y="150" width="960" height="203" as="geometry" />
        </mxCell>
        <mxCell id="Ig-3myvOuiy7OCBKOPEr-118" value="RayEnemy" style="swimlane;fontStyle=1;align=center;verticalAlign=top;childLayout=stackLayout;horizontal=1;startSize=26;horizontalStack=0;resizeParent=1;resizeParentMax=0;resizeLast=0;collapsible=1;marginBottom=0;whiteSpace=wrap;html=1;fillColor=#FABB96;strokeWidth=5;strokeColor=#C73500;fontSize=16;fontFamily=Courier New;fontColor=#000000;" vertex="1" parent="WIyWlLk6GJQsqaUBKTNV-1">
          <mxGeometry x="-4352" y="2545" width="828" height="383" as="geometry" />
        </mxCell>
        <mxCell id="Ig-3myvOuiy7OCBKOPEr-119" value="+ image : Surface&lt;div&gt;+ rect : Rect&lt;/div&gt;&lt;div&gt;+ health : int&lt;/div&gt;&lt;div&gt;+ damage : int&lt;/div&gt;&lt;div&gt;+ states: Dict&lt;/div&gt;" style="text;fillColor=#FABB96;align=left;verticalAlign=top;spacingLeft=4;spacingRight=4;overflow=hidden;rotatable=0;points=[[0,0.5],[1,0.5]];portConstraint=eastwest;whiteSpace=wrap;html=1;strokeWidth=5;strokeColor=#C73500;fontSize=16;fontFamily=Courier New;fontColor=#000000;" vertex="1" parent="Ig-3myvOuiy7OCBKOPEr-118">
          <mxGeometry y="26" width="828" height="123" as="geometry" />
        </mxCell>
        <mxCell id="Ig-3myvOuiy7OCBKOPEr-120" value="" style="line;strokeWidth=5;fillColor=#FABB96;align=left;verticalAlign=middle;spacingTop=-1;spacingLeft=3;spacingRight=3;rotatable=0;labelPosition=right;points=[];portConstraint=eastwest;strokeColor=#C73500;fontSize=16;fontFamily=Courier New;fontColor=#000000;" vertex="1" parent="Ig-3myvOuiy7OCBKOPEr-118">
          <mxGeometry y="149" width="828" height="8" as="geometry" />
        </mxCell>
        <mxCell id="Ig-3myvOuiy7OCBKOPEr-121" value="+ RayEnemy(x : int, y : int, dificulty : Dificulty)&lt;div&gt;+ update(dt : int, world : World, player : PlayerAbstract, cameraOffset : int, enemiesGroup)&lt;/div&gt;&lt;div&gt;+ patrol(world : World, player : PlayerAbstract, cameraOffset : int, enemiesGroup)&lt;/div&gt;&lt;div&gt;&lt;div&gt;+ chase(world : World, player : PlayerAbstract, cameraOffset : int, enemiesGroup)&lt;/div&gt;&lt;div&gt;&lt;span style=&quot;background-color: initial;&quot;&gt;+ attack(world : World, player : PlayerAbstract, cameraOffset : int, enemiesGroup)&lt;/span&gt;&lt;/div&gt;&lt;/div&gt;&lt;div&gt;&lt;span style=&quot;background-color: initial;&quot;&gt;+ die(world : World, player : PlayerAbstract, cameraOffset : int, enemiesGroup)&lt;/span&gt;&lt;br&gt;&lt;/div&gt;&lt;div&gt;+ hit(world : World, player : PlayerAbstract, cameraOffset : int, enemiesGroup)&lt;/div&gt;&lt;div&gt;+ drawBullets(screen)&lt;/div&gt;&lt;div&gt;&lt;br style=&quot;color: rgb(0, 0, 0); font-family: &amp;quot;Courier New&amp;quot;; font-size: 16px; font-style: normal; font-variant-ligatures: normal; font-variant-caps: normal; font-weight: 400; letter-spacing: normal; orphans: 2; text-align: left; text-indent: 0px; text-transform: none; widows: 2; word-spacing: 0px; -webkit-text-stroke-width: 0px; white-space: normal; background-color: rgb(251, 251, 251); text-decoration-thickness: initial; text-decoration-style: initial; text-decoration-color: initial;&quot;&gt;&lt;/div&gt;" style="text;fillColor=#FABB96;align=left;verticalAlign=top;spacingLeft=4;spacingRight=4;overflow=hidden;rotatable=0;points=[[0,0.5],[1,0.5]];portConstraint=eastwest;whiteSpace=wrap;html=1;strokeWidth=5;strokeColor=#C73500;fontSize=16;fontFamily=Courier New;fontColor=#000000;" vertex="1" parent="Ig-3myvOuiy7OCBKOPEr-118">
          <mxGeometry y="157" width="828" height="226" as="geometry" />
        </mxCell>
        <mxCell id="Ig-3myvOuiy7OCBKOPEr-122" value="BarnacleEnemy" style="swimlane;fontStyle=1;align=center;verticalAlign=top;childLayout=stackLayout;horizontal=1;startSize=26;horizontalStack=0;resizeParent=1;resizeParentMax=0;resizeLast=0;collapsible=1;marginBottom=0;whiteSpace=wrap;html=1;fillColor=#FABB96;strokeWidth=5;strokeColor=#C73500;fontSize=16;fontFamily=Courier New;fontColor=#000000;" vertex="1" parent="WIyWlLk6GJQsqaUBKTNV-1">
          <mxGeometry x="-4799.5" y="1975" width="905" height="339" as="geometry" />
        </mxCell>
        <mxCell id="Ig-3myvOuiy7OCBKOPEr-123" value="+ image : Surface&lt;div&gt;+ rect : Rect&lt;/div&gt;&lt;div&gt;+ health : int&lt;/div&gt;&lt;div&gt;+ damage : int&lt;/div&gt;&lt;div&gt;+ states: Dict&lt;/div&gt;" style="text;fillColor=#FABB96;align=left;verticalAlign=top;spacingLeft=4;spacingRight=4;overflow=hidden;rotatable=0;points=[[0,0.5],[1,0.5]];portConstraint=eastwest;whiteSpace=wrap;html=1;strokeWidth=5;strokeColor=#C73500;fontSize=16;fontFamily=Courier New;fontColor=#000000;" vertex="1" parent="Ig-3myvOuiy7OCBKOPEr-122">
          <mxGeometry y="26" width="905" height="115" as="geometry" />
        </mxCell>
        <mxCell id="Ig-3myvOuiy7OCBKOPEr-124" value="" style="line;strokeWidth=5;fillColor=#FABB96;align=left;verticalAlign=middle;spacingTop=-1;spacingLeft=3;spacingRight=3;rotatable=0;labelPosition=right;points=[];portConstraint=eastwest;strokeColor=#C73500;fontSize=16;fontFamily=Courier New;fontColor=#000000;" vertex="1" parent="Ig-3myvOuiy7OCBKOPEr-122">
          <mxGeometry y="141" width="905" height="8" as="geometry" />
        </mxCell>
        <mxCell id="Ig-3myvOuiy7OCBKOPEr-125" value="+ BarnacleEnemy(x : int, y : int, dificulty : Dificulty)&lt;div&gt;+ update(dt : int, world : World, player : PlayerAbstract, cameraOffset : int, enemiesGroup)&lt;/div&gt;&lt;div&gt;+ patrol(world : World, player : PlayerAbstract, cameraOffset : int, enemiesGroup)&lt;/div&gt;&lt;div&gt;&lt;div&gt;+ chase(world : World, player : PlayerAbstract, cameraOffset : int, enemiesGroup)&lt;/div&gt;&lt;div&gt;&lt;span style=&quot;background-color: initial;&quot;&gt;+ attack(world : World, player : PlayerAbstract, cameraOffset : int, enemiesGroup)&lt;/span&gt;&lt;br&gt;&lt;/div&gt;&lt;/div&gt;&lt;div&gt;+ attackMelee(world : World, player : PlayerAbstract, cameraOffset : int, enemiesGroup)&lt;/div&gt;&lt;div&gt;&lt;span style=&quot;background-color: initial;&quot;&gt;+ die(world : World, player : PlayerAbstract, cameraOffset : int, enemiesGroup)&lt;/span&gt;&lt;br&gt;&lt;/div&gt;&lt;div&gt;+ hit(world : World, player : PlayerAbstract, cameraOffset : int, enemiesGroup)&lt;/div&gt;&lt;div&gt;+ drawBullets(screen)&lt;/div&gt;&lt;div&gt;&lt;br&gt;&lt;/div&gt;" style="text;fillColor=#FABB96;align=left;verticalAlign=top;spacingLeft=4;spacingRight=4;overflow=hidden;rotatable=0;points=[[0,0.5],[1,0.5]];portConstraint=eastwest;whiteSpace=wrap;html=1;strokeWidth=5;strokeColor=#C73500;fontSize=16;fontFamily=Courier New;fontColor=#000000;" vertex="1" parent="Ig-3myvOuiy7OCBKOPEr-122">
          <mxGeometry y="149" width="905" height="190" as="geometry" />
        </mxCell>
        <mxCell id="Ig-3myvOuiy7OCBKOPEr-153" style="edgeStyle=orthogonalEdgeStyle;rounded=0;orthogonalLoop=1;jettySize=auto;html=1;exitX=0.75;exitY=0;exitDx=0;exitDy=0;entryX=0.056;entryY=1.013;entryDx=0;entryDy=0;fillColor=#fa6800;strokeColor=#C73500;strokeWidth=5;endSize=18;endArrow=block;endFill=0;dashed=1;entryPerimeter=0;" edge="1" parent="WIyWlLk6GJQsqaUBKTNV-1" source="Ig-3myvOuiy7OCBKOPEr-126" target="Ig-3myvOuiy7OCBKOPEr-145">
          <mxGeometry relative="1" as="geometry">
            <Array as="points">
              <mxPoint x="-5118" y="1858" />
              <mxPoint x="-4251" y="1858" />
            </Array>
          </mxGeometry>
        </mxCell>
        <mxCell id="Ig-3myvOuiy7OCBKOPEr-126" value="Vonreg" style="swimlane;fontStyle=1;align=center;verticalAlign=top;childLayout=stackLayout;horizontal=1;startSize=26;horizontalStack=0;resizeParent=1;resizeParentMax=0;resizeLast=0;collapsible=1;marginBottom=0;whiteSpace=wrap;html=1;fillColor=#FABB96;strokeWidth=5;strokeColor=#C73500;fontSize=16;fontFamily=Courier New;fontColor=#000000;" vertex="1" parent="WIyWlLk6GJQsqaUBKTNV-1">
          <mxGeometry x="-6007" y="2241" width="1185" height="404" as="geometry" />
        </mxCell>
        <mxCell id="Ig-3myvOuiy7OCBKOPEr-127" value="+ image : Surface&lt;div&gt;+ rect : Rect&lt;/div&gt;&lt;div&gt;+ health : int&lt;/div&gt;&lt;div&gt;+ damage : int&lt;/div&gt;&lt;div&gt;+ states: Dict&lt;br&gt;&lt;/div&gt;" style="text;fillColor=#FABB96;align=left;verticalAlign=top;spacingLeft=4;spacingRight=4;overflow=hidden;rotatable=0;points=[[0,0.5],[1,0.5]];portConstraint=eastwest;whiteSpace=wrap;html=1;strokeWidth=5;strokeColor=#C73500;fontSize=16;fontFamily=Courier New;fontColor=#000000;" vertex="1" parent="Ig-3myvOuiy7OCBKOPEr-126">
          <mxGeometry y="26" width="1185" height="128" as="geometry" />
        </mxCell>
        <mxCell id="Ig-3myvOuiy7OCBKOPEr-128" value="" style="line;strokeWidth=5;fillColor=#FABB96;align=left;verticalAlign=middle;spacingTop=-1;spacingLeft=3;spacingRight=3;rotatable=0;labelPosition=right;points=[];portConstraint=eastwest;strokeColor=#C73500;fontSize=16;fontFamily=Courier New;fontColor=#000000;" vertex="1" parent="Ig-3myvOuiy7OCBKOPEr-126">
          <mxGeometry y="154" width="1185" height="8" as="geometry" />
        </mxCell>
        <mxCell id="Ig-3myvOuiy7OCBKOPEr-129" value="+ Vonreg(x : int, y : int, grenadesGroup : Group, dificulty : Dificulty, healthBar : UIBossHealthBar, gunPicks: Group)&lt;div&gt;+ update(dt : int, world : World, player : PlayerAbstract, cameraOffset : int, enemiesGroup)&lt;/div&gt;&lt;div&gt;&lt;div&gt;+ patrol(world : World, player : PlayerAbstract, cameraOffset : int, enemiesGroup)&lt;/div&gt;&lt;/div&gt;&lt;div&gt;&lt;div&gt;+ chase(world : World, player : PlayerAbstract, cameraOffset : int, enemiesGroup)&lt;/div&gt;&lt;div&gt;&lt;span style=&quot;background-color: initial;&quot;&gt;+ attack(world : World, player : PlayerAbstract, cameraOffset : int, enemiesGroup)&lt;/span&gt;&lt;br&gt;&lt;/div&gt;&lt;/div&gt;&lt;div&gt;&lt;div&gt;+ attackingMelee(world : World, player : PlayerAbstract, cameraOffset : int, enemiesGroup)&lt;/div&gt;&lt;/div&gt;&lt;div&gt;&lt;div&gt;+ attackingDistance(world : World, player : PlayerAbstract, cameraOffset : int, enemiesGroup)&lt;/div&gt;&lt;/div&gt;&lt;div&gt;+ dead(&lt;span style=&quot;background-color: initial;&quot;&gt;world : World, player : PlayerAbstract, cameraOffset : int, enemiesGroup&lt;/span&gt;&lt;span style=&quot;background-color: initial;&quot;&gt;)&lt;/span&gt;&lt;/div&gt;&lt;div&gt;&lt;div&gt;+ die(world : World, player : PlayerAbstract, cameraOffset : int, enemiesGroup)&lt;/div&gt;&lt;/div&gt;&lt;div&gt;&lt;div&gt;+ hit(world : World, player : PlayerAbstract, cameraOffset : int, enemiesGroup)&lt;/div&gt;&lt;/div&gt;&lt;div&gt;+ player_in_sight(world : World, player : Player)&lt;/div&gt;&lt;div&gt;&lt;br&gt;&lt;/div&gt;&lt;div&gt;&lt;div&gt;&lt;br&gt;&lt;/div&gt;&lt;/div&gt;" style="text;fillColor=#FABB96;align=left;verticalAlign=top;spacingLeft=4;spacingRight=4;overflow=hidden;rotatable=0;points=[[0,0.5],[1,0.5]];portConstraint=eastwest;whiteSpace=wrap;html=1;strokeWidth=5;strokeColor=#C73500;fontSize=16;fontFamily=Courier New;fontColor=#000000;" vertex="1" parent="Ig-3myvOuiy7OCBKOPEr-126">
          <mxGeometry y="162" width="1185" height="242" as="geometry" />
        </mxCell>
        <mxCell id="Ig-3myvOuiy7OCBKOPEr-130" value="Rahm" style="swimlane;fontStyle=1;align=center;verticalAlign=top;childLayout=stackLayout;horizontal=1;startSize=26;horizontalStack=0;resizeParent=1;resizeParentMax=0;resizeLast=0;collapsible=1;marginBottom=0;whiteSpace=wrap;html=1;fillColor=#FABB96;strokeWidth=5;strokeColor=#C73500;fontSize=16;fontFamily=Courier New;fontColor=#000000;" vertex="1" parent="WIyWlLk6GJQsqaUBKTNV-1">
          <mxGeometry x="-5567.5" y="2804" width="1181" height="360" as="geometry" />
        </mxCell>
        <mxCell id="Ig-3myvOuiy7OCBKOPEr-131" value="+ image : Surface&lt;div&gt;+ rect : Rect&lt;/div&gt;&lt;div&gt;+ health : int&lt;/div&gt;&lt;div&gt;+ damage : int&lt;/div&gt;&lt;div&gt;+ states: Dict&lt;br&gt;&lt;/div&gt;" style="text;fillColor=#FABB96;align=left;verticalAlign=top;spacingLeft=4;spacingRight=4;overflow=hidden;rotatable=0;points=[[0,0.5],[1,0.5]];portConstraint=eastwest;whiteSpace=wrap;html=1;strokeWidth=5;strokeColor=#C73500;fontSize=16;fontFamily=Courier New;fontColor=#000000;" vertex="1" parent="Ig-3myvOuiy7OCBKOPEr-130">
          <mxGeometry y="26" width="1181" height="116" as="geometry" />
        </mxCell>
        <mxCell id="Ig-3myvOuiy7OCBKOPEr-132" value="" style="line;strokeWidth=5;fillColor=#FABB96;align=left;verticalAlign=middle;spacingTop=-1;spacingLeft=3;spacingRight=3;rotatable=0;labelPosition=right;points=[];portConstraint=eastwest;strokeColor=#C73500;fontSize=16;fontFamily=Courier New;fontColor=#000000;" vertex="1" parent="Ig-3myvOuiy7OCBKOPEr-130">
          <mxGeometry y="142" width="1181" height="8" as="geometry" />
        </mxCell>
        <mxCell id="Ig-3myvOuiy7OCBKOPEr-133" value="+ Rahm(x : int, y : int, bulletsGroup : Group, dificulty : Dificulty, healthBar : UIBossHealthBar, gunPicks: Group, uiCroshair : UIRahmCroshair)&lt;div&gt;+ update(dt : int, world : World, player : PlayerAbstract, cameraOffset : int, enemiesGroup)&lt;/div&gt;&lt;div&gt;&lt;div&gt;+ patrol(world : World, player : PlayerAbstract, cameraOffset : int, enemiesGroup)&lt;/div&gt;&lt;/div&gt;&lt;div&gt;&lt;div&gt;+ chase(world : World, player : PlayerAbstract, cameraOffset : int, enemiesGroup)&lt;/div&gt;&lt;div&gt;&lt;span style=&quot;background-color: initial;&quot;&gt;+ attack(world : World, player : PlayerAbstract, cameraOffset : int, enemiesGroup)&lt;/span&gt;&lt;br&gt;&lt;/div&gt;&lt;/div&gt;&lt;div&gt;&lt;div&gt;+ attackMelee(world : World, player : PlayerAbstract, cameraOffset : int, enemiesGroup)&lt;/div&gt;&lt;/div&gt;&lt;div&gt;&lt;div&gt;+ dead(&lt;span style=&quot;background-color: initial;&quot;&gt;world : World, player : PlayerAbstract, cameraOffset : int, enemiesGroup&lt;/span&gt;&lt;span style=&quot;background-color: initial;&quot;&gt;)&lt;/span&gt;&lt;/div&gt;&lt;div&gt;&lt;/div&gt;&lt;/div&gt;&lt;div&gt;&lt;div&gt;&lt;span style=&quot;background-color: initial;&quot;&gt;+ die(world : World, player : PlayerAbstract, cameraOffset : int, enemiesGroup)&lt;/span&gt;&lt;br&gt;&lt;/div&gt;&lt;/div&gt;&lt;div&gt;&lt;div&gt;+ hit(world : World, player : PlayerAbstract, cameraOffset : int, enemiesGroup)&lt;/div&gt;&lt;/div&gt;&lt;div&gt;&lt;div&gt;&lt;br style=&quot;color: rgb(0, 0, 0); font-family: &amp;quot;Courier New&amp;quot;; font-size: 16px; font-style: normal; font-variant-ligatures: normal; font-variant-caps: normal; font-weight: 400; letter-spacing: normal; orphans: 2; text-align: left; text-indent: 0px; text-transform: none; widows: 2; word-spacing: 0px; -webkit-text-stroke-width: 0px; white-space: normal; background-color: rgb(251, 251, 251); text-decoration-thickness: initial; text-decoration-style: initial; text-decoration-color: initial;&quot;&gt;&lt;/div&gt;&lt;/div&gt;" style="text;fillColor=#FABB96;align=left;verticalAlign=top;spacingLeft=4;spacingRight=4;overflow=hidden;rotatable=0;points=[[0,0.5],[1,0.5]];portConstraint=eastwest;whiteSpace=wrap;html=1;strokeWidth=5;strokeColor=#C73500;fontSize=16;fontFamily=Courier New;fontColor=#000000;" vertex="1" parent="Ig-3myvOuiy7OCBKOPEr-130">
          <mxGeometry y="150" width="1181" height="210" as="geometry" />
        </mxCell>
        <mxCell id="Jci9rY_oWT2zMIwYghk--3" style="edgeStyle=orthogonalEdgeStyle;rounded=0;orthogonalLoop=1;jettySize=auto;html=1;entryX=0.5;entryY=0;entryDx=0;entryDy=0;strokeColor=#8F5500;strokeWidth=5;endArrow=block;endFill=0;endSize=18;" edge="1" parent="WIyWlLk6GJQsqaUBKTNV-1" source="Ig-3myvOuiy7OCBKOPEr-134" target="Ig-3myvOuiy7OCBKOPEr-146">
          <mxGeometry relative="1" as="geometry" />
        </mxCell>
        <mxCell id="Ig-3myvOuiy7OCBKOPEr-134" value="WallDestructible" style="swimlane;fontStyle=1;align=center;verticalAlign=top;childLayout=stackLayout;horizontal=1;startSize=26;horizontalStack=0;resizeParent=1;resizeParentMax=0;resizeLast=0;collapsible=1;marginBottom=0;whiteSpace=wrap;html=1;fillColor=#f0a30a;strokeWidth=5;strokeColor=#8F5500;fontSize=16;fontFamily=Courier New;fontColor=#000000;" vertex="1" parent="WIyWlLk6GJQsqaUBKTNV-1">
          <mxGeometry x="-5080" y="1121" width="692" height="229" as="geometry" />
        </mxCell>
        <mxCell id="Ig-3myvOuiy7OCBKOPEr-135" value="+ image : Surface&lt;div&gt;+ rect : Rect&lt;/div&gt;&lt;div&gt;+ boxBreaking : BoxBreaking&lt;/div&gt;&lt;div&gt;+ tileList : List&lt;/div&gt;" style="text;fillColor=#f0a30a;align=left;verticalAlign=top;spacingLeft=4;spacingRight=4;overflow=hidden;rotatable=0;points=[[0,0.5],[1,0.5]];portConstraint=eastwest;whiteSpace=wrap;html=1;strokeWidth=5;strokeColor=#8F5500;fontSize=16;fontFamily=Courier New;fontColor=#000000;" vertex="1" parent="Ig-3myvOuiy7OCBKOPEr-134">
          <mxGeometry y="26" width="692" height="95" as="geometry" />
        </mxCell>
        <mxCell id="Ig-3myvOuiy7OCBKOPEr-136" value="" style="line;strokeWidth=5;fillColor=#f0a30a;align=left;verticalAlign=middle;spacingTop=-1;spacingLeft=3;spacingRight=3;rotatable=0;labelPosition=right;points=[];portConstraint=eastwest;strokeColor=#8F5500;fontSize=16;fontFamily=Courier New;fontColor=#000000;" vertex="1" parent="Ig-3myvOuiy7OCBKOPEr-134">
          <mxGeometry y="121" width="692" height="8" as="geometry" />
        </mxCell>
        <mxCell id="Ig-3myvOuiy7OCBKOPEr-137" value="&lt;div&gt;+ update(cameraOffset : Int)&lt;/div&gt;&lt;div&gt;+ destroy(backAnimations : Group, world : World, destructiblesGroup : Group)&lt;/div&gt;" style="text;fillColor=#f0a30a;align=left;verticalAlign=top;spacingLeft=4;spacingRight=4;overflow=hidden;rotatable=0;points=[[0,0.5],[1,0.5]];portConstraint=eastwest;whiteSpace=wrap;html=1;strokeWidth=5;strokeColor=#8F5500;fontSize=16;fontFamily=Courier New;fontColor=#000000;" vertex="1" parent="Ig-3myvOuiy7OCBKOPEr-134">
          <mxGeometry y="129" width="692" height="100" as="geometry" />
        </mxCell>
        <mxCell id="Ig-3myvOuiy7OCBKOPEr-162" style="edgeStyle=orthogonalEdgeStyle;rounded=0;orthogonalLoop=1;jettySize=auto;html=1;exitX=1;exitY=0.5;exitDx=0;exitDy=0;entryX=0;entryY=0.37;entryDx=0;entryDy=0;dashed=1;strokeWidth=5;fillColor=#fa6800;strokeColor=#C73500;endSize=18;entryPerimeter=0;" edge="1" parent="WIyWlLk6GJQsqaUBKTNV-1" source="Ig-3myvOuiy7OCBKOPEr-138" target="Ig-3myvOuiy7OCBKOPEr-145">
          <mxGeometry relative="1" as="geometry">
            <mxPoint x="-4298" y="1621" as="targetPoint" />
          </mxGeometry>
        </mxCell>
        <mxCell id="Ig-3myvOuiy7OCBKOPEr-138" value="&lt;i&gt;EnemyFactory&lt;/i&gt;" style="swimlane;fontStyle=1;align=center;verticalAlign=top;childLayout=stackLayout;horizontal=1;startSize=26;horizontalStack=0;resizeParent=1;resizeParentMax=0;resizeLast=0;collapsible=1;marginBottom=0;whiteSpace=wrap;html=1;fillColor=#FABB96;strokeWidth=5;strokeColor=#C73500;fontSize=16;fontFamily=Courier New;fontColor=#000000;" vertex="1" parent="WIyWlLk6GJQsqaUBKTNV-1">
          <mxGeometry x="-6424" y="1470" width="692" height="134" as="geometry" />
        </mxCell>
        <mxCell id="Ig-3myvOuiy7OCBKOPEr-140" value="" style="line;strokeWidth=5;fillColor=#FABB96;align=left;verticalAlign=middle;spacingTop=-1;spacingLeft=3;spacingRight=3;rotatable=0;labelPosition=right;points=[];portConstraint=eastwest;strokeColor=#C73500;fontSize=16;fontFamily=Courier New;fontColor=#000000;" vertex="1" parent="Ig-3myvOuiy7OCBKOPEr-138">
          <mxGeometry y="26" width="692" height="8" as="geometry" />
        </mxCell>
        <mxCell id="Ig-3myvOuiy7OCBKOPEr-141" value="&lt;i&gt;+ createEnemy()&lt;/i&gt;" style="text;fillColor=#FABB96;align=left;verticalAlign=top;spacingLeft=4;spacingRight=4;overflow=hidden;rotatable=0;points=[[0,0.5],[1,0.5]];portConstraint=eastwest;whiteSpace=wrap;html=1;strokeWidth=5;strokeColor=#C73500;fontSize=16;fontFamily=Courier New;fontColor=#000000;" vertex="1" parent="Ig-3myvOuiy7OCBKOPEr-138">
          <mxGeometry y="34" width="692" height="100" as="geometry" />
        </mxCell>
        <mxCell id="Ig-3myvOuiy7OCBKOPEr-150" style="edgeStyle=orthogonalEdgeStyle;rounded=0;orthogonalLoop=1;jettySize=auto;html=1;exitX=0.5;exitY=0;exitDx=0;exitDy=0;fillColor=#fa6800;strokeColor=#C73500;strokeWidth=5;endArrow=block;endFill=0;endSize=18;" edge="1" parent="WIyWlLk6GJQsqaUBKTNV-1" source="Ig-3myvOuiy7OCBKOPEr-142">
          <mxGeometry relative="1" as="geometry">
            <mxPoint x="-3952.461538461539" y="1346.7692307692305" as="targetPoint" />
          </mxGeometry>
        </mxCell>
        <mxCell id="Ig-3myvOuiy7OCBKOPEr-142" value="&lt;div&gt;&lt;i&gt;&amp;lt;&amp;lt;interface&amp;gt;&amp;gt;&lt;/i&gt;&lt;/div&gt;&lt;i&gt;Enemy&lt;/i&gt;" style="swimlane;fontStyle=1;align=center;verticalAlign=top;childLayout=stackLayout;horizontal=1;startSize=50;horizontalStack=0;resizeParent=1;resizeParentMax=0;resizeLast=0;collapsible=1;marginBottom=0;whiteSpace=wrap;html=1;fillColor=#FABB96;strokeWidth=5;strokeColor=#C73500;fontSize=16;fontFamily=Courier New;fontColor=#000000;" vertex="1" parent="WIyWlLk6GJQsqaUBKTNV-1">
          <mxGeometry x="-4298" y="1559" width="839" height="195" as="geometry" />
        </mxCell>
        <mxCell id="Ig-3myvOuiy7OCBKOPEr-144" value="" style="line;strokeWidth=5;fillColor=#FABB96;align=left;verticalAlign=middle;spacingTop=-1;spacingLeft=3;spacingRight=3;rotatable=0;labelPosition=right;points=[];portConstraint=eastwest;strokeColor=#C73500;fontSize=16;fontFamily=Courier New;fontColor=#000000;" vertex="1" parent="Ig-3myvOuiy7OCBKOPEr-142">
          <mxGeometry y="50" width="839" height="8" as="geometry" />
        </mxCell>
        <mxCell id="Ig-3myvOuiy7OCBKOPEr-145" value="+ update(world : World, player : PlayerAbstract, cameraOffset : int, enemiesGroup)&lt;div&gt;+ patrol(&lt;span style=&quot;background-color: initial;&quot;&gt;world : World, player : PlayerAbstract, cameraOffset : int, enemiesGroup&lt;/span&gt;&lt;span style=&quot;background-color: initial;&quot;&gt;)&lt;/span&gt;&lt;/div&gt;&lt;div&gt;+ chase(&lt;span style=&quot;background-color: initial;&quot;&gt;world : World, player : PlayerAbstract, cameraOffset : int, enemiesGroup&lt;/span&gt;&lt;span style=&quot;background-color: initial;&quot;&gt;)&lt;/span&gt;&lt;/div&gt;&lt;div&gt;+ attack(&lt;span style=&quot;background-color: initial;&quot;&gt;world : World, player : PlayerAbstract, cameraOffset : int, enemiesGroup&lt;/span&gt;&lt;span style=&quot;background-color: initial;&quot;&gt;)&lt;/span&gt;&lt;/div&gt;&lt;div&gt;+ die(&lt;span style=&quot;background-color: initial;&quot;&gt;world : World, player : PlayerAbstract, cameraOffset : int, enemiesGroup&lt;/span&gt;&lt;span style=&quot;background-color: initial;&quot;&gt;)&lt;/span&gt;&lt;/div&gt;&lt;div&gt;+ hit(&lt;span style=&quot;background-color: initial;&quot;&gt;world : World, player : PlayerAbstract, cameraOffset : int, enemiesGroup&lt;/span&gt;&lt;span style=&quot;background-color: initial;&quot;&gt;)&lt;/span&gt;&lt;/div&gt;" style="text;fillColor=#FABB96;align=left;verticalAlign=top;spacingLeft=4;spacingRight=4;overflow=hidden;rotatable=0;points=[[0,0.5],[1,0.5]];portConstraint=eastwest;whiteSpace=wrap;html=1;strokeWidth=5;strokeColor=#C73500;fontSize=16;fontFamily=Courier New;fontColor=#000000;" vertex="1" parent="Ig-3myvOuiy7OCBKOPEr-142">
          <mxGeometry y="58" width="839" height="137" as="geometry" />
        </mxCell>
        <mxCell id="Ig-3myvOuiy7OCBKOPEr-146" value="pygame.sprite.Sprites" style="swimlane;fontStyle=1;align=center;verticalAlign=top;childLayout=stackLayout;horizontal=1;startSize=26;horizontalStack=0;resizeParent=1;resizeParentMax=0;resizeLast=0;collapsible=1;marginBottom=0;whiteSpace=wrap;html=1;fillColor=#f8cecc;strokeColor=#b85450;strokeWidth=5;swimlaneLine=1;fontSize=16;fontFamily=Courier New;" vertex="1" parent="WIyWlLk6GJQsqaUBKTNV-1">
          <mxGeometry x="-4110" y="1305" width="336" height="34" as="geometry" />
        </mxCell>
        <mxCell id="Ig-3myvOuiy7OCBKOPEr-147" value="" style="line;strokeWidth=5;fillColor=#f8cecc;align=left;verticalAlign=middle;spacingTop=-1;spacingLeft=3;spacingRight=3;rotatable=0;labelPosition=right;points=[];portConstraint=eastwest;strokeColor=#b85450;swimlaneLine=1;fontSize=16;fontFamily=Courier New;" vertex="1" parent="Ig-3myvOuiy7OCBKOPEr-146">
          <mxGeometry y="26" width="336" height="8" as="geometry" />
        </mxCell>
        <mxCell id="Ig-3myvOuiy7OCBKOPEr-148" value="pygame.sprite.Sprites" style="swimlane;fontStyle=1;align=center;verticalAlign=top;childLayout=stackLayout;horizontal=1;startSize=26;horizontalStack=0;resizeParent=1;resizeParentMax=0;resizeLast=0;collapsible=1;marginBottom=0;whiteSpace=wrap;html=1;fillColor=#f8cecc;strokeColor=#b85450;strokeWidth=5;swimlaneLine=1;fontSize=16;fontFamily=Courier New;" vertex="1" parent="WIyWlLk6GJQsqaUBKTNV-1">
          <mxGeometry x="-822" y="1169" width="336" height="34" as="geometry" />
        </mxCell>
        <mxCell id="Ig-3myvOuiy7OCBKOPEr-149" value="" style="line;strokeWidth=5;fillColor=#f8cecc;align=left;verticalAlign=middle;spacingTop=-1;spacingLeft=3;spacingRight=3;rotatable=0;labelPosition=right;points=[];portConstraint=eastwest;strokeColor=#b85450;swimlaneLine=1;fontSize=16;fontFamily=Courier New;" vertex="1" parent="Ig-3myvOuiy7OCBKOPEr-148">
          <mxGeometry y="26" width="336" height="8" as="geometry" />
        </mxCell>
        <mxCell id="Ig-3myvOuiy7OCBKOPEr-152" style="edgeStyle=orthogonalEdgeStyle;rounded=0;orthogonalLoop=1;jettySize=auto;html=1;exitX=0.75;exitY=0;exitDx=0;exitDy=0;entryX=0.206;entryY=1.002;entryDx=0;entryDy=0;entryPerimeter=0;fillColor=#fa6800;strokeColor=#C73500;strokeWidth=5;endSize=18;endArrow=block;endFill=0;dashed=1;" edge="1" parent="WIyWlLk6GJQsqaUBKTNV-1" source="Ig-3myvOuiy7OCBKOPEr-122" target="Ig-3myvOuiy7OCBKOPEr-145">
          <mxGeometry relative="1" as="geometry">
            <Array as="points">
              <mxPoint x="-4125" y="1975" />
            </Array>
          </mxGeometry>
        </mxCell>
        <mxCell id="Ig-3myvOuiy7OCBKOPEr-154" style="edgeStyle=orthogonalEdgeStyle;rounded=0;orthogonalLoop=1;jettySize=auto;html=1;exitX=0.798;exitY=0.009;exitDx=0;exitDy=0;entryX=-0.001;entryY=0.818;entryDx=0;entryDy=0;entryPerimeter=0;exitPerimeter=0;fillColor=#fa6800;strokeColor=#C73500;strokeWidth=5;endSize=18;endArrow=block;endFill=0;dashed=1;" edge="1" parent="WIyWlLk6GJQsqaUBKTNV-1" source="Ig-3myvOuiy7OCBKOPEr-130" target="Ig-3myvOuiy7OCBKOPEr-145">
          <mxGeometry relative="1" as="geometry" />
        </mxCell>
        <mxCell id="Jci9rY_oWT2zMIwYghk--1" value="Text" style="edgeLabel;html=1;align=center;verticalAlign=middle;resizable=0;points=[];" connectable="0" vertex="1" parent="Ig-3myvOuiy7OCBKOPEr-154">
          <mxGeometry x="-0.1768" y="4" relative="1" as="geometry">
            <mxPoint as="offset" />
          </mxGeometry>
        </mxCell>
        <mxCell id="Ig-3myvOuiy7OCBKOPEr-155" style="edgeStyle=orthogonalEdgeStyle;rounded=0;orthogonalLoop=1;jettySize=auto;html=1;exitX=0.575;exitY=-0.006;exitDx=0;exitDy=0;exitPerimeter=0;entryX=0.5;entryY=1;entryDx=0;entryDy=0;fillColor=#fa6800;strokeColor=#C73500;strokeWidth=5;endSize=18;endArrow=block;endFill=0;dashed=1;" edge="1" parent="WIyWlLk6GJQsqaUBKTNV-1" source="Ig-3myvOuiy7OCBKOPEr-118" target="Ig-3myvOuiy7OCBKOPEr-142">
          <mxGeometry relative="1" as="geometry">
            <mxPoint x="-3902" y="1913" as="targetPoint" />
            <Array as="points">
              <mxPoint x="-3878" y="2543" />
            </Array>
          </mxGeometry>
        </mxCell>
        <mxCell id="Ig-3myvOuiy7OCBKOPEr-157" style="edgeStyle=orthogonalEdgeStyle;rounded=0;orthogonalLoop=1;jettySize=auto;html=1;exitX=0.25;exitY=0;exitDx=0;exitDy=0;entryX=0.822;entryY=1.002;entryDx=0;entryDy=0;entryPerimeter=0;fillColor=#fa6800;strokeColor=#C73500;strokeWidth=5;endSize=18;endArrow=block;endFill=0;dashed=1;" edge="1" parent="WIyWlLk6GJQsqaUBKTNV-1" source="Ig-3myvOuiy7OCBKOPEr-106" target="Ig-3myvOuiy7OCBKOPEr-145">
          <mxGeometry relative="1" as="geometry" />
        </mxCell>
        <mxCell id="Ig-3myvOuiy7OCBKOPEr-158" style="edgeStyle=orthogonalEdgeStyle;rounded=0;orthogonalLoop=1;jettySize=auto;html=1;exitX=0.5;exitY=0;exitDx=0;exitDy=0;entryX=1.002;entryY=0.725;entryDx=0;entryDy=0;entryPerimeter=0;fillColor=#fa6800;strokeColor=#C73500;strokeWidth=5;endSize=18;endArrow=block;endFill=0;dashed=1;" edge="1" parent="WIyWlLk6GJQsqaUBKTNV-1" source="Ig-3myvOuiy7OCBKOPEr-110" target="Ig-3myvOuiy7OCBKOPEr-145">
          <mxGeometry relative="1" as="geometry" />
        </mxCell>
        <mxCell id="Ig-3myvOuiy7OCBKOPEr-159" style="edgeStyle=orthogonalEdgeStyle;rounded=0;orthogonalLoop=1;jettySize=auto;html=1;exitX=0.5;exitY=0;exitDx=0;exitDy=0;entryX=1.004;entryY=0.218;entryDx=0;entryDy=0;entryPerimeter=0;fillColor=#fa6800;strokeColor=#C73500;strokeWidth=5;endSize=18;endArrow=block;endFill=0;dashed=1;" edge="1" parent="WIyWlLk6GJQsqaUBKTNV-1" source="Ig-3myvOuiy7OCBKOPEr-114" target="Ig-3myvOuiy7OCBKOPEr-145">
          <mxGeometry relative="1" as="geometry" />
        </mxCell>
        <mxCell id="Ig-3myvOuiy7OCBKOPEr-160" style="edgeStyle=orthogonalEdgeStyle;rounded=0;orthogonalLoop=1;jettySize=auto;html=1;exitX=0.133;exitY=-0.021;exitDx=0;exitDy=0;entryX=0.876;entryY=1.028;entryDx=0;entryDy=0;entryPerimeter=0;exitPerimeter=0;fillColor=#fa6800;strokeColor=#C73500;strokeWidth=5;endArrow=block;endFill=0;endSize=18;" edge="1" parent="WIyWlLk6GJQsqaUBKTNV-1" source="Ig-3myvOuiy7OCBKOPEr-98" target="Ig-3myvOuiy7OCBKOPEr-141">
          <mxGeometry relative="1" as="geometry">
            <Array as="points">
              <mxPoint x="-5773" y="1827" />
              <mxPoint x="-5818" y="1827" />
            </Array>
          </mxGeometry>
        </mxCell>
        <mxCell id="Ig-3myvOuiy7OCBKOPEr-161" style="edgeStyle=orthogonalEdgeStyle;rounded=0;orthogonalLoop=1;jettySize=auto;html=1;exitX=0.865;exitY=-0.007;exitDx=0;exitDy=0;exitPerimeter=0;fillColor=#fa6800;strokeColor=#C73500;strokeWidth=5;endArrow=block;endFill=0;endSize=18;entryX=0.178;entryY=1;entryDx=0;entryDy=0;entryPerimeter=0;" edge="1" parent="WIyWlLk6GJQsqaUBKTNV-1" source="Ig-3myvOuiy7OCBKOPEr-102" target="Ig-3myvOuiy7OCBKOPEr-141">
          <mxGeometry relative="1" as="geometry">
            <mxPoint x="-6178" y="1811" as="targetPoint" />
            <Array as="points">
              <mxPoint x="-6347" y="1831" />
              <mxPoint x="-6301" y="1831" />
            </Array>
          </mxGeometry>
        </mxCell>
        <mxCell id="Jci9rY_oWT2zMIwYghk--2" value="&lt;font style=&quot;font-size: 21px;&quot;&gt;Trataremos Enemy como una interfaz, aunque realmente Python no te obligue a pasarle los parametros&lt;/font&gt;" style="shape=note;whiteSpace=wrap;html=1;backgroundOutline=1;darkOpacity=0.05;size=0;fillColor=#f5f5f5;strokeColor=#666666;strokeWidth=5;swimlaneLine=1;fontSize=16;fontFamily=Courier New;fontColor=#333333;" vertex="1" parent="WIyWlLk6GJQsqaUBKTNV-1">
          <mxGeometry x="-3558" y="1294" width="647" height="215" as="geometry" />
        </mxCell>
        <mxCell id="Jci9rY_oWT2zMIwYghk--4" style="edgeStyle=orthogonalEdgeStyle;rounded=0;orthogonalLoop=1;jettySize=auto;html=1;exitX=0.545;exitY=1.006;exitDx=0;exitDy=0;entryX=0.407;entryY=-0.013;entryDx=0;entryDy=0;entryPerimeter=0;exitPerimeter=0;strokeColor=#36393D;strokeWidth=5;endSize=18;" edge="1" parent="WIyWlLk6GJQsqaUBKTNV-1" source="Ig-3myvOuiy7OCBKOPEr-93" target="Ig-3myvOuiy7OCBKOPEr-138">
          <mxGeometry relative="1" as="geometry" />
        </mxCell>
      </root>
    </mxGraphModel>
  </diagram>
</mxfile>
